<svg width="421" height="316" viewBox="0 0 421 316" fill="none" xmlns="http://www.w3.org/2000/svg">
<g filter="url(#filter0_d_431_2313)">
<rect x="16" y="14" width="381" height="276" rx="15" fill="white" shape-rendering="crispEdges"/>
<path fill-rule="evenodd" clip-rule="evenodd" d="M343.104 213.978C343.104 209.168 342.09 196.843 329.278 196.843C318.274 196.843 302.329 204.364 287.977 204.364C267.027 204.364 260.378 187.295 254.567 170.395L275.575 152L246.65 150.895C246.384 150.388 246.11 149.881 245.831 149.367L278.981 113.676L207.572 111.791C187.129 99.2135 169.449 92.7265 150.508 92.7265C103.325 92.7265 70.8965 135.334 70.8965 172.8C70.8965 219.983 94.355 256.039 94.355 256.039L325.216 253.523C325.216 253.523 343.104 232.906 343.104 213.978Z" fill="#FBF4EB"/>
<path fill-rule="evenodd" clip-rule="evenodd" d="M315.51 174.653C309.264 174.653 281.301 188.368 281.301 195.875C281.301 198.04 283.829 199.509 290.401 199.509C308.276 199.509 323.304 194.172 323.304 184.422C323.278 181.042 321.146 174.653 315.51 174.653Z" fill="#FBF4EB"/>
<path fill-rule="evenodd" clip-rule="evenodd" d="M98.6974 133.579H98.4894C96.8254 133.579 95.4734 134.593 95.4734 136.101C95.4613 136.423 95.5132 136.745 95.6262 137.047C95.7392 137.349 95.911 137.625 96.1316 137.861C96.3523 138.096 96.6175 138.285 96.9117 138.417C97.206 138.549 97.5235 138.621 97.8459 138.629C98.2502 138.623 98.6495 138.539 99.0224 138.382C99.0224 138.382 100.829 139.325 101.928 143.14C101.928 143.14 107.57 146.657 110.566 147.079C110.566 147.079 108.129 142.841 108.129 140.917V140.826C108.129 140.826 110.664 140.092 110.664 139.182C110.664 138.857 107.901 129.965 107.901 129.965C107.901 129.965 106.601 130.998 105.88 130.998C105.792 131.001 105.705 130.981 105.626 130.94C105.626 130.94 105.035 132.032 104.326 132.032C104.17 132.031 104.017 131.986 103.884 131.902C103.884 131.902 102.909 133.267 101.986 133.267C101.884 133.269 101.783 133.252 101.687 133.215C101.603 133.621 101.562 134.035 101.564 134.45C101.553 135.14 101.688 135.825 101.96 136.458L101.213 136.913C101.213 136.913 100.517 134.281 98.6974 133.579Z" fill="#F6A88A"/>
<path fill-rule="evenodd" clip-rule="evenodd" d="M114.154 149.77L144.243 148.555L143.95 155.302L142.975 155.425L140.954 171.571L117.859 171.825L115.747 156.68L115.051 156.875L114.154 149.77Z" fill="#E35B5B"/>
<path fill-rule="evenodd" clip-rule="evenodd" d="M129.735 172.15C129.735 172.15 130.294 172.182 131.132 172.182C140.492 172.182 138.867 167.301 140.349 167.301C140.59 167.301 140.947 167.827 140.947 168.49C140.947 169.862 139.647 171.181 139.647 171.578C139.647 171.708 139.745 171.76 139.901 171.76C140.598 171.637 141.253 171.339 141.805 170.895C142.832 170.122 142.923 169.264 143.794 168.484C144.088 168.166 144.457 167.927 144.867 167.788C144.945 167.788 144.984 167.827 144.984 167.925C144.437 169.413 143.719 170.833 142.845 172.156C142.775 172.266 142.696 172.37 142.611 172.468C142.611 172.423 144.529 169.309 145.66 169.309C145.751 169.309 145.803 169.348 145.803 169.439C145.803 170.044 143.255 172.689 142.377 173.989C142.026 174.522 141.773 174.581 141.129 174.581H140.479C136.683 174.581 128.669 177.532 128.669 177.532C128.92 175.719 129.276 173.922 129.735 172.15Z" fill="#F6A88A"/>
<path fill-rule="evenodd" clip-rule="evenodd" d="M108.129 140.95V140.807H108.071C107.668 140.807 105.471 141.041 105.471 141.041L108.474 142.491C108.273 142 108.157 141.479 108.129 140.95Z" fill="#E27C6B"/>
<path fill-rule="evenodd" clip-rule="evenodd" d="M96.6047 136.068C96.5854 136.071 96.5659 136.068 96.5476 136.062C96.5293 136.055 96.5127 136.045 96.499 136.031C96.4853 136.017 96.4748 136.001 96.4684 135.983C96.4619 135.964 96.4596 135.945 96.4617 135.925C96.5285 135.652 96.6869 135.411 96.9104 135.24C97.134 135.07 97.4092 134.981 97.6902 134.989C98.1959 135.023 98.6737 135.234 99.0398 135.584C99.4058 135.935 99.6368 136.403 99.6922 136.907C99.6922 136.985 99.6922 137.102 99.6467 137.102C99.4712 137.102 99.5557 136.296 98.5742 135.756C98.3834 135.858 98.2211 136.006 98.1019 136.187C97.9828 136.367 97.9105 136.575 97.8917 136.79C97.9321 137.062 98.0041 137.328 98.1062 137.583C98.1062 137.583 98.1062 137.635 98.0477 137.635C97.8657 137.635 97.5797 137.232 97.5797 136.803C97.6646 136.333 97.8558 135.888 98.1387 135.503C98.004 135.433 97.8549 135.395 97.7032 135.392C97.0987 135.412 97.0792 136.068 96.6047 136.068Z" fill="#E27C6B"/>
<path fill-rule="evenodd" clip-rule="evenodd" d="M97.9889 134.014C97.4101 134.022 96.8503 134.222 96.3982 134.583C95.946 134.945 95.6275 135.447 95.4929 136.01C95.4929 136.01 92.5029 133.813 92.5029 133.143C92.5029 132.298 94.5244 130.998 94.5244 130.998C93.9042 130.017 93.5214 128.904 93.4064 127.748C93.4064 124.602 99.3019 125.48 104.144 124.849C104.98 124.728 105.822 124.659 106.666 124.641C108.317 124.641 109.591 125.064 109.591 126.663C109.591 126.832 109.591 127.007 109.591 127.527C109.591 128.047 109.591 128.541 109.591 128.944C109.591 129.997 109.429 130.615 108.291 131.148L107.875 130.069C107.875 130.069 106.673 131.369 106.107 131.369C105.984 131.369 105.893 131.304 105.847 131.141C105.847 131.141 105.009 132.337 104.411 132.337C104.322 132.336 104.236 132.307 104.164 132.255C104.091 132.202 104.037 132.129 104.008 132.045C104.008 132.045 103.078 133.449 102.233 133.449C102.05 133.449 101.874 133.379 101.739 133.254C101.683 133.659 101.655 134.067 101.655 134.476C101.627 135.145 101.749 135.811 102.012 136.426L101.18 136.881C101.18 136.881 100.147 134.014 97.9889 134.014Z" fill="#AB4A55"/>
<path fill-rule="evenodd" clip-rule="evenodd" d="M102.11 136.634L101.245 137.05L101.356 137.303L102.22 136.803L102.11 136.634Z" fill="#AB4A55"/>
<path fill-rule="evenodd" clip-rule="evenodd" d="M106.498 135.568C105.776 135.568 104.619 136.179 104.619 136.627C104.619 136.705 104.619 136.835 105.061 136.835C105.757 136.835 107.057 136.439 107.057 135.945C107.057 135.86 106.998 135.568 106.498 135.568Z" fill="#E27C6B"/>
<path fill-rule="evenodd" clip-rule="evenodd" d="M101.993 143.16C101.993 143.16 107.59 146.618 110.528 147.06L110.918 151.805C110.918 151.805 103.527 148.171 101.707 146.605L101.993 143.16Z" fill="#ECE7D0"/>
<path fill-rule="evenodd" clip-rule="evenodd" d="M110.586 147.047L113.777 150.173L112.1 147.164L109.767 145.617C109.992 146.119 110.266 146.598 110.586 147.047Z" fill="#ECE7D0"/>
<path fill-rule="evenodd" clip-rule="evenodd" d="M107.108 185.683L125.627 182.303L125.978 180.353L128.168 180.918L128.818 177.415L130.963 176.765C130.963 176.765 138.64 214.036 138.64 218.41C138.64 224.163 137.808 241.017 137.808 241.017H127.655C127.655 241.017 126.829 220.445 126.829 218.332V218.3L125.068 210.5C125.068 210.5 124.808 218.82 124.418 220.932C122.715 230.903 116.956 244.085 116.956 244.085L108.298 238.58C108.298 238.58 113.244 221.68 113.959 220.698C113.66 220.433 113.466 220.068 113.413 219.671C113.413 219.19 114.063 219.145 114.063 219.145C114.063 219.145 107.31 187.184 107.108 185.683Z" fill="#85B6C5"/>
<path fill-rule="evenodd" clip-rule="evenodd" d="M101.7 146.495C101.7 146.495 99.6005 149.628 97.8715 152.247C96.1425 154.867 93.6465 157.623 93.6465 158.279C93.6465 158.474 94.875 160.996 100.432 170.233C103.5 175.329 107.114 185.67 107.114 185.67L131.775 181.289L131.015 176.739L125.34 178.494L126.198 171.533L117.833 171.188L116.065 156.622L114.992 156.739L114.206 149.907L118.619 149.699L117.319 148.035L112.119 147.197L113.172 149.368L110.533 147.015L110.67 151.214C110.67 151.214 104.67 148.75 101.7 146.495Z" fill="#F6C15C"/>
<path fill-rule="evenodd" clip-rule="evenodd" d="M125.101 179.989L128.227 181.042L129.878 171.942C129.878 171.454 126.199 171.337 126.199 171.337C126.199 171.337 125.205 178.097 125.101 179.989Z" fill="#ECE7D0"/>
<path fill-rule="evenodd" clip-rule="evenodd" d="M117.352 244.125L108.064 238.333L106.523 241.785L115.864 247.55L117.352 244.125Z" fill="#B6DCE8"/>
<path fill-rule="evenodd" clip-rule="evenodd" d="M138.192 240.939H127.408L126.914 245.21L138.523 244.911L138.192 240.939Z" fill="#B6DCE8"/>
<path fill-rule="evenodd" clip-rule="evenodd" d="M109.449 243.572C109.384 243.572 108.077 246.425 106.693 248.694C105.601 250.488 104.548 251.905 104.548 251.905C104.548 251.905 105.302 255.044 108.565 255.044C109.195 255.038 109.822 254.939 110.424 254.752L114.701 246.796L109.449 243.572Z" fill="#343536"/>
<path fill-rule="evenodd" clip-rule="evenodd" d="M131.041 245.125C131.041 245.125 131.574 250.026 131.574 253.614V253.926C132.277 254.142 133.009 254.249 133.745 254.245C135.064 254.269 136.355 253.858 137.418 253.075C137.418 253.075 137.015 246.341 136.911 244.95L131.041 245.125Z" fill="#343536"/>
<path fill-rule="evenodd" clip-rule="evenodd" d="M125.101 210.5C125.003 210.103 123.801 193.067 123.801 193.067C123.801 193.067 127.415 210.214 127.415 213.217C127.375 214.943 127.18 216.661 126.83 218.352C126.83 218.352 125.861 213.912 125.101 210.5Z" fill="#548492"/>
<path fill-rule="evenodd" clip-rule="evenodd" d="M120.102 183.356L131.867 181.679L131.789 181.269C131.789 181.269 121.363 183.161 120.102 183.356Z" fill="#548492"/>
<path fill-rule="evenodd" clip-rule="evenodd" d="M118.477 149.731L116.572 133.065L115.786 132.968L115.285 126.988L143.586 126.338L143.775 132.357L142.995 132.428L142.241 148.678L118.477 149.731Z" fill="#E7AD79"/>
<path fill-rule="evenodd" clip-rule="evenodd" d="M104.579 251.938C104.579 251.938 105.405 255.018 108.571 255.018C109.197 255.01 109.819 254.909 110.417 254.719C111.118 255.943 111.969 257.074 112.952 258.086C114.629 259.835 115.506 260.602 115.506 260.602H115.35C114.763 260.594 114.182 260.718 113.649 260.965C113.117 261.213 112.647 261.578 112.276 262.032C112.276 262.032 109.559 260.206 106.426 258.366C103.293 256.527 101.583 255.408 101.583 255.408L104.579 251.938Z" fill="#498851"/>
<path fill-rule="evenodd" clip-rule="evenodd" d="M133.245 254.115C132.69 254.119 132.138 254.053 131.6 253.92L130.495 260.075C130.495 260.075 132.361 260.212 136.345 260.375L143.307 260.641C143.307 260.641 144.607 258.828 145.634 258.75C144.216 258.108 142.84 257.378 141.513 256.566C140.051 255.502 138.672 254.331 137.385 253.062C136.106 253.73 134.688 254.091 133.245 254.115Z" fill="#498851"/>
<path fill-rule="evenodd" clip-rule="evenodd" d="M101.635 255.408L99.9453 257.456C99.9453 257.456 110.703 262.825 112.185 263.956L117.755 263.858C117.76 263.761 117.76 263.663 117.755 263.566C117.755 260.413 115.214 260.602 114.947 260.602C112.633 260.602 112.029 261.785 112.029 261.785L101.635 255.408Z" fill="#ECE7D0"/>
<path fill-rule="evenodd" clip-rule="evenodd" d="M130.508 260.082L130.105 263.592L149.046 262.851C149.365 262.431 149.543 261.922 149.553 261.395C149.553 259.952 147.226 258.71 145.985 258.71C144.6 258.71 143.287 260.602 143.287 260.602L130.508 260.082Z" fill="#ECE7D0"/>
<path fill-rule="evenodd" clip-rule="evenodd" d="M131.028 176.745L128.857 177.395C128.857 177.395 128.253 180.983 128.207 180.983C127.17 180.694 126.148 180.351 125.146 179.956C125.135 179.907 125.135 179.856 125.146 179.807C125.146 179.501 125.23 178.845 125.23 178.845C125.23 178.845 111.97 179.768 110.638 180.054C110.638 180.054 105.392 173.554 103.13 171.298C100.868 169.043 97.6768 165.448 97.6768 165.448C97.6768 165.448 101.161 171.337 102.227 173.534C103.293 175.731 107.128 185.676 107.128 185.676L131.828 181.25L131.028 176.745Z" fill="#F6A65C"/>
<path fill-rule="evenodd" clip-rule="evenodd" d="M121.98 183.044C121.98 183.044 108.902 186.352 107.316 186.944L107.128 185.644L121.98 183.044Z" fill="#548492"/>
<path fill-rule="evenodd" clip-rule="evenodd" d="M117.905 171.207L111.47 171.643L113.199 170.603L105.997 161.36C105.997 161.36 113.258 169.29 114.447 169.29C115.539 169.29 115.617 160.84 115.617 158.422V157.772L114.662 157.609L113.706 150.609L114.285 150.498L115.234 156.706L116.053 156.621L117.905 171.207Z" fill="#F6A65C"/>
<path d="M116.65 160.677C116.635 160.677 116.619 160.672 116.606 160.663C116.594 160.653 116.584 160.64 116.579 160.625C114.018 153.813 110.508 147.216 110.508 147.112C110.508 147.091 110.516 147.07 110.53 147.054C110.545 147.039 110.565 147.029 110.586 147.027C110.911 147.027 116.735 160.027 116.735 160.593C116.735 160.615 116.726 160.637 116.71 160.653C116.694 160.669 116.673 160.677 116.65 160.677Z" fill="#AB4A55"/>
<path fill-rule="evenodd" clip-rule="evenodd" d="M129.82 172.15C129.823 172.169 129.823 172.189 129.82 172.208C129.82 172.689 129.592 176.108 129.592 177.018C129.592 177.083 129.592 177.135 129.592 177.174L128.845 177.402C128.845 177.402 129.813 172.15 129.82 172.15Z" fill="#E27C6B"/>
<path d="M115.35 156.719C115.34 156.72 115.329 156.719 115.319 156.715C115.308 156.711 115.299 156.706 115.291 156.699C115.283 156.691 115.277 156.682 115.272 156.672C115.268 156.662 115.266 156.652 115.266 156.641C115.265 156.629 115.267 156.618 115.27 156.607C115.274 156.596 115.28 156.586 115.288 156.577C115.296 156.568 115.306 156.562 115.316 156.557C115.327 156.552 115.339 156.55 115.35 156.55L142.956 155.334L143.911 155.191C143.933 155.193 143.953 155.203 143.967 155.218C143.981 155.234 143.989 155.255 143.989 155.276C143.99 155.295 143.983 155.313 143.971 155.327C143.959 155.341 143.943 155.351 143.924 155.354L142.962 155.497L115.35 156.719Z" fill="#AB4A55"/>
<path d="M126.166 160.04C125.802 160.04 124.69 160.04 124.677 158.916C124.677 158.266 124.502 156.316 124.502 156.316C124.502 156.296 124.509 156.277 124.522 156.263C124.536 156.249 124.554 156.24 124.573 156.238C124.595 156.236 124.616 156.242 124.633 156.256C124.65 156.269 124.661 156.288 124.664 156.31C124.885 159.189 124.547 159.91 126.166 159.91C126.393 159.91 126.744 159.911 131.073 159.449C132.64 159.28 133.42 159.397 133.42 158.227C133.42 157.993 133.27 156.686 133.27 155.991C133.27 155.97 133.278 155.949 133.293 155.933C133.307 155.918 133.327 155.908 133.348 155.906C133.394 155.906 133.433 155.907 133.433 155.985C133.465 157.239 133.582 157.902 133.582 158.227C133.601 158.38 133.587 158.535 133.541 158.682C133.496 158.829 133.42 158.966 133.319 159.082C133.218 159.198 133.094 159.292 132.955 159.357C132.815 159.423 132.664 159.459 132.51 159.462C131.398 159.533 126.816 160.04 126.166 160.04Z" fill="#AB4A55"/>
<path d="M116.65 133.182L115.877 133.046C115.858 133.041 115.841 133.031 115.829 133.015C115.817 133 115.811 132.981 115.812 132.961C115.812 132.941 115.82 132.921 115.834 132.906C115.849 132.892 115.869 132.883 115.89 132.883L116.644 133.02L142.975 132.331L143.71 132.22C143.731 132.222 143.751 132.232 143.765 132.247C143.78 132.263 143.788 132.284 143.788 132.305C143.788 132.324 143.781 132.342 143.769 132.356C143.758 132.37 143.741 132.38 143.723 132.383L142.975 132.493L116.65 133.182Z" fill="#AB4A55"/>
<path d="M126.953 137.518C126.251 137.518 125.614 137.355 125.516 136.601C125.419 135.847 125.126 133.059 125.126 133.026C125.125 133.016 125.127 133.005 125.13 132.995C125.134 132.984 125.139 132.975 125.147 132.967C125.154 132.959 125.163 132.953 125.173 132.948C125.183 132.944 125.193 132.942 125.204 132.942C125.214 132.941 125.224 132.942 125.234 132.945C125.243 132.949 125.252 132.954 125.259 132.96C125.266 132.967 125.272 132.975 125.276 132.985C125.28 132.994 125.282 133.003 125.282 133.013C125.692 136.985 125.451 137.355 126.972 137.355H127.33C135.669 136.822 135.292 137.167 135.292 135.087C135.292 134.248 135.234 132.695 135.234 132.675C135.233 132.665 135.234 132.654 135.238 132.644C135.241 132.633 135.247 132.624 135.254 132.616C135.261 132.608 135.27 132.602 135.28 132.597C135.29 132.593 135.301 132.591 135.312 132.591C135.37 132.591 135.455 132.376 135.455 135.093C135.455 135.899 135.559 136.757 134.538 136.952C133.648 137.102 127.375 137.518 126.953 137.518Z" fill="#AB4A55"/>
<path d="M112.751 241.186L112.601 241.128C116.404 231.657 119.101 220.724 119.316 220.724C119.316 220.724 119.914 220.724 119.914 220.289C119.914 219.853 118.789 220.289 118.789 219.697C118.789 219.515 118.9 219.184 119.439 219.125C119.082 217.175 111.561 186.086 111.483 185.767L111.639 185.728C116.033 203.896 119.615 218.846 119.615 219.197C119.615 219.218 119.607 219.239 119.592 219.255C119.578 219.27 119.558 219.28 119.537 219.281C119.355 219.281 118.971 219.366 118.971 219.691C118.971 220.016 120.096 219.6 120.096 220.289C120.096 220.744 119.68 220.867 119.394 220.88C116.768 229.792 114.883 235.993 112.751 241.186Z" fill="#C4EDEF"/>
<path d="M133.7 240.926H133.55L133.745 219.6C133.739 219.583 133.739 219.565 133.745 219.548L134.311 218.898H134.07C133.42 218.898 132.53 218.846 132.53 218.43C132.53 218.014 133.134 217.617 133.323 217.494C132.991 215.869 127.213 183.817 126.966 182.426L127.122 182.394C133.804 219.502 133.498 217.494 133.498 217.533C133.499 217.546 133.495 217.56 133.488 217.571C133.481 217.583 133.471 217.592 133.459 217.598C133.154 217.793 132.692 218.176 132.692 218.423C132.692 218.67 133.596 218.735 134.109 218.735H134.486C134.509 218.735 134.53 218.744 134.546 218.76C134.562 218.776 134.571 218.798 134.571 218.82C134.577 218.837 134.577 218.855 134.571 218.872L133.921 219.652L133.7 240.926Z" fill="#C4EDEF"/>
<path d="M123.976 194.295C123.956 194.294 123.938 194.286 123.924 194.273C123.91 194.26 123.9 194.243 123.898 194.224L122.104 183.089C122.109 183.072 122.119 183.056 122.134 183.045C122.149 183.034 122.166 183.028 122.185 183.028C122.203 183.028 122.221 183.034 122.236 183.045C122.25 183.056 122.261 183.072 122.266 183.089L124.054 194.224C124.051 194.243 124.041 194.26 124.027 194.273C124.013 194.286 123.995 194.294 123.976 194.295Z" fill="#548492"/>
<path d="M122.943 187.834C122.922 187.835 122.901 187.827 122.885 187.812C122.87 187.798 122.86 187.778 122.858 187.756C122.858 187.607 124.204 187.399 124.204 186.287C124.204 185.709 123.84 182.81 123.84 182.771C123.84 182.76 123.842 182.749 123.846 182.74C123.851 182.73 123.857 182.721 123.865 182.713C123.873 182.706 123.882 182.7 123.893 182.697C123.903 182.693 123.914 182.692 123.924 182.693C124.087 182.693 124.366 186.261 124.366 186.287C124.366 187.412 123.008 187.834 122.943 187.834Z" fill="#548492"/>
<path d="M136.267 256.455C136.181 256.455 136.099 256.421 136.038 256.36C135.977 256.299 135.942 256.216 135.942 256.13C135.942 255.74 137.372 253.913 138.945 253.913C139.032 253.913 139.114 253.948 139.175 254.009C139.236 254.07 139.27 254.152 139.27 254.238C139.27 254.325 139.236 254.407 139.175 254.468C139.114 254.529 139.032 254.563 138.945 254.563C137.418 254.667 136.54 256.266 136.534 256.286C136.507 256.334 136.469 256.375 136.422 256.404C136.376 256.434 136.322 256.451 136.267 256.455Z" fill="#ECE7D0"/>
<path d="M137.814 257.352C137.771 257.353 137.729 257.345 137.689 257.329C137.649 257.313 137.613 257.289 137.583 257.259C137.552 257.228 137.528 257.192 137.512 257.152C137.496 257.113 137.488 257.07 137.489 257.027C137.489 256.637 138.926 254.81 140.492 254.81C140.579 254.81 140.661 254.845 140.722 254.906C140.783 254.967 140.817 255.049 140.817 255.135C140.816 255.218 140.784 255.297 140.727 255.357C140.671 255.417 140.594 255.454 140.512 255.46C138.984 255.571 138.107 257.17 138.1 257.183C138.073 257.235 138.032 257.278 137.981 257.308C137.931 257.338 137.873 257.353 137.814 257.352Z" fill="#ECE7D0"/>
<path d="M139.524 258.275C139.438 258.275 139.355 258.241 139.294 258.18C139.233 258.119 139.199 258.036 139.199 257.95C139.199 257.56 140.629 255.734 142.209 255.734C142.251 255.734 142.293 255.742 142.332 255.758C142.371 255.775 142.407 255.799 142.436 255.829C142.466 255.859 142.489 255.895 142.505 255.935C142.52 255.974 142.528 256.016 142.527 256.059C142.527 256.14 142.497 256.219 142.441 256.28C142.386 256.34 142.31 256.377 142.228 256.384C140.694 256.494 139.823 258.087 139.81 258.106C139.783 258.158 139.741 258.201 139.691 258.231C139.641 258.261 139.583 258.276 139.524 258.275Z" fill="#ECE7D0"/>
<path d="M141.077 259.536C140.991 259.536 140.908 259.502 140.847 259.441C140.786 259.38 140.752 259.297 140.752 259.211C140.752 258.815 142.188 256.995 143.761 256.995C143.848 256.995 143.93 257.029 143.991 257.09C144.052 257.151 144.086 257.233 144.086 257.32C144.086 257.406 144.052 257.488 143.991 257.549C143.93 257.61 143.848 257.645 143.761 257.645C142.221 257.755 141.356 259.348 141.343 259.367C141.317 259.415 141.278 259.456 141.232 259.485C141.185 259.515 141.132 259.532 141.077 259.536Z" fill="#ECE7D0"/>
<path d="M137.45 253.465C137.36 253.458 137.276 253.416 137.216 253.348C137.156 253.28 137.126 253.191 137.131 253.101C137.131 253.101 137.131 253.062 137.131 253.042C137.17 251.742 137.411 248.427 138.678 248.427C139.497 248.427 139.471 249.337 139.471 249.376C139.484 250.455 138.061 253.465 137.45 253.465ZM138.685 249.077C138.249 249.077 137.944 251.027 137.853 252.022C138.343 251.226 138.677 250.343 138.834 249.422C138.841 249.064 138.75 249.077 138.691 249.077H138.685Z" fill="#ECE7D0"/>
<path d="M135.533 253.875C135.5 253.875 133.368 253.998 133.368 252.939C133.368 252.672 133.498 252.068 134.558 252.068C135.612 252.16 136.643 252.423 137.613 252.847C137.918 252.925 137.964 253.121 137.964 253.225C137.964 253.68 136.865 253.875 135.533 253.875ZM134.558 252.718C134.369 252.718 134.038 252.717 134.038 252.932C134.038 252.971 134.239 253.231 135.487 253.231C135.869 253.23 136.251 253.208 136.631 253.166C135.957 252.928 135.252 252.788 134.538 252.75L134.558 252.718Z" fill="#ECE7D0"/>
<path d="M108.721 256.299C108.634 256.299 108.552 256.265 108.491 256.204C108.43 256.143 108.396 256.06 108.396 255.974C108.396 255.512 109.845 255.213 110.541 255.213C111.11 255.21 111.67 255.355 112.166 255.636C112.213 255.665 112.253 255.706 112.28 255.755C112.308 255.804 112.322 255.859 112.322 255.915C112.322 256.002 112.287 256.086 112.227 256.148C112.166 256.21 112.083 256.245 111.997 256.247C111.542 256.022 111.047 255.894 110.541 255.87C109.914 255.908 109.298 256.053 108.721 256.299Z" fill="#ECE7D0"/>
<path d="M109.54 257.651C109.454 257.651 109.371 257.617 109.31 257.556C109.249 257.495 109.215 257.412 109.215 257.326C109.215 256.871 110.664 256.572 111.36 256.572C111.93 256.564 112.491 256.71 112.985 256.994C113.033 257.023 113.073 257.064 113.101 257.113C113.128 257.162 113.142 257.218 113.141 257.274C113.141 257.36 113.107 257.443 113.046 257.504C112.985 257.565 112.902 257.599 112.816 257.599C112.361 257.375 111.866 257.247 111.36 257.222C110.733 257.26 110.118 257.405 109.54 257.651Z" fill="#ECE7D0"/>
<path d="M110.852 259.075C110.766 259.075 110.683 259.04 110.623 258.979C110.562 258.918 110.527 258.836 110.527 258.75C110.527 258.295 111.977 257.996 112.666 257.996C113.236 257.987 113.797 258.133 114.291 258.418C114.352 258.454 114.399 258.509 114.426 258.575C114.453 258.641 114.457 258.713 114.439 258.782C114.42 258.85 114.38 258.911 114.324 258.954C114.268 258.998 114.199 259.022 114.128 259.022C113.674 258.799 113.178 258.67 112.672 258.646C112.046 258.683 111.43 258.828 110.852 259.075Z" fill="#ECE7D0"/>
<path d="M112.185 260.342C112.099 260.342 112.016 260.308 111.956 260.247C111.895 260.186 111.86 260.103 111.86 260.017C111.86 259.562 113.31 259.263 114.005 259.263C114.575 259.255 115.137 259.401 115.63 259.686C115.679 259.714 115.72 259.755 115.749 259.804C115.777 259.853 115.793 259.908 115.793 259.965C115.793 260.051 115.759 260.134 115.698 260.195C115.637 260.256 115.554 260.29 115.468 260.29C115.011 260.067 114.513 259.938 114.005 259.913C113.379 259.951 112.763 260.096 112.185 260.342Z" fill="#ECE7D0"/>
<path d="M110.502 254.869C110.294 254.869 110.027 254.83 110.027 254.544C110.031 254.485 110.048 254.427 110.077 254.375C110.106 254.323 110.147 254.279 110.196 254.245C110.664 253.816 112.835 251.911 114.005 251.911C114.109 251.908 114.211 251.925 114.308 251.962C114.404 251.999 114.492 252.055 114.567 252.126C114.641 252.198 114.701 252.284 114.742 252.378C114.783 252.473 114.804 252.575 114.805 252.678C114.805 254.05 110.866 254.869 110.502 254.869ZM113.973 252.555C113.466 252.555 112.367 253.289 111.418 254.05C113.102 253.588 114.155 252.984 114.155 252.672C114.16 252.659 114.16 252.645 114.155 252.633C114.129 252.6 114.109 252.555 113.973 252.555Z" fill="#ECE7D0"/>
<path d="M110.241 255.187C109.649 255.187 106.854 253.621 106.854 252.516C106.865 252.318 106.95 252.131 107.094 251.994C107.238 251.857 107.429 251.781 107.628 251.781C108.59 251.781 109.844 253.523 110.462 254.544C110.54 254.63 110.586 254.74 110.592 254.856C110.593 254.901 110.585 254.947 110.567 254.989C110.549 255.031 110.523 255.069 110.49 255.1C110.457 255.131 110.418 255.155 110.375 255.17C110.332 255.185 110.286 255.191 110.241 255.187ZM107.635 252.431C107.613 252.432 107.593 252.437 107.574 252.446C107.555 252.455 107.538 252.468 107.524 252.483C107.521 252.489 107.519 252.496 107.519 252.503C107.519 252.51 107.521 252.517 107.524 252.522C107.524 252.6 107.726 253.211 109.474 254.212C108.792 253.25 108.031 252.431 107.635 252.431Z" fill="#ECE7D0"/>
<path fill-rule="evenodd" clip-rule="evenodd" d="M138.64 217.773C138.64 217.858 138.64 217.916 138.64 217.923C138.385 217.999 138.12 218.043 137.854 218.053C137.806 218.06 137.758 218.06 137.711 218.053L137.847 217.734C137.847 217.734 137.197 217.63 137.197 217.487C137.197 217.344 137.717 217.188 137.717 217.188L137.373 216.98C137.481 216.987 137.59 216.987 137.698 216.98C138.185 216.98 138.094 216.837 138.393 216.837C138.468 216.838 138.543 216.848 138.614 216.87C138.614 216.87 138.64 217.487 138.64 217.773Z" fill="#B6DCE8"/>
<path fill-rule="evenodd" clip-rule="evenodd" d="M124.229 222.031L123.67 222.206L123.722 221.907C123.545 221.914 123.367 221.892 123.196 221.842C123.297 221.821 123.386 221.76 123.443 221.673C123.501 221.549 123.534 221.414 123.54 221.277L123.17 221.036L123.469 220.763V220.705C123.469 220.568 123.469 220.243 123.579 220.243C123.783 220.317 123.981 220.407 124.171 220.51L124.242 220.25L124.541 220.36C124.469 220.923 124.365 221.481 124.229 222.031Z" fill="#B6DCE8"/>
<path fill-rule="evenodd" clip-rule="evenodd" d="M95.4088 156.582C95.0482 157.025 94.7588 157.52 94.5508 158.051C94.6002 158.463 94.6939 158.869 94.8303 159.26L94.9993 158.5L95.7468 159.338C95.6988 159.072 95.6706 158.803 95.6623 158.532C95.6623 158.337 95.6623 158.168 95.7988 158.168C95.9353 158.168 96.2083 158.467 96.2083 158.467C96.1869 158.297 96.1761 158.126 96.1758 157.954C96.1758 157.193 96.4293 157.304 96.4293 156.855C96.4307 156.776 96.4175 156.696 96.3903 156.621L95.9483 157.115L95.4023 157.414L95.4088 156.582Z" fill="#F6A65C"/>
<path fill-rule="evenodd" clip-rule="evenodd" d="M142.189 148.659L118.503 149.718L118.38 149.01L142.189 148.659Z" fill="#343536"/>
<path d="M105.971 131.596C105.95 131.597 105.929 131.589 105.914 131.574C105.898 131.56 105.888 131.54 105.887 131.518C106.163 130.785 106.302 130.007 106.296 129.224C106.296 129.202 106.305 129.18 106.321 129.164C106.337 129.148 106.358 129.139 106.381 129.139C106.392 129.139 106.402 129.142 106.412 129.146C106.422 129.15 106.431 129.157 106.438 129.165C106.446 129.173 106.451 129.182 106.455 129.192C106.458 129.202 106.46 129.213 106.459 129.224C106.459 129.841 106.251 131.596 105.971 131.596Z" fill="#3E3B3B"/>
<path d="M107.862 130.439C107.841 130.439 107.822 130.431 107.807 130.417C107.792 130.402 107.784 130.382 107.784 130.362C108.057 129.746 108.21 129.084 108.233 128.412C108.233 128.391 108.241 128.371 108.256 128.356C108.27 128.342 108.29 128.333 108.311 128.333C108.333 128.333 108.355 128.342 108.37 128.358C108.386 128.374 108.395 128.396 108.395 128.418C108.395 129.107 108.044 130.439 107.862 130.439Z" fill="#3E3B3B"/>
<path d="M104.112 132.5C104.095 132.496 104.08 132.485 104.069 132.471C104.059 132.457 104.053 132.44 104.054 132.422C104.548 130.92 104.606 129.347 104.749 129.347C104.772 129.347 104.793 129.356 104.809 129.372C104.825 129.388 104.834 129.41 104.834 129.432C104.814 129.776 104.301 132.5 104.112 132.5Z" fill="#3E3B3B"/>
<path d="M101.902 133.709C101.879 133.709 101.858 133.7 101.842 133.684C101.826 133.668 101.817 133.647 101.817 133.624C101.857 133.327 101.877 133.027 101.876 132.727C101.869 132.044 101.797 131.363 101.661 130.693C101.661 130.671 101.67 130.649 101.686 130.633C101.702 130.617 101.723 130.608 101.746 130.608C101.908 130.608 102.038 132.11 102.038 132.727C102.038 133.032 102.018 133.336 101.98 133.637C101.977 133.656 101.967 133.674 101.953 133.687C101.939 133.7 101.921 133.708 101.902 133.709Z" fill="#3E3B3B"/>
<path fill-rule="evenodd" clip-rule="evenodd" d="M252.219 177.188L251.439 170.343L250.867 170.584L250.594 168.205C250.594 168.205 258.095 166.866 262.138 166.866C264.549 166.858 266.944 167.247 269.229 168.016L269.119 170.545H268.469L267.988 177.591L252.219 177.188Z" fill="#85B6C5"/>
<path d="M268.436 170.616C268.332 170.616 267.019 169.843 260.818 169.843C254.162 169.843 251.51 170.493 251.445 170.493C251.424 170.491 251.404 170.481 251.39 170.466C251.375 170.45 251.367 170.429 251.367 170.408C251.367 170.168 255.781 169.687 260.805 169.687C266.538 169.687 268.521 170.337 268.521 170.532C268.521 170.554 268.512 170.575 268.496 170.591C268.48 170.607 268.459 170.616 268.436 170.616Z" fill="#AB4A55"/>
<path d="M258.024 171.701C257.699 171.701 257.225 171.539 257.225 170.564C257.224 170.346 257.246 170.128 257.29 169.914C257.294 169.895 257.305 169.878 257.32 169.866C257.336 169.855 257.355 169.848 257.374 169.849C257.395 169.849 257.415 169.857 257.429 169.872C257.444 169.886 257.452 169.906 257.452 169.927C257.412 170.141 257.39 170.359 257.387 170.577C257.387 170.869 257.426 171.546 258.037 171.546H258.349C259.513 171.5 261.469 171.435 262.34 171.35C262.932 171.298 263.055 170.616 263.055 170.122C263.06 170.038 263.06 169.953 263.055 169.868C263.055 169.858 263.057 169.847 263.062 169.837C263.066 169.827 263.072 169.818 263.08 169.811C263.088 169.804 263.098 169.798 263.108 169.794C263.118 169.791 263.129 169.79 263.14 169.79C263.159 169.792 263.177 169.8 263.191 169.813C263.205 169.826 263.215 169.843 263.218 169.862C263.218 169.862 263.218 169.979 263.218 170.128C263.218 171.76 262.62 171.559 258.349 171.708H258.031L258.024 171.701Z" fill="#AB4A55"/>
<path fill-rule="evenodd" clip-rule="evenodd" d="M249.373 177.103C249.373 177.103 266.611 177.188 269.562 177.701L268.262 190.701L251.161 190.61L250.14 182.03L249.646 182.102L249.373 177.103Z" fill="#E35B5B"/>
<path fill-rule="evenodd" clip-rule="evenodd" d="M247.67 190.669L271.648 190.74L271.512 192.918L269.042 193.269L273.878 257.398L272.578 257.255L267.573 193.295L252.499 193.002L244.251 256.572L242.996 256.449L251.277 192.833L248.06 192.892L247.67 190.669Z" fill="#343536"/>
<path fill-rule="evenodd" clip-rule="evenodd" d="M246.916 238.398L271.746 238.086L271.889 239.009H247.007L246.916 238.398Z" fill="#343536"/>
<path d="M268.436 170.616C268.332 170.616 267.019 169.843 260.818 169.843C254.162 169.843 251.51 170.493 251.445 170.493C251.424 170.491 251.404 170.481 251.39 170.466C251.375 170.45 251.367 170.429 251.367 170.408C251.367 170.168 255.781 169.687 260.805 169.687C266.538 169.687 268.521 170.337 268.521 170.532C268.521 170.554 268.512 170.575 268.496 170.591C268.48 170.607 268.459 170.616 268.436 170.616Z" fill="#AB4A55"/>
<path d="M268.436 170.616C268.332 170.616 267.019 169.843 260.818 169.843C254.162 169.843 251.51 170.493 251.445 170.493C251.424 170.491 251.404 170.481 251.39 170.466C251.375 170.45 251.367 170.429 251.367 170.408C251.367 170.168 255.781 169.687 260.805 169.687C266.538 169.687 268.521 170.337 268.521 170.532C268.521 170.554 268.512 170.575 268.496 170.591C268.48 170.607 268.459 170.616 268.436 170.616Z" fill="#AB4A55"/>
<path d="M258.024 171.701C257.699 171.701 257.225 171.539 257.225 170.564C257.224 170.346 257.246 170.128 257.29 169.914C257.294 169.895 257.305 169.878 257.32 169.866C257.336 169.855 257.355 169.848 257.374 169.849C257.395 169.849 257.415 169.857 257.429 169.872C257.444 169.886 257.452 169.906 257.452 169.927C257.412 170.141 257.39 170.359 257.387 170.577C257.387 170.869 257.426 171.546 258.037 171.546H258.349C259.513 171.5 261.469 171.435 262.34 171.35C262.932 171.298 263.055 170.616 263.055 170.122C263.06 170.038 263.06 169.953 263.055 169.868C263.055 169.858 263.057 169.847 263.062 169.837C263.066 169.827 263.072 169.818 263.08 169.811C263.088 169.804 263.098 169.798 263.108 169.794C263.118 169.791 263.129 169.79 263.14 169.79C263.159 169.792 263.177 169.8 263.191 169.813C263.205 169.826 263.215 169.843 263.218 169.862C263.218 169.862 263.218 169.979 263.218 170.128C263.218 171.76 262.62 171.559 258.349 171.708H258.031L258.024 171.701Z" fill="#AB4A55"/>
<path d="M258.024 171.701C257.699 171.701 257.225 171.539 257.225 170.564C257.224 170.346 257.246 170.128 257.29 169.914C257.294 169.895 257.305 169.878 257.32 169.866C257.336 169.855 257.355 169.848 257.374 169.849C257.395 169.849 257.415 169.857 257.429 169.872C257.444 169.886 257.452 169.906 257.452 169.927C257.412 170.141 257.39 170.359 257.387 170.577C257.387 170.869 257.426 171.546 258.037 171.546H258.349C259.513 171.5 261.469 171.435 262.34 171.35C262.932 171.298 263.055 170.616 263.055 170.122C263.06 170.038 263.06 169.953 263.055 169.868C263.055 169.858 263.057 169.847 263.062 169.837C263.066 169.827 263.072 169.818 263.08 169.811C263.088 169.804 263.098 169.798 263.108 169.794C263.118 169.791 263.129 169.79 263.14 169.79C263.159 169.792 263.177 169.8 263.191 169.813C263.205 169.826 263.215 169.843 263.218 169.862C263.218 169.862 263.218 169.979 263.218 170.128C263.218 171.76 262.62 171.559 258.349 171.708H258.031L258.024 171.701Z" fill="#AB4A55"/>
<path d="M258.024 171.701C257.699 171.701 257.225 171.539 257.225 170.564C257.224 170.346 257.246 170.128 257.29 169.914C257.294 169.895 257.305 169.878 257.32 169.866C257.336 169.855 257.355 169.848 257.374 169.849C257.395 169.849 257.415 169.857 257.429 169.872C257.444 169.886 257.452 169.906 257.452 169.927C257.412 170.141 257.39 170.359 257.387 170.577C257.387 170.869 257.426 171.546 258.037 171.546H258.349C259.513 171.5 261.469 171.435 262.34 171.35C262.932 171.298 263.055 170.616 263.055 170.122C263.06 170.038 263.06 169.953 263.055 169.868C263.055 169.858 263.057 169.847 263.062 169.837C263.066 169.827 263.072 169.818 263.08 169.811C263.088 169.804 263.098 169.798 263.108 169.794C263.118 169.791 263.129 169.79 263.14 169.79C263.159 169.792 263.177 169.8 263.191 169.813C263.205 169.826 263.215 169.843 263.218 169.862C263.218 169.862 263.218 169.979 263.218 170.128C263.218 171.76 262.62 171.559 258.349 171.708H258.031L258.024 171.701Z" fill="#AB4A55"/>
<path d="M258.024 171.701C257.699 171.701 257.225 171.539 257.225 170.564C257.224 170.346 257.246 170.128 257.29 169.914C257.294 169.895 257.305 169.878 257.32 169.866C257.336 169.855 257.355 169.848 257.374 169.849C257.395 169.849 257.415 169.857 257.429 169.872C257.444 169.886 257.452 169.906 257.452 169.927C257.412 170.141 257.39 170.359 257.387 170.577C257.387 170.869 257.426 171.546 258.037 171.546H258.349C259.513 171.5 261.469 171.435 262.34 171.35C262.932 171.298 263.055 170.616 263.055 170.122C263.06 170.038 263.06 169.953 263.055 169.868C263.055 169.858 263.057 169.847 263.062 169.837C263.066 169.827 263.072 169.818 263.08 169.811C263.088 169.804 263.098 169.798 263.108 169.794C263.118 169.791 263.129 169.79 263.14 169.79C263.159 169.792 263.177 169.8 263.191 169.813C263.205 169.826 263.215 169.843 263.218 169.862C263.218 169.862 263.218 169.979 263.218 170.128C263.218 171.76 262.62 171.559 258.349 171.708H258.031L258.024 171.701Z" fill="#AB4A55"/>
<path d="M250.166 182.121C250.145 182.121 250.125 182.113 250.111 182.098C250.096 182.084 250.088 182.064 250.088 182.043C250.088 181.874 252.116 181.854 257.459 181.854C257.524 181.854 269.159 181.854 269.159 181.997C269.159 182.02 269.15 182.041 269.134 182.057C269.118 182.073 269.097 182.082 269.074 182.082C268.97 182.082 262.737 182.017 257.413 182.017C250.504 182.017 250.27 182.121 250.166 182.121Z" fill="#AB4A55"/>
<path d="M260.26 183.421C259.721 183.421 259.162 183.421 258.642 183.421H258.174C257.023 183.421 257.095 182.453 257.095 182.42C257.093 182.266 257.115 182.113 257.16 181.965C257.165 181.948 257.175 181.934 257.189 181.923C257.203 181.913 257.22 181.907 257.238 181.907C257.259 181.908 257.279 181.918 257.293 181.933C257.308 181.949 257.316 181.97 257.316 181.991C257.279 182.131 257.259 182.275 257.257 182.42C257.257 183.07 257.673 183.246 258.174 183.259H258.648C259.162 183.259 259.727 183.259 260.267 183.259C262.295 183.259 262.743 183.213 262.743 182.212C262.752 182.115 262.752 182.017 262.743 181.92C262.743 181.897 262.752 181.876 262.768 181.86C262.784 181.844 262.805 181.835 262.828 181.835C262.847 181.835 262.866 181.842 262.881 181.856C262.895 181.869 262.904 181.887 262.906 181.907C262.917 182.01 262.917 182.115 262.906 182.219C262.899 183.415 262.204 183.421 260.26 183.421Z" fill="#AB4A55"/>
<path fill-rule="evenodd" clip-rule="evenodd" d="M233.649 67.396L232.798 51.341L232.024 51.926L231.719 46.336C231.719 46.336 242.177 42.865 247.644 42.865C250.863 42.8965 254.019 43.7705 256.796 45.4L256.568 51.328L255.665 51.406L254.82 67.968L233.649 67.396Z" fill="#85B6C5"/>
<path d="M232.791 51.575C232.77 51.575 232.75 51.5668 232.736 51.5522C232.721 51.5375 232.713 51.5177 232.713 51.497C232.713 51.146 238.777 49.625 246.545 49.625C253.513 49.625 255.736 51.133 255.736 51.302C255.737 51.3128 255.735 51.3236 255.732 51.3338C255.728 51.3441 255.723 51.3535 255.715 51.3614C255.708 51.3694 255.699 51.3757 255.689 51.38C255.679 51.3843 255.669 51.3865 255.658 51.3865C255.495 51.3865 253.942 49.781 246.558 49.781C237.243 49.781 232.856 51.575 232.791 51.575Z" fill="#AB4A55"/>
<path d="M241.593 54.24C240.696 54.24 240.586 52.719 240.586 51.822C240.59 51.27 240.627 50.7186 240.696 50.171C240.699 50.152 240.709 50.1345 240.723 50.1215C240.737 50.1085 240.755 50.1008 240.774 50.0995C240.797 50.0995 240.818 50.1084 240.834 50.1243C240.85 50.1401 240.859 50.1616 240.859 50.184C240.793 50.7341 240.758 51.2875 240.755 51.8415C240.755 52.1275 240.755 54.0775 241.593 54.0775H241.652L242.048 54.045C243.615 53.9215 246.241 53.707 247.404 53.486C248.34 53.317 248.444 51.237 248.444 50.314C248.444 50.041 248.444 49.885 248.444 49.872C248.446 49.8518 248.455 49.8328 248.469 49.8185C248.483 49.8042 248.502 49.7955 248.522 49.794C248.613 49.794 248.613 49.859 248.613 50.34C248.613 51.3085 248.496 53.4535 247.443 53.6485C246.267 53.863 243.641 54.0775 242.068 54.2075L241.671 54.24H241.593Z" fill="#AB4A55"/>
<path fill-rule="evenodd" clip-rule="evenodd" d="M176.807 124.479C173.448 124.411 170.094 124.765 166.823 125.532L166.914 132.714L168.058 132.5L169.131 147.216L192.856 147.56L193.506 133.397H194.682L195.04 126.247C189.021 125.159 182.923 124.568 176.807 124.479Z" fill="#E7AD79"/>
<path fill-rule="evenodd" clip-rule="evenodd" d="M177.75 112.207C175.36 112.159 172.97 112.288 170.6 112.59L170.944 117.205L171.835 117.316L172.342 124.661C172.342 124.661 189.242 125.22 192.089 125.844L192.739 117.81L193.506 117.537L193.616 112.857C193.616 112.857 184.9 112.207 177.75 112.207Z" fill="#85B6C5"/>
<path fill-rule="evenodd" clip-rule="evenodd" d="M242.1 66.5185C236.731 66.5185 231.135 66.772 226.812 67.5585L226.851 74.858L227.872 74.923C227.872 74.923 228.658 86.675 228.658 91.0365C228.658 91.563 228.658 91.9855 228.619 92.265L256.57 94.0525L258.402 76.2035L259.267 76.0605L260.112 67.2855C260.112 67.2855 251.441 66.5185 242.1 66.5185Z" fill="#E35B5B"/>
<path fill-rule="evenodd" clip-rule="evenodd" d="M225.238 91.6995C225.238 91.6995 255.554 92.759 260.462 93.526L259.357 102.931L258.154 103.048L257.296 111.557L224.861 110.049L226.012 100.65L224.387 100.416L225.238 91.6995Z" fill="#E7AD79"/>
<path fill-rule="evenodd" clip-rule="evenodd" d="M238.486 130.739C236.389 130.736 234.298 130.954 232.246 131.389C232.246 131.389 232.246 146.339 232.396 149.192L245.695 149.602L245.435 131.707C243.186 131.009 240.84 130.682 238.486 130.739Z" fill="#E35B5B"/>
<path fill-rule="evenodd" clip-rule="evenodd" d="M236.412 140.651C236.421 140.293 236.501 139.941 236.647 139.614C236.792 139.287 237.001 138.992 237.26 138.746C237.52 138.5 237.825 138.307 238.159 138.179C238.493 138.051 238.849 137.989 239.207 137.999C240.254 137.999 242.028 138.766 242.028 140.671C242.019 141.028 241.939 141.381 241.794 141.707C241.648 142.034 241.44 142.329 241.18 142.576C240.921 142.822 240.615 143.015 240.281 143.143C239.947 143.271 239.591 143.332 239.233 143.323C238.2 143.323 236.412 142.556 236.412 140.651Z" fill="#ECE7D0"/>
<path fill-rule="evenodd" clip-rule="evenodd" d="M156.41 146.065L275.9 149.452L275.822 152.052L156.332 148.685L156.41 146.065Z" fill="#343536"/>
<path fill-rule="evenodd" clip-rule="evenodd" d="M156.949 107.8L279.474 111.271L279.403 113.871L156.878 110.393L156.949 107.8Z" fill="#343536"/>
<path fill-rule="evenodd" clip-rule="evenodd" d="M161.864 108.287L160.759 95.2875L162.917 94.9495L161.539 85.453L162.468 85.2385L163.58 94.098L163.814 86.87L164.529 86.9935L164.126 94.8585C164.481 94.9045 164.84 94.9284 165.198 94.93H165.491L167.636 85.3685L169.001 85.453L167.129 95.203C167.759 95.2708 168.362 95.4942 168.884 95.853L168 108.326L161.864 108.287Z" fill="#343536"/>
<path fill-rule="evenodd" clip-rule="evenodd" d="M176.372 109.178C169.963 109.178 170.762 108.937 170.762 107.624C170.762 106.162 170.814 103.958 170.814 103.958L169.677 103.861L169.807 101.566L187.396 100.318L187.526 102.756L186.518 103.224L186.765 108.911C186.765 108.911 181 109.178 176.372 109.178Z" fill="#343536"/>
<path d="M168.169 132.649C168.148 132.648 168.128 132.638 168.113 132.623C168.099 132.607 168.091 132.586 168.091 132.565C168.091 132.357 177.412 132.259 188.091 132.201C188.112 132.201 188.132 132.209 188.146 132.224C188.161 132.238 188.169 132.258 188.169 132.279C188.15 132.344 168.234 132.649 168.169 132.649Z" fill="#AB4A55"/>
<path d="M179.7 135.75C177.432 135.75 176.736 136.017 176.736 133.313C176.736 132.838 176.736 132.468 176.736 132.422C176.739 132.403 176.749 132.386 176.763 132.373C176.777 132.36 176.795 132.352 176.814 132.351C176.837 132.351 176.858 132.359 176.874 132.375C176.89 132.391 176.899 132.413 176.899 132.435C176.899 132.435 176.899 132.793 176.899 133.3C176.899 134.203 177.022 135.341 177.549 135.477C178.253 135.575 178.964 135.612 179.674 135.588C181.67 135.588 184.361 135.471 184.965 135.406C185.57 135.341 185.843 133.163 185.862 132.331C185.862 132.309 185.871 132.287 185.887 132.271C185.903 132.255 185.924 132.247 185.947 132.247C185.958 132.246 185.968 132.249 185.978 132.253C185.988 132.257 185.997 132.264 186.004 132.272C186.012 132.28 186.017 132.289 186.021 132.299C186.024 132.309 186.026 132.32 186.025 132.331C186.025 133.631 185.713 135.49 184.985 135.581C184.354 135.62 181.696 135.75 179.7 135.75Z" fill="#AB4A55"/>
<path d="M171.932 117.439C171.91 117.439 171.888 117.431 171.872 117.415C171.857 117.399 171.848 117.377 171.848 117.355C171.848 117.334 171.856 117.314 171.871 117.3C171.885 117.285 171.905 117.277 171.926 117.277C172.628 117.212 172.946 117.199 173.076 117.199H173.154C173.174 117.202 173.193 117.212 173.206 117.228C173.219 117.243 173.226 117.263 173.226 117.283C173.226 117.283 173.226 117.368 173.154 117.368H173.083C172.712 117.361 171.945 117.439 171.932 117.439Z" fill="#AB4A55"/>
<path d="M191.829 117.361L187.234 116.588C187.215 116.585 187.197 116.576 187.184 116.562C187.171 116.547 187.163 116.529 187.162 116.51C187.163 116.489 187.172 116.469 187.186 116.454C187.2 116.438 187.219 116.428 187.24 116.425L191.836 117.192C191.854 117.196 191.871 117.206 191.884 117.22C191.897 117.234 191.905 117.252 191.907 117.27C191.908 117.282 191.907 117.293 191.903 117.303C191.9 117.314 191.894 117.324 191.887 117.332C191.88 117.341 191.871 117.348 191.861 117.353C191.851 117.358 191.84 117.361 191.829 117.361Z" fill="#AB4A55"/>
<path d="M231.783 132.279C231.773 132.279 231.762 132.277 231.752 132.272C231.742 132.268 231.733 132.262 231.726 132.254C231.718 132.246 231.713 132.237 231.709 132.226C231.706 132.216 231.704 132.205 231.705 132.194C231.705 132.174 231.714 132.154 231.728 132.139C231.743 132.125 231.763 132.116 231.783 132.116H232.609C232.626 132.121 232.642 132.132 232.653 132.147C232.664 132.161 232.67 132.179 232.67 132.198C232.67 132.216 232.664 132.234 232.653 132.249C232.642 132.263 232.626 132.274 232.609 132.279H231.783Z" fill="#AB4A55"/>
<path d="M232.473 133.709H231.719C231.708 133.709 231.697 133.707 231.687 133.703C231.678 133.698 231.669 133.692 231.661 133.684C231.654 133.676 231.648 133.667 231.645 133.656C231.641 133.646 231.64 133.635 231.641 133.625C231.641 133.604 231.649 133.584 231.664 133.569C231.678 133.555 231.698 133.547 231.719 133.547H232.473C232.494 133.548 232.514 133.558 232.528 133.573C232.543 133.589 232.551 133.61 232.551 133.631C232.551 133.641 232.549 133.651 232.545 133.661C232.541 133.67 232.535 133.679 232.528 133.686C232.521 133.693 232.512 133.699 232.503 133.703C232.493 133.707 232.483 133.709 232.473 133.709Z" fill="#AB4A55"/>
<path d="M231.836 135.21C231.815 135.211 231.795 135.203 231.779 135.188C231.763 135.174 231.754 135.154 231.752 135.132C231.753 135.112 231.76 135.093 231.773 135.078C231.786 135.063 231.804 135.052 231.823 135.048L232.473 134.963C232.484 134.963 232.495 134.964 232.505 134.967C232.516 134.971 232.525 134.977 232.533 134.984C232.541 134.991 232.547 135 232.551 135.01C232.556 135.02 232.558 135.031 232.558 135.041C232.557 135.061 232.549 135.081 232.537 135.096C232.524 135.111 232.506 135.122 232.486 135.126L231.836 135.21Z" fill="#AB4A55"/>
<path d="M231.842 136.868C231.821 136.868 231.801 136.86 231.787 136.845C231.772 136.831 231.764 136.811 231.764 136.79C231.763 136.78 231.764 136.769 231.767 136.76C231.77 136.75 231.775 136.741 231.782 136.733C231.789 136.725 231.797 136.719 231.806 136.714C231.815 136.709 231.825 136.706 231.835 136.705L232.622 136.634C232.644 136.634 232.666 136.643 232.682 136.659C232.698 136.675 232.706 136.696 232.706 136.718C232.705 136.738 232.697 136.756 232.684 136.77C232.671 136.784 232.654 136.794 232.635 136.796L231.842 136.868Z" fill="#AB4A55"/>
<path d="M231.94 138.454C231.929 138.455 231.918 138.454 231.908 138.45C231.898 138.446 231.889 138.441 231.881 138.434C231.873 138.426 231.866 138.417 231.862 138.407C231.858 138.397 231.855 138.387 231.855 138.376C231.855 138.355 231.863 138.334 231.878 138.318C231.892 138.303 231.912 138.293 231.933 138.291L232.616 138.233C232.668 138.233 232.694 138.291 232.694 138.317C232.693 138.338 232.684 138.358 232.67 138.374C232.656 138.389 232.637 138.399 232.616 138.402L231.933 138.46L231.94 138.454Z" fill="#AB4A55"/>
<path d="M231.979 139.897C231.968 139.897 231.957 139.895 231.947 139.89C231.937 139.886 231.928 139.88 231.921 139.872C231.914 139.864 231.908 139.855 231.905 139.844C231.901 139.834 231.9 139.823 231.901 139.812C231.901 139.802 231.903 139.792 231.907 139.783C231.911 139.773 231.916 139.765 231.924 139.757C231.931 139.75 231.939 139.744 231.949 139.74C231.958 139.736 231.968 139.734 231.979 139.734L232.629 139.689C232.651 139.689 232.673 139.698 232.688 139.714C232.704 139.73 232.713 139.751 232.713 139.773C232.713 139.793 232.706 139.812 232.693 139.826C232.679 139.841 232.661 139.85 232.642 139.851L231.959 139.897H231.979Z" fill="#AB4A55"/>
<path d="M231.993 141.424C231.975 141.419 231.96 141.409 231.949 141.394C231.938 141.379 231.932 141.362 231.932 141.343C231.932 141.325 231.938 141.307 231.949 141.292C231.96 141.278 231.975 141.267 231.993 141.262H232.688C232.706 141.267 232.722 141.278 232.733 141.292C232.744 141.307 232.75 141.325 232.75 141.343C232.75 141.362 232.744 141.379 232.733 141.394C232.722 141.409 232.706 141.419 232.688 141.424H231.993Z" fill="#AB4A55"/>
<path d="M232.792 142.776L231.973 142.679C231.956 142.674 231.94 142.663 231.929 142.649C231.918 142.634 231.912 142.616 231.912 142.598C231.912 142.579 231.918 142.561 231.929 142.547C231.94 142.532 231.956 142.522 231.973 142.516L232.786 142.614C232.796 142.614 232.806 142.616 232.815 142.62C232.824 142.624 232.832 142.63 232.839 142.637C232.846 142.645 232.851 142.653 232.854 142.663C232.857 142.672 232.858 142.682 232.857 142.692C232.858 142.711 232.852 142.73 232.84 142.746C232.828 142.761 232.811 142.772 232.792 142.776Z" fill="#AB4A55"/>
<path d="M231.772 143.862C231.761 143.863 231.75 143.862 231.74 143.858C231.73 143.855 231.721 143.849 231.713 143.842C231.705 143.834 231.698 143.825 231.694 143.815C231.69 143.806 231.687 143.795 231.688 143.784C231.689 143.763 231.697 143.743 231.711 143.728C231.726 143.712 231.745 143.702 231.765 143.699L232.864 143.654C232.885 143.654 232.906 143.662 232.922 143.676C232.937 143.691 232.947 143.711 232.949 143.732C232.947 143.753 232.939 143.773 232.925 143.788C232.91 143.804 232.891 143.814 232.87 143.816L231.778 143.862H231.772Z" fill="#AB4A55"/>
<path d="M232.733 145.247L232.083 145.123C232.064 145.119 232.047 145.108 232.035 145.092C232.024 145.077 232.017 145.058 232.018 145.039C232.017 145.029 232.018 145.019 232.021 145.009C232.025 145 232.03 144.991 232.036 144.984C232.043 144.976 232.051 144.97 232.06 144.967C232.07 144.963 232.079 144.96 232.089 144.961L232.739 145.091C232.758 145.094 232.774 145.103 232.786 145.117C232.798 145.132 232.805 145.15 232.804 145.169C232.804 145.188 232.797 145.207 232.784 145.221C232.771 145.236 232.752 145.245 232.733 145.247Z" fill="#AB4A55"/>
<path d="M232.759 146.449L232.005 146.312C231.986 146.309 231.97 146.3 231.958 146.285C231.946 146.271 231.939 146.253 231.94 146.234C231.939 146.224 231.94 146.213 231.944 146.203C231.947 146.192 231.953 146.183 231.96 146.175C231.967 146.167 231.976 146.161 231.986 146.156C231.996 146.152 232.007 146.15 232.018 146.15L232.772 146.286C232.791 146.291 232.807 146.302 232.819 146.317C232.831 146.333 232.837 146.352 232.837 146.371C232.837 146.392 232.829 146.411 232.814 146.426C232.799 146.441 232.779 146.449 232.759 146.449Z" fill="#AB4A55"/>
<path d="M231.985 147.547C231.964 147.548 231.943 147.54 231.928 147.525C231.912 147.511 231.902 147.491 231.901 147.469C231.9 147.459 231.901 147.448 231.905 147.438C231.908 147.427 231.914 147.418 231.921 147.41C231.928 147.402 231.937 147.396 231.947 147.391C231.957 147.387 231.968 147.385 231.979 147.385L232.726 147.339C232.747 147.339 232.767 147.348 232.781 147.362C232.796 147.377 232.804 147.397 232.804 147.417C232.804 147.439 232.796 147.459 232.782 147.475C232.767 147.491 232.747 147.5 232.726 147.502L231.979 147.547H231.985Z" fill="#AB4A55"/>
<path d="M258.082 103.146C258.017 103.146 236.32 101.632 235.722 101.495C235.638 101.495 235.625 101.456 235.625 101.417C235.627 101.394 235.637 101.373 235.654 101.357C235.671 101.341 235.693 101.332 235.716 101.333H235.761C237.139 101.56 258.18 102.873 258.18 103.055C258.181 103.068 258.179 103.081 258.175 103.093C258.17 103.105 258.163 103.116 258.153 103.124C258.144 103.133 258.133 103.14 258.12 103.143C258.108 103.147 258.095 103.148 258.082 103.146Z" fill="#AB4A55"/>
<path d="M245.929 104.693C243.94 104.693 240.079 104.609 239.227 104.563C238.577 104.563 238.525 103.653 238.525 103.179C238.53 102.722 238.578 102.267 238.668 101.82C238.671 101.802 238.681 101.785 238.695 101.773C238.71 101.761 238.728 101.755 238.746 101.755C238.769 101.755 238.79 101.764 238.806 101.78C238.822 101.796 238.831 101.817 238.831 101.84C238.744 102.285 238.697 102.738 238.688 103.192C238.688 104.68 238.499 104.531 245.916 104.531C246.949 104.531 247.866 104.758 247.866 102.509V102.392C247.866 102.37 247.875 102.348 247.891 102.332C247.906 102.316 247.928 102.308 247.95 102.308C247.97 102.31 247.988 102.319 248.003 102.333C248.017 102.347 248.026 102.366 248.028 102.386V102.529C248.054 104.973 246.852 104.693 245.929 104.693Z" fill="#AB4A55"/>
<path d="M227.865 75.0855C227.855 75.0855 227.844 75.0833 227.834 75.079C227.824 75.0747 227.815 75.0684 227.808 75.0604C227.8 75.0525 227.795 75.0431 227.791 75.0328C227.788 75.0226 227.786 75.0118 227.787 75.001C227.787 74.962 239.559 74.078 239.624 74.078C239.643 74.0779 239.662 74.0853 239.677 74.0985C239.691 74.1118 239.7 74.13 239.702 74.1495C239.702 74.3185 230.069 75.0335 227.865 75.079V75.0855Z" fill="#AB4A55"/>
<path d="M258.128 76.2815C255.886 76.2815 248.742 74.832 248.742 74.6825C248.742 74.6723 248.744 74.6621 248.748 74.6526C248.752 74.6432 248.758 74.6346 248.765 74.6273C248.772 74.6201 248.781 74.6143 248.79 74.6104C248.8 74.6065 248.81 74.6045 248.82 74.6045C248.885 74.6045 255.613 76.119 258.128 76.119H258.213C258.233 76.119 258.253 76.1272 258.268 76.1418C258.282 76.1565 258.291 76.1763 258.291 76.197C258.292 76.2078 258.29 76.2186 258.287 76.2288C258.283 76.2391 258.278 76.2485 258.27 76.2564C258.263 76.2643 258.254 76.2707 258.244 76.275C258.234 76.2793 258.224 76.2815 258.213 76.2815H258.128Z" fill="#AB4A55"/>
<path d="M238.927 77.588C236.71 77.588 236.262 75.352 236.262 74.637C236.261 74.6262 236.262 74.6154 236.266 74.6051C236.269 74.5949 236.275 74.5855 236.282 74.5776C236.29 74.5696 236.299 74.5633 236.309 74.559C236.318 74.5547 236.329 74.5525 236.34 74.5525C236.483 74.5525 236.379 77.3865 238.94 77.4255C238.951 77.4255 238.962 77.4277 238.971 77.432C238.981 77.4363 238.99 77.4426 238.998 77.4506C239.005 77.4585 239.011 77.4679 239.014 77.4781C239.018 77.4884 239.019 77.4992 239.018 77.51C239.018 77.5214 239.016 77.5328 239.011 77.5432C239.006 77.5536 238.999 77.5629 238.991 77.5703C238.982 77.5777 238.972 77.5832 238.961 77.5862C238.95 77.5893 238.938 77.5899 238.927 77.588Z" fill="#AB4A55"/>
<path d="M249.393 77.9325C249.017 77.9286 248.647 77.835 248.314 77.6595C248.302 77.6518 248.293 77.6412 248.286 77.6287C248.279 77.6162 248.275 77.6022 248.275 77.588C248.275 77.5772 248.278 77.5665 248.282 77.5566C248.286 77.5466 248.293 77.5377 248.3 77.5304C248.308 77.5231 248.318 77.5175 248.328 77.514C248.338 77.5104 248.349 77.5091 248.36 77.51C248.683 77.6724 249.038 77.7611 249.4 77.77C251.207 77.77 251.525 75.378 251.707 75.378C251.718 75.378 251.728 75.38 251.737 75.3839C251.747 75.3878 251.755 75.3936 251.763 75.4008C251.77 75.4081 251.776 75.4167 251.779 75.4261C251.783 75.4356 251.785 75.4457 251.785 75.456C251.785 75.6835 251.122 77.9325 249.393 77.9325Z" fill="#AB4A55"/>
<path d="M165.634 188.504C165.613 188.504 165.593 188.496 165.579 188.481C165.564 188.467 165.556 188.447 165.556 188.426L164.821 148.965C164.823 148.944 164.831 148.924 164.845 148.908C164.859 148.893 164.879 148.883 164.899 148.88C164.921 148.882 164.94 148.891 164.955 148.907C164.969 148.923 164.977 148.943 164.977 148.965L165.718 188.4C165.718 188.411 165.716 188.422 165.712 188.431C165.707 188.441 165.701 188.45 165.693 188.458C165.685 188.465 165.676 188.471 165.666 188.474C165.655 188.478 165.645 188.479 165.634 188.478V188.504Z" fill="#548492"/>
<path fill-rule="evenodd" clip-rule="evenodd" d="M161.877 188.556L170.255 188.029L171.334 198.982L162.67 200.542L161.877 188.556Z" fill="#EDEBD9"/>
<path d="M162.67 200.627C162.611 200.627 162.592 200.562 162.592 200.549L161.799 188.563C161.799 188.542 161.807 188.522 161.822 188.507C161.836 188.493 161.856 188.485 161.877 188.485L170.249 187.958C170.268 187.958 170.287 187.965 170.302 187.979C170.316 187.992 170.325 188.01 170.327 188.029L171.412 198.982C171.413 199.002 171.405 199.022 171.392 199.038C171.379 199.053 171.361 199.063 171.341 199.067L162.683 200.62L162.67 200.627ZM161.968 188.634L162.748 200.445L171.25 198.917L170.184 188.121L161.968 188.634Z" fill="#548492"/>
<path fill-rule="evenodd" clip-rule="evenodd" d="M165.497 191.904L167.369 192.02L167.714 196.499L165.497 196.973V191.904Z" fill="#D3CFB7"/>
<path d="M165.497 197.058C165.48 197.065 165.461 197.065 165.445 197.058C165.44 197.048 165.437 197.037 165.438 197.025C165.437 197.014 165.44 197.003 165.445 196.993V191.923C165.445 191.845 165.529 191.845 165.529 191.845L167.408 191.955C167.427 191.958 167.444 191.968 167.457 191.982C167.47 191.996 167.478 192.014 167.479 192.033L167.83 196.512C167.83 196.531 167.824 196.549 167.812 196.563C167.8 196.577 167.783 196.587 167.765 196.59L165.542 197.071L165.497 197.058ZM165.575 191.988V196.85L167.629 196.408L167.291 192.072L165.575 191.988Z" fill="#548492"/>
<path fill-rule="evenodd" clip-rule="evenodd" d="M193.408 233.9C193.408 233.9 202.95 234.251 207.767 234.251C213.532 234.251 222.034 233.296 222.034 233.296L221.04 241.219L219.87 241.349C219.87 241.349 218.472 252.016 218.472 255.649C218.472 255.857 218.472 256.039 218.472 256.195L195.774 255.656L194.65 242.058L193.434 241.856L193.408 233.9Z" fill="#E7AD79"/>
<path fill-rule="evenodd" clip-rule="evenodd" d="M215.092 82.411C215.092 82.411 217.276 91.9595 217.744 92.343C217.84 92.4249 217.962 92.4709 218.088 92.473C218.191 92.4626 218.291 92.4305 218.38 92.379C218.47 92.3275 218.548 92.2576 218.608 92.174L218.998 90.6465C218.998 90.6465 216.359 83.1 215.092 82.411Z" fill="#E27C6B"/>
<path fill-rule="evenodd" clip-rule="evenodd" d="M243.731 60.662C243.731 60.662 245.382 53.837 245.382 51.614C245.382 49.391 242.711 45.725 242.711 45.66C242.711 45.595 242.873 45.4325 243.114 45.4325C244.414 45.4325 244.674 47.519 246.565 47.519C246.818 47.5211 247.068 47.4632 247.294 47.3502C247.52 47.2373 247.716 47.0723 247.865 46.869C250.706 43.3785 251.986 40.057 252.214 40.057C252.331 40.057 252.506 40.2195 252.506 40.603C252.506 41.955 250.491 46.1865 250.491 46.5375C250.491 46.6025 250.491 46.635 250.563 46.635C251.284 46.635 254.209 41.435 255.015 41.435C255.152 41.435 255.243 41.5325 255.243 41.734C255.243 42.657 252.266 46.648 252.266 47.4345C252.266 47.493 252.266 47.519 252.324 47.519C252.818 47.519 256.647 44.672 257.206 44.672C257.362 44.672 257.459 44.75 257.459 44.8995C257.459 45.6535 253.488 48.5135 253.488 48.9425C253.488 48.9425 253.488 49.131 253.819 49.131C254.151 49.131 254.937 48.897 255.73 48.897C256.523 48.897 257.095 49.1375 257.095 49.274C257.095 49.8395 253.754 48.9815 251.096 53.577C249.536 56.268 248.957 61.9555 248.957 61.9555L243.731 60.662Z" fill="#F6A88A"/>
<path fill-rule="evenodd" clip-rule="evenodd" d="M218.109 94.7285C218.109 94.7285 223.439 93.1165 224.83 93.1035L224.921 90.5035C224.036 89.9721 223.023 89.6913 221.99 89.691C220.751 89.7012 219.548 90.1091 218.558 90.8545C218.558 90.8545 218.272 92.5835 218.109 94.7285Z" fill="#F6A88A"/>
<path fill-rule="evenodd" clip-rule="evenodd" d="M189.359 118.661C189.359 118.661 185.459 114.3 184.432 111.908C183.794 110.262 183.47 108.512 183.476 106.747C183.458 106.026 183.552 105.307 183.756 104.615C183.759 104.584 183.755 104.553 183.745 104.524C183.734 104.495 183.718 104.469 183.696 104.447C183.674 104.426 183.648 104.409 183.619 104.399C183.59 104.388 183.559 104.384 183.528 104.387C183.086 104.387 182.124 105.187 182.124 106.526C182.124 106.753 182.124 106.864 182.124 107.234C182.124 109.067 181.273 110.4 180.174 110.484C179.7 110.484 179.206 110.543 178.64 110.543C175.436 110.543 172.075 109.145 170.47 109.145C170.08 109.145 170.002 109.262 170.002 109.36C170.002 109.958 174.714 111.615 175.735 111.96C175.735 111.96 174.285 111.882 172.875 111.882C171.464 111.882 170.275 111.953 170.275 112.239C170.275 112.889 175.975 113.637 175.975 113.884C175.975 114.131 170.905 114.807 170.905 115.502C170.905 115.684 171.198 115.821 171.945 115.821C173.46 115.821 176.157 115.294 176.71 115.294C176.801 115.294 176.807 115.294 176.807 115.294C176.807 115.502 172.953 116.991 172.953 117.569C172.953 117.719 173.18 117.751 173.401 117.751C174.571 117.751 177.717 116.835 179.336 116.835C179.556 116.828 179.775 116.857 179.986 116.919C181.357 117.394 184.809 122.951 184.809 122.951C184.809 122.951 187.045 120.644 189.359 118.661Z" fill="#F6A88A"/>
<path fill-rule="evenodd" clip-rule="evenodd" d="M241.599 64.0875L250.55 65.615C250.55 65.615 247.683 81.371 247.443 82.6125C247.202 83.854 235.6 100.728 232.35 108.314C229.1 115.899 228.073 134.6 228.073 134.6C228.073 134.6 224.569 134.223 220.975 134.223C214.371 134.223 202.242 137.999 202.242 137.999L202.664 132.019C202.664 132.019 195.378 139.494 193.798 139.494C192.342 139.494 185.621 128.314 185.621 128.314L193.961 121.073L196.795 125.922C196.795 125.922 206.285 105.714 207.091 104.375C209.125 100.982 226.253 93.3245 226.253 93.3245C226.253 93.3245 236.334 83.1715 237.953 80.2595C239.571 77.3475 241.599 64.0875 241.599 64.0875Z" fill="#498851"/>
<path fill-rule="evenodd" clip-rule="evenodd" d="M241.275 64.081L250.746 65.6735L251.188 62.1895L242.471 60.2395L241.275 64.081Z" fill="#ECE7D0"/>
<path fill-rule="evenodd" clip-rule="evenodd" d="M216.477 98.05L217.575 94.93C217.575 94.93 222.444 93.2075 224.933 93.0905L225.421 93.7405C225.421 93.7405 218.186 97.153 216.477 98.05Z" fill="#ECE7D0"/>
<path fill-rule="evenodd" clip-rule="evenodd" d="M183.094 124.622L185.486 128.762C185.486 128.762 193.598 121.482 194.228 120.962L191.966 117.062C188.801 117.673 183.094 124.622 183.094 124.622Z" fill="#ECE7D0"/>
<path fill-rule="evenodd" clip-rule="evenodd" d="M202.261 137.979C202.261 137.979 211.004 133.553 219.545 133.553C222.385 133.56 225.217 133.863 227.995 134.456C227.995 134.456 227.169 142.848 226.337 152.266L220.761 205.397L211.433 204.162C211.433 204.162 212.733 178.702 213.077 173.138C213.422 167.574 213.65 158.786 213.65 158.786C213.65 158.786 211.231 173.216 209.951 182.894C208.67 192.573 207.15 201.881 207.15 201.881L198.459 201.283C198.459 201.283 199.668 183.674 200.89 169.94C202.112 156.205 202.261 137.979 202.261 137.979Z" fill="#85B6C5"/>
<path fill-rule="evenodd" clip-rule="evenodd" d="M210.958 204L221.027 205.378L220.728 208.96L210.809 208.459L210.958 204Z" fill="#B6DCE8"/>
<path fill-rule="evenodd" clip-rule="evenodd" d="M198.023 201.224L207.416 201.829L206.928 206.671L197.451 205.982L198.023 201.224Z" fill="#B6DCE8"/>
<path fill-rule="evenodd" clip-rule="evenodd" d="M201.762 221.492C200.794 221.516 199.85 221.796 199.025 222.304L199.916 206.158L205.636 206.561L204.336 222.454C203.63 221.819 202.711 221.475 201.762 221.492Z" fill="#343536"/>
<path fill-rule="evenodd" clip-rule="evenodd" d="M213.117 208.55L212.246 222.908C212.558 222.512 212.952 222.188 213.401 221.958C213.849 221.728 214.342 221.598 214.846 221.576C215.414 221.591 215.972 221.725 216.483 221.97C216.995 222.216 217.45 222.566 217.817 222.999C217.817 222.999 217.96 217.799 218.064 215.16C218.168 212.521 218.506 208.81 218.506 208.81L213.117 208.55Z" fill="#343536"/>
<path fill-rule="evenodd" clip-rule="evenodd" d="M220.768 73.389C219.97 73.3868 219.177 73.5052 218.415 73.74C217.622 73.974 214.95 76.34 214.209 77.4255C213.137 78.8425 212.324 80.3635 212.324 81.2865C212.324 82.6645 215.34 83.4705 215.34 83.4705V82.931C216.062 83.9905 216.588 84.9525 216.588 84.9525L218.538 90.874C219.829 90.3706 221.197 90.0957 222.581 90.0615C223.376 90.047 224.165 90.1929 224.902 90.4905C224.902 90.4905 229.484 82.0925 229.484 79.5315C229.484 79.265 229.543 78.576 226.819 78.576H226.501C226.737 78.2219 226.861 77.8054 226.858 77.38C226.858 75.6185 224.219 73.389 220.768 73.389Z" fill="#AB4A55"/>
<path fill-rule="evenodd" clip-rule="evenodd" d="M219.182 90.9C220.217 90.4909 221.318 90.2708 222.432 90.25C223.076 90.243 223.717 90.3418 224.33 90.5425L224.291 90.965H223.712C222.555 90.965 220.001 91.0235 219.253 91.5435L219.182 90.9Z" fill="#AB4A55"/>
<path fill-rule="evenodd" clip-rule="evenodd" d="M220.48 144.564C220.48 144.564 217.88 146.943 216.886 148.133C215.891 149.322 212.771 164.09 212.771 164.09L214.188 149.023C214.188 149.023 211.913 149.023 209.742 148.815C213.587 148.194 217.252 146.743 220.48 144.564Z" fill="#548492"/>
<path fill-rule="evenodd" clip-rule="evenodd" d="M220.649 205.3L211.445 204.046L211.478 203.435L220.649 205.3Z" fill="#548492"/>
<path fill-rule="evenodd" clip-rule="evenodd" d="M207.181 201.803L198.465 201.257L198.504 200.808L207.181 201.803Z" fill="#548492"/>
<path fill-rule="evenodd" clip-rule="evenodd" d="M202.639 131.999C202.834 130.049 203.491 124.849 203.491 124.849C202.922 126.963 202.203 129.033 201.339 131.044C200.332 133.033 198.791 135.756 198.791 135.756C198.791 135.756 202.626 132.129 202.639 131.999Z" fill="#386346"/>
<path fill-rule="evenodd" clip-rule="evenodd" d="M193.999 121.171L185.998 128.971L185.725 128.542L193.999 121.171Z" fill="#386346"/>
<path fill-rule="evenodd" clip-rule="evenodd" d="M189.215 118.538C187.611 119.845 186.104 121.266 184.704 122.789L184.457 122.393C184.457 122.393 187.733 119.396 189.215 118.538Z" fill="#E27C6B"/>
<path fill-rule="evenodd" clip-rule="evenodd" d="M248.938 61.6955L243.738 60.5255L243.829 60.116L248.938 61.6955Z" fill="#E27C6B"/>
<path fill-rule="evenodd" clip-rule="evenodd" d="M250.549 65.6345L241.508 64.6725L241.599 64.133L250.549 65.6345Z" fill="#386346"/>
<path fill-rule="evenodd" clip-rule="evenodd" d="M198.336 232.6C198.336 232.6 198.407 230.585 198.407 228.447C198.407 226.542 198.362 226.243 198.362 225.314C198.362 225.132 197.894 220.653 201.943 220.653C204.108 220.653 204.771 222.818 204.771 225.853C204.77 226.659 204.725 227.464 204.634 228.265L198.336 232.6Z" fill="#F6C15C"/>
<path fill-rule="evenodd" clip-rule="evenodd" d="M212.199 225.294C212.199 225.119 212.199 223.942 212.199 222.921C212.199 221.901 213.616 221.349 214.799 221.349C216.548 221.349 217.802 222.564 217.88 223.383C217.88 223.611 217.88 223.884 217.88 224.196C217.88 225.164 217.802 226.419 217.802 227.218C217.802 228.395 218.413 231.417 218.667 233.101C218.745 233.081 212.693 226.484 212.199 225.294Z" fill="#F6C15C"/>
<path fill-rule="evenodd" clip-rule="evenodd" d="M198.133 234.394C197.895 234.077 197.755 233.698 197.73 233.302C197.718 233.21 197.726 233.116 197.753 233.027C197.78 232.938 197.826 232.856 197.888 232.787C197.949 232.717 198.025 232.662 198.11 232.624C198.195 232.586 198.287 232.567 198.38 232.568C198.38 232.568 199.03 226.068 199.03 224.118V223.897C199.03 222.85 200.421 221.648 201.819 221.648C203.561 221.648 204.685 223.37 204.685 227.082C204.63 229.413 204.336 231.733 203.808 234.004L198.133 234.394Z" fill="#ECE7D0"/>
<path fill-rule="evenodd" clip-rule="evenodd" d="M211.602 233.998C211.602 233.998 212.2 226.055 212.252 224.846C212.336 222.798 214.254 222.512 215.079 222.512C216.86 222.512 217.965 224.417 217.965 225.827C217.965 226.094 217.92 226.23 217.92 227.478C217.892 229.105 217.982 230.732 218.186 232.347C218.368 232.88 219.226 233.27 219.226 233.926C219.229 233.961 219.229 233.995 219.226 234.03L211.602 233.998Z" fill="#ECE7D0"/>
<path fill-rule="evenodd" clip-rule="evenodd" d="M212.076 234.03C212.076 234.03 212.726 228.349 212.824 225.931C212.833 225.299 213.081 224.695 213.52 224.24C213.958 223.785 214.552 223.513 215.183 223.481C216.555 223.481 217.549 224.826 217.549 227.589C217.549 229.428 217.114 231.255 217.114 231.95C217.11 232 217.11 232.05 217.114 232.1C217.244 232.886 217.309 234.05 217.309 234.05L212.076 234.03Z" fill="#D8D2B4"/>
<path fill-rule="evenodd" clip-rule="evenodd" d="M199.199 234.316C199.756 231.883 200.044 229.396 200.057 226.9C200.057 225.795 200.057 224.709 200.057 224.13C200.057 223.155 201.312 222.479 202.007 222.479C204.081 222.479 204.094 228.225 204.094 228.713C204.041 230.493 203.823 232.264 203.444 234.004L199.199 234.316Z" fill="#D8D2B4"/>
<path fill-rule="evenodd" clip-rule="evenodd" d="M200.572 221.004C200.572 221.004 200.819 220.042 201.502 220.042C202.184 220.042 202.802 220.9 202.802 220.9L200.572 221.004Z" fill="#F6C15C"/>
<path fill-rule="evenodd" clip-rule="evenodd" d="M213.98 221.504C213.98 221.504 214.117 220.984 214.455 220.932C214.572 220.922 214.689 220.922 214.806 220.932C215.043 220.932 215.279 220.963 215.508 221.023C215.781 221.108 215.872 221.634 215.872 221.634L213.98 221.504Z" fill="#F6C15C"/>
<path fill-rule="evenodd" clip-rule="evenodd" d="M216.387 85.05C216.681 84.894 217.009 84.8115 217.342 84.8095C217.342 84.8095 218.824 84.8095 218.824 86.168C218.824 86.428 218.662 88.0075 217.609 88.0075C217.519 88.0124 217.43 87.9945 217.349 87.9555L216.387 85.05Z" fill="#E27C6B"/>
<path d="M216.1 204.396L215.938 204.357C216.061 203.792 219.116 177.649 219.298 176.082C218.473 175.868 217.465 175.523 217.465 175.179C217.465 174.834 218.525 174.308 218.928 174.139L221.3 150.128H221.463L219.083 174.178C219.084 174.193 219.079 174.208 219.069 174.22C219.06 174.232 219.046 174.24 219.032 174.243C218.382 174.529 217.628 174.945 217.628 175.146C217.628 175.348 219.109 175.842 219.408 175.92C219.426 175.924 219.441 175.935 219.451 175.949C219.462 175.963 219.468 175.98 219.467 175.998C219.473 176.089 216.224 203.837 216.1 204.396Z" fill="#C4EDEF"/>
<path d="M202.566 201.322C202.566 200.672 205.231 176.278 205.381 176.278C205.645 176.368 205.921 176.423 206.2 176.44C206.421 176.44 206.629 176.388 206.629 176.128C206.514 175.448 206.254 174.801 205.868 174.23C205.868 174.23 205.868 174.23 205.868 173.795C205.868 170.103 207.766 152.026 208.215 150.395L208.371 150.434C207.922 152.072 206.031 170.103 206.031 173.788C206.031 173.938 206.031 174.068 206.031 174.165C206.429 174.75 206.694 175.416 206.804 176.115C206.804 176.226 206.804 176.59 206.206 176.59C205.952 176.581 205.7 176.535 205.459 176.453C205.27 178.15 202.735 200.412 202.735 201.303L202.566 201.322Z" fill="#C4EDEF"/>
<path d="M205.381 141.6C205.364 141.601 205.347 141.596 205.333 141.587C205.319 141.578 205.308 141.564 205.303 141.548C205.303 141.392 208.956 140.391 211.354 140.391C211.861 140.391 211.9 140.391 211.9 140.482C211.901 140.492 211.9 140.503 211.896 140.513C211.893 140.523 211.887 140.532 211.88 140.539C211.872 140.547 211.863 140.553 211.853 140.556C211.843 140.56 211.833 140.561 211.822 140.56H211.354C209.327 140.652 207.32 141.001 205.381 141.6Z" fill="#548492"/>
<path d="M220 139.936H219.649C219.638 139.937 219.627 139.936 219.617 139.932C219.607 139.929 219.597 139.923 219.59 139.916C219.582 139.908 219.575 139.899 219.571 139.889C219.567 139.88 219.564 139.869 219.564 139.858C219.564 139.836 219.573 139.814 219.589 139.798C219.605 139.782 219.627 139.774 219.649 139.774H220C221.735 139.818 223.472 139.759 225.2 139.598C225.2 139.598 225.284 139.598 225.284 139.676C225.297 139.865 222.463 139.936 220 139.936Z" fill="#548492"/>
<path fill-rule="evenodd" clip-rule="evenodd" d="M218.57 133.534H219.382C216.765 133.853 214.176 134.377 211.641 135.1C208.44 136.082 205.303 137.261 202.248 138.63L202.281 137.98C202.281 137.98 211.446 133.534 218.57 133.534Z" fill="#548492"/>
<path fill-rule="evenodd" clip-rule="evenodd" d="M245.935 81.059C245.921 81.4415 245.787 81.8099 245.552 82.112C245.299 82.4578 245.114 82.8481 245.006 83.2625L245.584 82.9635L245.35 84.023L245.968 83.5225L246.156 84.0945C246.434 83.7072 246.674 83.2935 246.871 82.8595C247.081 82.3086 247.225 81.7348 247.3 81.15L246.793 81.943L246.605 81.033L246.169 81.7545L245.935 81.059Z" fill="#F6A65C"/>
<path fill-rule="evenodd" clip-rule="evenodd" d="M192.785 138.155C192.785 138.155 192.785 138.155 192.785 138.194C192.98 138.409 193.403 139.15 193.942 139.15C194.019 139.151 194.093 139.123 194.15 139.072L193.936 138.942L194.618 138.76L194.339 138.688C194.485 138.59 194.622 138.479 194.748 138.357C194.559 138.467 194.349 138.536 194.131 138.558C193.922 138.536 193.729 138.436 193.591 138.279L193.656 138.565L193.175 138.253L193.286 138.539C193.126 138.402 192.959 138.274 192.785 138.155Z" fill="#F6A65C"/>
<path fill-rule="evenodd" clip-rule="evenodd" d="M193.181 137.954H193.149C192.96 137.954 192.629 137.401 192.629 137.401L192.947 137.661L193.032 137.434L193.181 137.954Z" fill="#F6A65C"/>
<path d="M198.192 238.827C197.698 238.827 197.613 238.827 197.613 238.736C197.615 238.715 197.625 238.695 197.64 238.68C197.656 238.666 197.676 238.658 197.698 238.658H198.211C202.716 238.658 221.806 237.397 222.008 237.358C222.019 237.357 222.029 237.358 222.04 237.362C222.05 237.365 222.059 237.371 222.067 237.378C222.075 237.386 222.081 237.395 222.086 237.405C222.09 237.414 222.092 237.425 222.092 237.436C222.099 237.65 201.682 238.827 198.192 238.827Z" fill="#AB4A55"/>
</g>
<defs>
<filter id="filter0_d_431_2313" x="0" y="0" width="421" height="316" filterUnits="userSpaceOnUse" color-interpolation-filters="sRGB">
<feFlood flood-opacity="0" result="BackgroundImageFix"/>
<feColorMatrix in="SourceAlpha" type="matrix" values="0 0 0 0 0 0 0 0 0 0 0 0 0 0 0 0 0 0 127 0" result="hardAlpha"/>
<feOffset dx="4" dy="6"/>
<feGaussianBlur stdDeviation="10"/>
<feComposite in2="hardAlpha" operator="out"/>
<feColorMatrix type="matrix" values="0 0 0 0 0 0 0 0 0 0 0 0 0 0 0 0 0 0 0.25 0"/>
<feBlend mode="normal" in2="BackgroundImageFix" result="effect1_dropShadow_431_2313"/>
<feBlend mode="normal" in="SourceGraphic" in2="effect1_dropShadow_431_2313" result="shape"/>
</filter>
</defs>
</svg>
