<svg width="67" height="67" viewBox="0 0 67 67" fill="none" xmlns="http://www.w3.org/2000/svg">
<circle cx="33.5" cy="33.5" r="33.5" fill="#F4F4F4"/>
<path d="M25.75 42.25H36.75V40.4167H25.75V42.25ZM25.75 34.9167H42.25V33.0834H25.75V34.9167ZM25.75 27.5834H42.25V25.75H25.75V27.5834ZM22.296 48.6667C21.4515 48.6667 20.7469 48.3844 20.1822 47.8197C19.6175 47.255 19.3346 46.5498 19.3334 45.704V22.296C19.3334 21.4515 19.6163 20.7469 20.1822 20.1822C20.7481 19.6175 21.4527 19.3346 22.296 19.3334H45.7059C46.5492 19.3334 47.2538 19.6163 47.8197 20.1822C48.3856 20.7481 48.6679 21.4527 48.6667 22.296V45.7059C48.6667 46.5492 48.3844 47.2538 47.8197 47.8197C47.255 48.3856 46.5498 48.6679 45.704 48.6667H22.296ZM22.296 46.8334H45.7059C45.987 46.8334 46.2455 46.716 46.4814 46.4814C46.7173 46.2467 46.8346 45.9876 46.8334 45.704V22.296C46.8334 22.0137 46.716 21.7546 46.4814 21.5187C46.2467 21.2828 45.9876 21.1655 45.704 21.1667H22.296C22.0137 21.1667 21.7546 21.284 21.5187 21.5187C21.2828 21.7534 21.1655 22.0125 21.1667 22.296V45.7059C21.1667 45.987 21.284 46.2455 21.5187 46.4814C21.7534 46.7173 22.0119 46.8346 22.2942 46.8334" fill="#E46504"/>
</svg>
