<svg width="271" height="271" viewBox="0 0 271 271" fill="none" xmlns="http://www.w3.org/2000/svg">
<path d="M158.084 248.417H112.917C70.3364 248.417 49.0404 248.417 35.8178 235.183C22.5953 221.949 22.584 200.664 22.584 158.083V135.5C22.584 92.919 22.584 71.6229 35.8178 58.4003C49.0516 45.1778 70.3364 45.1665 112.917 45.1665H158.084C200.665 45.1665 221.961 45.1665 235.183 58.4003C248.406 71.6342 248.417 92.919 248.417 135.5V158.083C248.417 200.664 248.417 221.96 235.183 235.183C227.81 242.567 217.93 245.831 203.251 247.265M79.0423 45.1665V28.229M191.959 45.1665V28.229M242.771 101.625H121.386M22.584 101.625H66.3392" stroke="#E46504" stroke-width="1.5" stroke-linecap="round"/>
<path d="M203.25 191.958C203.25 194.953 202.06 197.825 199.943 199.943C197.825 202.06 194.953 203.25 191.958 203.25C188.964 203.25 186.092 202.06 183.974 199.943C181.856 197.825 180.667 194.953 180.667 191.958C180.667 188.964 181.856 186.092 183.974 183.974C186.092 181.856 188.964 180.667 191.958 180.667C194.953 180.667 197.825 181.856 199.943 183.974C202.06 186.092 203.25 188.964 203.25 191.958ZM203.25 146.792C203.25 149.786 202.06 152.658 199.943 154.776C197.825 156.894 194.953 158.083 191.958 158.083C188.964 158.083 186.092 156.894 183.974 154.776C181.856 152.658 180.667 149.786 180.667 146.792C180.667 143.797 181.856 140.925 183.974 138.807C186.092 136.69 188.964 135.5 191.958 135.5C194.953 135.5 197.825 136.69 199.943 138.807C202.06 140.925 203.25 143.797 203.25 146.792ZM146.792 191.958C146.792 194.953 145.602 197.825 143.484 199.943C141.367 202.06 138.495 203.25 135.5 203.25C132.505 203.25 129.633 202.06 127.516 199.943C125.398 197.825 124.208 194.953 124.208 191.958C124.208 188.964 125.398 186.092 127.516 183.974C129.633 181.856 132.505 180.667 135.5 180.667C138.495 180.667 141.367 181.856 143.484 183.974C145.602 186.092 146.792 188.964 146.792 191.958ZM146.792 146.792C146.792 149.786 145.602 152.658 143.484 154.776C141.367 156.894 138.495 158.083 135.5 158.083C132.505 158.083 129.633 156.894 127.516 154.776C125.398 152.658 124.208 149.786 124.208 146.792C124.208 143.797 125.398 140.925 127.516 138.807C129.633 136.69 132.505 135.5 135.5 135.5C138.495 135.5 141.367 136.69 143.484 138.807C145.602 140.925 146.792 143.797 146.792 146.792ZM90.3333 191.958C90.3333 194.953 89.1437 197.825 87.0261 199.943C84.9085 202.06 82.0364 203.25 79.0417 203.25C76.0469 203.25 73.1749 202.06 71.0573 199.943C68.9397 197.825 67.75 194.953 67.75 191.958C67.75 188.964 68.9397 186.092 71.0573 183.974C73.1749 181.856 76.0469 180.667 79.0417 180.667C82.0364 180.667 84.9085 181.856 87.0261 183.974C89.1437 186.092 90.3333 188.964 90.3333 191.958ZM90.3333 146.792C90.3333 149.786 89.1437 152.658 87.0261 154.776C84.9085 156.894 82.0364 158.083 79.0417 158.083C76.0469 158.083 73.1749 156.894 71.0573 154.776C68.9397 152.658 67.75 149.786 67.75 146.792C67.75 143.797 68.9397 140.925 71.0573 138.807C73.1749 136.69 76.0469 135.5 79.0417 135.5C82.0364 135.5 84.9085 136.69 87.0261 138.807C89.1437 140.925 90.3333 143.797 90.3333 146.792Z" fill="#E46504"/>
</svg>
