<svg width="47" height="47" viewBox="0 0 47 47" fill="none" xmlns="http://www.w3.org/2000/svg">
<path d="M27.4167 43.0834H19.5834C12.1985 43.0834 8.50512 43.0834 6.21191 40.7882C3.91871 38.493 3.91675 34.8016 3.91675 27.4167V23.5C3.91675 16.1152 3.91675 12.4217 6.21191 10.1285C8.50708 7.83533 12.1985 7.83337 19.5834 7.83337H27.4167C34.8016 7.83337 38.495 7.83337 40.7882 10.1285C43.0815 12.4237 43.0834 16.1152 43.0834 23.5V27.4167C43.0834 34.8016 43.0834 38.495 40.7882 40.7882C39.5095 42.069 37.7959 42.6349 35.2501 42.8836M13.7084 7.83337V4.89587M33.2917 7.83337V4.89587M42.1042 17.625H21.0522M3.91675 17.625H11.5053" stroke="#566E3D" stroke-width="1.5" stroke-linecap="round"/>
<path d="M35.25 33.2917C35.25 33.811 35.0437 34.3092 34.6764 34.6764C34.3092 35.0437 33.811 35.25 33.2917 35.25C32.7723 35.25 32.2742 35.0437 31.9069 34.6764C31.5397 34.3092 31.3333 33.811 31.3333 33.2917C31.3333 32.7723 31.5397 32.2742 31.9069 31.9069C32.2742 31.5397 32.7723 31.3333 33.2917 31.3333C33.811 31.3333 34.3092 31.5397 34.6764 31.9069C35.0437 32.2742 35.25 32.7723 35.25 33.2917ZM35.25 25.4583C35.25 25.9777 35.0437 26.4758 34.6764 26.8431C34.3092 27.2103 33.811 27.4167 33.2917 27.4167C32.7723 27.4167 32.2742 27.2103 31.9069 26.8431C31.5397 26.4758 31.3333 25.9777 31.3333 25.4583C31.3333 24.939 31.5397 24.4408 31.9069 24.0736C32.2742 23.7063 32.7723 23.5 33.2917 23.5C33.811 23.5 34.3092 23.7063 34.6764 24.0736C35.0437 24.4408 35.25 24.939 35.25 25.4583ZM25.4583 33.2917C25.4583 33.811 25.252 34.3092 24.8848 34.6764C24.5175 35.0437 24.0194 35.25 23.5 35.25C22.9806 35.25 22.4825 35.0437 22.1152 34.6764C21.748 34.3092 21.5417 33.811 21.5417 33.2917C21.5417 32.7723 21.748 32.2742 22.1152 31.9069C22.4825 31.5397 22.9806 31.3333 23.5 31.3333C24.0194 31.3333 24.5175 31.5397 24.8848 31.9069C25.252 32.2742 25.4583 32.7723 25.4583 33.2917ZM25.4583 25.4583C25.4583 25.9777 25.252 26.4758 24.8848 26.8431C24.5175 27.2103 24.0194 27.4167 23.5 27.4167C22.9806 27.4167 22.4825 27.2103 22.1152 26.8431C21.748 26.4758 21.5417 25.9777 21.5417 25.4583C21.5417 24.939 21.748 24.4408 22.1152 24.0736C22.4825 23.7063 22.9806 23.5 23.5 23.5C24.0194 23.5 24.5175 23.7063 24.8848 24.0736C25.252 24.4408 25.4583 24.939 25.4583 25.4583ZM15.6667 33.2917C15.6667 33.811 15.4603 34.3092 15.0931 34.6764C14.7258 35.0437 14.2277 35.25 13.7083 35.25C13.189 35.25 12.6908 35.0437 12.3236 34.6764C11.9563 34.3092 11.75 33.811 11.75 33.2917C11.75 32.7723 11.9563 32.2742 12.3236 31.9069C12.6908 31.5397 13.189 31.3333 13.7083 31.3333C14.2277 31.3333 14.7258 31.5397 15.0931 31.9069C15.4603 32.2742 15.6667 32.7723 15.6667 33.2917ZM15.6667 25.4583C15.6667 25.9777 15.4603 26.4758 15.0931 26.8431C14.7258 27.2103 14.2277 27.4167 13.7083 27.4167C13.189 27.4167 12.6908 27.2103 12.3236 26.8431C11.9563 26.4758 11.75 25.9777 11.75 25.4583C11.75 24.939 11.9563 24.4408 12.3236 24.0736C12.6908 23.7063 13.189 23.5 13.7083 23.5C14.2277 23.5 14.7258 23.7063 15.0931 24.0736C15.4603 24.4408 15.6667 24.939 15.6667 25.4583Z" fill="#566E3D"/>
</svg>
