<svg width="67" height="67" viewBox="0 0 67 67" fill="none" xmlns="http://www.w3.org/2000/svg">
<circle cx="33.5" cy="33.5" r="33.5" fill="#F4F4F4"/>
<path d="M37.3333 50.6666H30.6667C24.3817 50.6666 21.2383 50.6666 19.2867 48.7133C17.335 46.76 17.3333 43.6183 17.3333 37.3333V34C17.3333 27.715 17.3333 24.5716 19.2867 22.62C21.24 20.6683 24.3817 20.6666 30.6667 20.6666H37.3333C43.6183 20.6666 46.7617 20.6666 48.7133 22.62C50.665 24.5733 50.6667 27.715 50.6667 34V37.3333C50.6667 43.6183 50.6667 46.7616 48.7133 48.7133C47.625 49.8033 46.1667 50.285 44 50.4966M25.6667 20.6666V18.1666M42.3333 20.6666V18.1666M49.8333 29H31.9167M17.3333 29H23.7917" stroke="#E46504" stroke-width="1.5" stroke-linecap="round"/>
<path d="M44 42.3333C44 42.7754 43.8244 43.1993 43.5118 43.5118C43.1993 43.8244 42.7754 44 42.3333 44C41.8913 44 41.4674 43.8244 41.1548 43.5118C40.8423 43.1993 40.6667 42.7754 40.6667 42.3333C40.6667 41.8913 40.8423 41.4674 41.1548 41.1548C41.4674 40.8423 41.8913 40.6667 42.3333 40.6667C42.7754 40.6667 43.1993 40.8423 43.5118 41.1548C43.8244 41.4674 44 41.8913 44 42.3333ZM44 35.6667C44 36.1087 43.8244 36.5326 43.5118 36.8452C43.1993 37.1577 42.7754 37.3333 42.3333 37.3333C41.8913 37.3333 41.4674 37.1577 41.1548 36.8452C40.8423 36.5326 40.6667 36.1087 40.6667 35.6667C40.6667 35.2246 40.8423 34.8007 41.1548 34.4882C41.4674 34.1756 41.8913 34 42.3333 34C42.7754 34 43.1993 34.1756 43.5118 34.4882C43.8244 34.8007 44 35.2246 44 35.6667ZM35.6667 42.3333C35.6667 42.7754 35.4911 43.1993 35.1785 43.5118C34.8659 43.8244 34.442 44 34 44C33.558 44 33.134 43.8244 32.8215 43.5118C32.5089 43.1993 32.3333 42.7754 32.3333 42.3333C32.3333 41.8913 32.5089 41.4674 32.8215 41.1548C33.134 40.8423 33.558 40.6667 34 40.6667C34.442 40.6667 34.8659 40.8423 35.1785 41.1548C35.4911 41.4674 35.6667 41.8913 35.6667 42.3333ZM35.6667 35.6667C35.6667 36.1087 35.4911 36.5326 35.1785 36.8452C34.8659 37.1577 34.442 37.3333 34 37.3333C33.558 37.3333 33.134 37.1577 32.8215 36.8452C32.5089 36.5326 32.3333 36.1087 32.3333 35.6667C32.3333 35.2246 32.5089 34.8007 32.8215 34.4882C33.134 34.1756 33.558 34 34 34C34.442 34 34.8659 34.1756 35.1785 34.4882C35.4911 34.8007 35.6667 35.2246 35.6667 35.6667ZM27.3333 42.3333C27.3333 42.7754 27.1577 43.1993 26.8452 43.5118C26.5326 43.8244 26.1087 44 25.6667 44C25.2246 44 24.8007 43.8244 24.4882 43.5118C24.1756 43.1993 24 42.7754 24 42.3333C24 41.8913 24.1756 41.4674 24.4882 41.1548C24.8007 40.8423 25.2246 40.6667 25.6667 40.6667C26.1087 40.6667 26.5326 40.8423 26.8452 41.1548C27.1577 41.4674 27.3333 41.8913 27.3333 42.3333ZM27.3333 35.6667C27.3333 36.1087 27.1577 36.5326 26.8452 36.8452C26.5326 37.1577 26.1087 37.3333 25.6667 37.3333C25.2246 37.3333 24.8007 37.1577 24.4882 36.8452C24.1756 36.5326 24 36.1087 24 35.6667C24 35.2246 24.1756 34.8007 24.4882 34.4882C24.8007 34.1756 25.2246 34 25.6667 34C26.1087 34 26.5326 34.1756 26.8452 34.4882C27.1577 34.8007 27.3333 35.2246 27.3333 35.6667Z" fill="#E46504"/>
</svg>
