<svg width="29" height="29" viewBox="0 0 29 29" fill="none" xmlns="http://www.w3.org/2000/svg">
<path d="M8.60953 8.71742C8.83744 8.48952 9.14638 8.36151 9.4685 8.36151C9.79061 8.36151 10.0996 8.48952 10.3275 8.71742L14.3306 12.7254L18.3337 8.71742C18.445 8.59785 18.5792 8.50195 18.7283 8.43543C18.8774 8.36892 19.0383 8.33315 19.2015 8.33027C19.3648 8.32738 19.5269 8.35744 19.6782 8.41865C19.8296 8.47986 19.9671 8.57096 20.0825 8.68653C20.1979 8.80209 20.2889 8.93974 20.35 9.09128C20.4112 9.24282 20.4412 9.40513 20.4383 9.56853C20.4354 9.73194 20.3997 9.89309 20.3333 10.0424C20.2668 10.1917 20.1711 10.326 20.0516 10.4374L16.0485 14.4454L20.0516 18.4533C20.2663 18.684 20.3832 18.9891 20.3777 19.3044C20.3721 19.6197 20.2446 19.9205 20.0218 20.1435C19.7991 20.3665 19.4987 20.4942 19.1838 20.4998C18.8689 20.5053 18.5641 20.3883 18.3337 20.1733L14.3306 16.1654L10.3275 20.1733C10.2162 20.2929 10.082 20.3888 9.93289 20.4553C9.78379 20.5218 9.62283 20.5576 9.45962 20.5605C9.29641 20.5633 9.1343 20.5333 8.98294 20.4721C8.83159 20.4109 8.6941 20.3198 8.57868 20.2042C8.46325 20.0886 8.37226 19.951 8.31112 19.7995C8.24999 19.6479 8.21997 19.4856 8.22285 19.3222C8.22573 19.1588 8.26145 18.9976 8.32788 18.8484C8.39432 18.6991 8.49011 18.5647 8.60953 18.4533L12.6126 14.4454L8.60953 10.4374C8.3819 10.2092 8.25405 9.89992 8.25405 9.57742C8.25405 9.25492 8.3819 8.9456 8.60953 8.71742Z" fill="#F3F9E3"/>
<path fill-rule="evenodd" clip-rule="evenodd" d="M6.74179 1.08936C11.7861 0.529457 16.8769 0.529457 21.9212 1.08936C24.8822 1.42038 27.2727 3.75537 27.6196 6.73618C28.2192 11.8589 28.2192 17.0335 27.6196 22.1562C27.2711 25.137 24.8806 27.4704 21.9212 27.803C16.8769 28.3629 11.7861 28.3629 6.74179 27.803C3.78078 27.4704 1.39026 25.137 1.04343 22.1562C0.44646 17.0336 0.44646 11.8588 1.04343 6.73618C1.39026 3.75537 3.7824 1.42038 6.74179 1.08936ZM21.6522 3.50711C16.7866 2.96714 11.8764 2.96714 7.01082 3.50711C6.11011 3.60716 5.26939 4.0083 4.62448 4.64575C3.97957 5.28319 3.56813 6.1197 3.45664 7.02014C2.88021 11.9546 2.88021 16.9394 3.45664 21.8739C3.56847 22.774 3.98006 23.6101 4.62494 24.2473C5.26982 24.8844 6.11035 25.2853 7.01082 25.3853C11.8356 25.924 16.8274 25.924 21.6522 25.3853C22.5524 25.285 23.3925 24.8839 24.0371 24.2468C24.6816 23.6097 25.093 22.7738 25.2047 21.8739C25.7812 16.9394 25.7812 11.9546 25.2047 7.02014C25.0926 6.12053 24.6811 5.28496 24.0366 4.64819C23.3921 4.01143 22.5521 3.6106 21.6522 3.51036" fill="#F3F9E3"/>
</svg>
