<svg width="540" height="540" viewBox="0 0 540 540" fill="none" xmlns="http://www.w3.org/2000/svg">
<path fill-rule="evenodd" clip-rule="evenodd" d="M247.999 44.9971L248.006 182.058C209.09 192.072 180.334 227.398 180.334 269.44C180.334 319.269 220.728 359.663 270.557 359.663C287.289 359.663 302.958 355.108 316.39 347.171L413.31 444.085C374.426 475.905 324.721 494.997 270.557 494.997C145.985 494.997 45 394.012 45 269.44C45 152.481 134.019 56.3149 247.999 44.9971ZM445.213 412.179L348.3 315.252C352.59 307.992 355.835 300.162 357.937 291.994L494.999 291.999C490.496 337.358 472.554 378.763 445.213 412.179ZM494.999 246.882L357.932 246.867C349.769 215.177 324.82 190.228 293.13 182.064L293.137 44.9992C399.687 55.5904 484.42 140.329 494.999 246.882Z" fill="#364156"/>
</svg>
