<svg width="38" height="38" viewBox="0 0 38 38" fill="none" xmlns="http://www.w3.org/2000/svg">
<path d="M31.7143 9.99562C31.2602 8.38345 30.3979 6.91567 29.2108 5.73411C28.0237 4.55255 26.5519 3.69717 24.9376 3.25062C24.4645 3.13391 23.97 3.13391 23.4968 3.25062C23.0381 3.39262 22.6201 3.64236 22.2776 3.97895L19.396 6.87645L6.99848 19.274C6.54669 19.6887 6.25523 20.2492 6.17514 20.8573L5.39931 26.2723C5.3319 26.7077 5.36991 27.1529 5.51014 27.5706C5.65264 27.9855 5.88539 28.3655 6.19098 28.679C6.49498 28.9956 6.86864 29.2331 7.28348 29.3756C7.5822 29.4706 7.88831 29.5181 8.20181 29.5181C8.33375 29.534 8.4657 29.534 8.59764 29.5181L14.0601 28.7423C14.6524 28.6343 15.2017 28.3597 15.6435 27.9506L30.9543 12.6398C31.2852 12.2957 31.5294 11.8778 31.6668 11.4206C31.7966 10.9563 31.8129 10.4676 31.7143 9.99562ZM29.3868 10.7873C29.3697 10.8649 29.3313 10.9361 29.276 10.9931L27.2176 13.0515L21.9135 7.81062L23.956 5.75229C24.0144 5.69544 24.0847 5.65218 24.1618 5.62562C24.2241 5.60953 24.2895 5.60953 24.3518 5.62562C25.5478 5.95986 26.6391 6.5931 27.5227 7.46567C28.4064 8.33824 29.0533 9.4214 29.4026 10.6131C29.4082 10.6717 29.4028 10.7307 29.3868 10.7873ZM32.0151 34.8381H6.00098C5.68603 34.8381 5.38399 34.713 5.16129 34.4903C4.93859 34.2676 4.81348 33.9656 4.81348 33.6506C4.81348 33.3357 4.93859 33.0336 5.16129 32.8109C5.38399 32.5882 5.68603 32.4631 6.00098 32.4631H31.9993C32.3143 32.4631 32.6163 32.5882 32.839 32.8109C33.0617 33.0336 33.1868 33.3357 33.1868 33.6506C33.1868 33.9656 33.0617 34.2676 32.839 34.4903C32.6163 34.713 32.3143 34.8381 31.9993 34.8381H32.0151Z" fill="#F3F9E3"/>
</svg>
