<svg width="40" height="40" viewBox="0 0 40 40" fill="none" xmlns="http://www.w3.org/2000/svg">
<path d="M20 7.91669C21.15 7.91669 22.0833 8.85002 22.0833 10V17.9167H30C30.5525 17.9167 31.0824 18.1362 31.4731 18.5269C31.8638 18.9176 32.0833 19.4475 32.0833 20C32.0833 20.5526 31.8638 21.0825 31.4731 21.4732C31.0824 21.8639 30.5525 22.0834 30 22.0834H22.0833V30C22.0833 30.5526 21.8638 31.0825 21.4731 31.4732C21.0824 31.8639 20.5525 32.0834 20 32.0834C19.4474 32.0834 18.9175 31.8639 18.5268 31.4732C18.1361 31.0825 17.9166 30.5526 17.9166 30V22.0834H9.99996C9.44742 22.0834 8.91752 21.8639 8.52682 21.4732C8.13612 21.0825 7.91663 20.5526 7.91663 20C7.91663 19.4475 8.13612 18.9176 8.52682 18.5269C8.91752 18.1362 9.44742 17.9167 9.99996 17.9167H17.9166V10C17.9166 8.85002 18.85 7.91669 20 7.91669Z" fill="black"/>
</svg>
