<svg width="33" height="33" viewBox="0 0 33 33" fill="none" xmlns="http://www.w3.org/2000/svg">
<path d="M23.428 20.4705H21.9907L21.4813 19.9793C23.326 17.8399 24.3398 15.1084 24.3376 12.2836C24.3376 9.94468 23.6441 7.65834 22.3446 5.71364C21.0452 3.76894 19.1983 2.25323 17.0375 1.35818C14.8767 0.463132 12.499 0.228946 10.205 0.685238C7.91109 1.14153 5.80398 2.2678 4.15015 3.92163C2.49632 5.57546 1.37004 7.68257 0.913753 9.9765C0.457462 12.2704 0.691647 14.6482 1.58669 16.809C2.48174 18.9698 3.99745 20.8167 5.94215 22.1161C7.88685 23.4155 10.1732 24.1091 12.5121 24.1091C15.4412 24.1091 18.1337 23.0357 20.2078 21.2528L20.699 21.7622V23.1994L29.7956 32.2778L32.5063 29.567L23.428 20.4705ZM12.5121 20.4705C7.98198 20.4705 4.32516 16.8136 4.32516 12.2836C4.32516 7.75346 7.98198 4.09664 12.5121 4.09664C17.0422 4.09664 20.699 7.75346 20.699 12.2836C20.699 16.8136 17.0422 20.4705 12.5121 20.4705Z" fill="black"/>
</svg>
