<svg width="30" height="30" viewBox="0 0 30 30" fill="none" xmlns="http://www.w3.org/2000/svg">
<path d="M5 2.5H25V6.25C25.0004 8.03592 24.5225 9.78936 23.6159 11.3281C22.7094 12.8668 21.4073 14.1347 19.845 15C21.4073 15.8653 22.7094 17.1332 23.6159 18.6719C24.5225 20.2106 25.0004 21.9641 25 23.75V27.5H5V23.75C4.99963 21.9641 5.47754 20.2106 6.38408 18.6719C7.29061 17.1332 8.59269 15.8653 10.155 15C8.59269 14.1347 7.29061 12.8668 6.38408 11.3281C5.47754 9.78936 4.99963 8.03592 5 6.25V2.5ZM22.5 6.25V5H7.5V6.25C7.5 7.365 7.74375 8.42375 8.18 9.375H21.82C22.2575 8.42375 22.5 7.365 22.5 6.25ZM13.7525 16.3538C12.0042 16.6487 10.417 17.5534 9.27236 18.9074C8.12776 20.2613 7.49983 21.977 7.5 23.75V25H8.875C9.12165 23.7992 9.71528 22.6973 10.5823 21.8307C11.4493 20.9641 12.5516 20.371 13.7525 20.125V16.3538ZM16.2475 20.125C17.4484 20.371 18.5507 20.9641 19.4177 21.8307C20.2847 22.6973 20.8784 23.7992 21.125 25H22.5V23.75C22.5002 21.977 21.8722 20.2613 20.7276 18.9074C19.583 17.5534 17.9958 16.6487 16.2475 16.3538V20.125Z" fill="#ECF9E3"/>
</svg>
