<svg width="329" height="85" viewBox="0 0 329 85" fill="none" xmlns="http://www.w3.org/2000/svg">
<path d="M27.024 13.4H34.8V47H27.024V13.4ZM11.76 47H3.984V13.4H11.76V47ZM27.6 33.224H11.184V26.648H27.6V33.224ZM63.8696 47.576C61.2136 47.576 58.7496 47.144 56.4776 46.28C54.2376 45.416 52.2856 44.2 50.6216 42.632C48.9896 41.064 47.7096 39.224 46.7816 37.112C45.8856 35 45.4376 32.696 45.4376 30.2C45.4376 27.704 45.8856 25.4 46.7816 23.288C47.7096 21.176 49.0056 19.336 50.6696 17.768C52.3336 16.2 54.2856 14.984 56.5256 14.12C58.7656 13.256 61.1976 12.824 63.8216 12.824C66.4776 12.824 68.9096 13.256 71.1176 14.12C73.3576 14.984 75.2936 16.2 76.9256 17.768C78.5896 19.336 79.8856 21.176 80.8136 23.288C81.7416 25.368 82.2056 27.672 82.2056 30.2C82.2056 32.696 81.7416 35.016 80.8136 37.16C79.8856 39.272 78.5896 41.112 76.9256 42.68C75.2936 44.216 73.3576 45.416 71.1176 46.28C68.9096 47.144 66.4936 47.576 63.8696 47.576ZM63.8216 40.952C65.3256 40.952 66.7016 40.696 67.9496 40.184C69.2296 39.672 70.3496 38.936 71.3096 37.976C72.2696 37.016 73.0056 35.88 73.5176 34.568C74.0616 33.256 74.3336 31.8 74.3336 30.2C74.3336 28.6 74.0616 27.144 73.5176 25.832C73.0056 24.52 72.2696 23.384 71.3096 22.424C70.3816 21.464 69.2776 20.728 67.9976 20.216C66.7176 19.704 65.3256 19.448 63.8216 19.448C62.3176 19.448 60.9256 19.704 59.6456 20.216C58.3976 20.728 57.2936 21.464 56.3336 22.424C55.3736 23.384 54.6216 24.52 54.0776 25.832C53.5656 27.144 53.3096 28.6 53.3096 30.2C53.3096 31.768 53.5656 33.224 54.0776 34.568C54.6216 35.88 55.3576 37.016 56.2856 37.976C57.2456 38.936 58.3656 39.672 59.6456 40.184C60.9256 40.696 62.3176 40.952 63.8216 40.952ZM92.8496 47V13.4H99.2816L113.586 37.112H110.178L124.242 13.4H130.626L130.722 47H123.426L123.378 24.584H124.722L113.49 43.448H109.986L98.5136 24.584H100.146V47H92.8496ZM150.645 26.936H166.821V32.984H150.645V26.936ZM151.221 40.76H169.509V47H143.493V13.4H168.885V19.64H151.221V40.76ZM187.456 47V19.736H176.704V13.4H205.984V19.736H195.232V47H187.456ZM230.82 47.576C228.164 47.576 225.7 47.144 223.428 46.28C221.188 45.416 219.236 44.2 217.572 42.632C215.94 41.064 214.66 39.224 213.732 37.112C212.836 35 212.388 32.696 212.388 30.2C212.388 27.704 212.836 25.4 213.732 23.288C214.66 21.176 215.956 19.336 217.62 17.768C219.284 16.2 221.236 14.984 223.476 14.12C225.716 13.256 228.148 12.824 230.772 12.824C233.428 12.824 235.86 13.256 238.068 14.12C240.308 14.984 242.244 16.2 243.876 17.768C245.54 19.336 246.836 21.176 247.764 23.288C248.692 25.368 249.156 27.672 249.156 30.2C249.156 32.696 248.692 35.016 247.764 37.16C246.836 39.272 245.54 41.112 243.876 42.68C242.244 44.216 240.308 45.416 238.068 46.28C235.86 47.144 233.444 47.576 230.82 47.576ZM230.772 40.952C232.276 40.952 233.652 40.696 234.9 40.184C236.18 39.672 237.3 38.936 238.26 37.976C239.22 37.016 239.956 35.88 240.468 34.568C241.012 33.256 241.284 31.8 241.284 30.2C241.284 28.6 241.012 27.144 240.468 25.832C239.956 24.52 239.22 23.384 238.26 22.424C237.332 21.464 236.228 20.728 234.948 20.216C233.668 19.704 232.276 19.448 230.772 19.448C229.268 19.448 227.876 19.704 226.596 20.216C225.348 20.728 224.244 21.464 223.284 22.424C222.324 23.384 221.572 24.52 221.028 25.832C220.516 27.144 220.26 28.6 220.26 30.2C220.26 31.768 220.516 33.224 221.028 34.568C221.572 35.88 222.308 37.016 223.236 37.976C224.196 38.936 225.316 39.672 226.596 40.184C227.876 40.696 229.268 40.952 230.772 40.952ZM259.8 47V13.4H274.344C277.352 13.4 279.944 13.896 282.12 14.888C284.296 15.848 285.976 17.24 287.16 19.064C288.344 20.888 288.936 23.064 288.936 25.592C288.936 28.088 288.344 30.248 287.16 32.072C285.976 33.864 284.296 35.24 282.12 36.2C279.944 37.16 277.352 37.64 274.344 37.64H264.12L267.576 34.232V47H259.8ZM281.16 47L272.76 34.808H281.064L289.56 47H281.16ZM267.576 35.096L264.12 31.448H273.912C276.312 31.448 278.104 30.936 279.288 29.912C280.472 28.856 281.064 27.416 281.064 25.592C281.064 23.736 280.472 22.296 279.288 21.272C278.104 20.248 276.312 19.736 273.912 19.736H264.12L267.576 16.04V35.096ZM307.78 47V33.272L309.556 37.976L294.772 13.4H303.028L314.356 32.264H309.604L320.98 13.4H328.612L313.828 37.976L315.556 33.272V47H307.78Z" fill="#FD7034"/>
<path d="M45.816 79.112C45.6133 79.112 45.4533 79.0533 45.336 78.936C45.2187 78.808 45.16 78.6373 45.16 78.424V68.856H41.56C41.368 68.856 41.2187 68.8027 41.112 68.696C41.0053 68.5893 40.952 68.4507 40.952 68.28C40.952 68.0987 41.0053 67.96 41.112 67.864C41.2187 67.768 41.368 67.72 41.56 67.72H50.088C50.28 67.72 50.4293 67.768 50.536 67.864C50.6427 67.96 50.696 68.0987 50.696 68.28C50.696 68.4613 50.6427 68.6053 50.536 68.712C50.4293 68.808 50.28 68.856 50.088 68.856H46.488V78.424C46.488 78.6373 46.4293 78.808 46.312 78.936C46.2053 79.0533 46.04 79.112 45.816 79.112ZM52.0783 79.112C51.8649 79.112 51.6996 79.0533 51.5823 78.936C51.4756 78.8187 51.4223 78.6533 51.4223 78.44V71.768C51.4223 71.5547 51.4756 71.3947 51.5823 71.288C51.6889 71.1707 51.8436 71.112 52.0463 71.112C52.2489 71.112 52.4036 71.1707 52.5103 71.288C52.6276 71.3947 52.6863 71.5547 52.6863 71.768V73.064H52.5263C52.6969 72.4347 53.0223 71.9493 53.5023 71.608C53.9823 71.2667 54.5743 71.0853 55.2783 71.064C55.4383 71.0533 55.5663 71.0907 55.6623 71.176C55.7583 71.2507 55.8116 71.384 55.8223 71.576C55.8329 71.7573 55.7903 71.9013 55.6943 72.008C55.5983 72.1147 55.4489 72.1787 55.2463 72.2L54.9903 72.232C54.2649 72.296 53.7049 72.5307 53.3103 72.936C52.9263 73.3307 52.7343 73.8747 52.7343 74.568V78.44C52.7343 78.6533 52.6756 78.8187 52.5583 78.936C52.4516 79.0533 52.2916 79.112 52.0783 79.112ZM60.3265 79.144C59.7932 79.144 59.3132 79.0427 58.8865 78.84C58.4705 78.6267 58.1398 78.3387 57.8945 77.976C57.6492 77.6133 57.5265 77.208 57.5265 76.76C57.5265 76.184 57.6705 75.7307 57.9585 75.4C58.2572 75.0693 58.7425 74.8347 59.4145 74.696C60.0972 74.5573 61.0252 74.488 62.1985 74.488H62.9185V75.336H62.2145C61.3505 75.336 60.6678 75.3787 60.1665 75.464C59.6758 75.5387 59.3292 75.672 59.1265 75.864C58.9345 76.056 58.8385 76.328 58.8385 76.68C58.8385 77.1173 58.9878 77.4747 59.2865 77.752C59.5958 78.0293 60.0118 78.168 60.5345 78.168C60.9612 78.168 61.3345 78.0667 61.6545 77.864C61.9852 77.6613 62.2412 77.384 62.4225 77.032C62.6145 76.68 62.7105 76.2747 62.7105 75.816V73.992C62.7105 73.3307 62.5772 72.856 62.3105 72.568C62.0438 72.2693 61.6065 72.12 60.9985 72.12C60.6252 72.12 60.2518 72.168 59.8785 72.264C59.5052 72.36 59.1105 72.5147 58.6945 72.728C58.5452 72.8027 58.4172 72.8293 58.3105 72.808C58.2038 72.776 58.1185 72.7173 58.0545 72.632C57.9905 72.5467 57.9532 72.4507 57.9425 72.344C57.9318 72.2267 57.9532 72.1147 58.0065 72.008C58.0705 71.9013 58.1665 71.816 58.2945 71.752C58.7638 71.5173 59.2278 71.3467 59.6865 71.24C60.1452 71.1333 60.5825 71.08 60.9985 71.08C61.6705 71.08 62.2252 71.192 62.6625 71.416C63.0998 71.6293 63.4252 71.96 63.6385 72.408C63.8518 72.8453 63.9585 73.4107 63.9585 74.104V78.44C63.9585 78.6533 63.9052 78.8187 63.7985 78.936C63.7025 79.0533 63.5585 79.112 63.3665 79.112C63.1638 79.112 63.0092 79.0533 62.9025 78.936C62.7958 78.8187 62.7425 78.6533 62.7425 78.44V77.192H62.8865C62.8012 77.5973 62.6358 77.944 62.3905 78.232C62.1558 78.52 61.8625 78.744 61.5105 78.904C61.1585 79.064 60.7638 79.144 60.3265 79.144ZM70.4589 79.144C69.6802 79.144 69.0082 78.9733 68.4429 78.632C67.8775 78.2907 67.4402 77.816 67.1309 77.208C66.8322 76.5893 66.6829 75.8747 66.6829 75.064C66.6829 74.4453 66.7682 73.8907 66.9389 73.4C67.1095 72.9093 67.3602 72.4933 67.6909 72.152C68.0215 71.8 68.4162 71.5333 68.8749 71.352C69.3442 71.1707 69.8722 71.08 70.4589 71.08C70.8429 71.08 71.2429 71.1387 71.6589 71.256C72.0749 71.3733 72.4535 71.576 72.7949 71.864C72.9015 71.9387 72.9709 72.0293 73.0029 72.136C73.0349 72.2427 73.0349 72.3493 73.0029 72.456C72.9709 72.552 72.9175 72.6373 72.8429 72.712C72.7682 72.776 72.6722 72.8133 72.5549 72.824C72.4482 72.8347 72.3362 72.7973 72.2189 72.712C71.9415 72.4987 71.6589 72.3493 71.3709 72.264C71.0829 72.1787 70.8055 72.136 70.5389 72.136C70.1229 72.136 69.7602 72.2053 69.4509 72.344C69.1415 72.472 68.8802 72.6587 68.6669 72.904C68.4535 73.1493 68.2882 73.4533 68.1709 73.816C68.0642 74.1787 68.0109 74.6 68.0109 75.08C68.0109 76.008 68.2295 76.744 68.6669 77.288C69.1042 77.8213 69.7282 78.088 70.5389 78.088C70.8055 78.088 71.0775 78.0453 71.3549 77.96C71.6429 77.8747 71.9309 77.7253 72.2189 77.512C72.3362 77.4267 72.4482 77.3893 72.5549 77.4C72.6615 77.4107 72.7522 77.4533 72.8269 77.528C72.9015 77.592 72.9495 77.6773 72.9709 77.784C73.0029 77.8907 73.0029 77.9973 72.9709 78.104C72.9389 78.2 72.8695 78.2853 72.7629 78.36C72.4215 78.6373 72.0482 78.84 71.6429 78.968C71.2375 79.0853 70.8429 79.144 70.4589 79.144ZM76.0091 79.112C75.7958 79.112 75.6358 79.0533 75.5291 78.936C75.4225 78.8187 75.3691 78.6533 75.3691 78.44V68.264C75.3691 68.0507 75.4225 67.8907 75.5291 67.784C75.6358 67.6667 75.7958 67.608 76.0091 67.608C76.2118 67.608 76.3718 67.6667 76.4891 67.784C76.6065 67.8907 76.6651 68.0507 76.6651 68.264V74.68H76.6971L79.9771 71.544C80.1265 71.4053 80.2545 71.2987 80.3611 71.224C80.4785 71.1493 80.6331 71.112 80.8251 71.112C80.9958 71.112 81.1291 71.16 81.2251 71.256C81.3211 71.3413 81.3638 71.4533 81.3531 71.592C81.3531 71.72 81.2891 71.8587 81.1611 72.008L77.6731 75.32V74.616L81.4651 78.184C81.6145 78.3333 81.6891 78.4773 81.6891 78.616C81.6891 78.7547 81.6358 78.872 81.5291 78.968C81.4331 79.064 81.3051 79.112 81.1451 79.112C80.9531 79.112 80.7985 79.0747 80.6811 79C80.5638 78.9147 80.4198 78.792 80.2491 78.632L76.6971 75.352H76.6651V78.44C76.6651 78.888 76.4465 79.112 76.0091 79.112ZM92.9181 79.144C92.4168 79.144 91.9261 79.1013 91.4461 79.016C90.9661 78.9307 90.5181 78.808 90.1021 78.648C89.6968 78.488 89.3288 78.2853 88.9981 78.04C88.8701 77.944 88.7795 77.8373 88.7261 77.72C88.6835 77.592 88.6728 77.4693 88.6941 77.352C88.7261 77.224 88.7795 77.1173 88.8541 77.032C88.9395 76.9467 89.0408 76.8987 89.1581 76.888C89.2755 76.8773 89.4035 76.9147 89.5421 77C90.0221 77.3413 90.5341 77.592 91.0781 77.752C91.6221 77.9013 92.2355 77.976 92.9181 77.976C93.8781 77.976 94.5875 77.8 95.0461 77.448C95.5155 77.0853 95.7501 76.6107 95.7501 76.024C95.7501 75.544 95.5795 75.1707 95.2381 74.904C94.9075 74.6267 94.3475 74.408 93.5581 74.248L91.8941 73.912C90.8915 73.6987 90.1395 73.352 89.6381 72.872C89.1475 72.3813 88.9021 71.7307 88.9021 70.92C88.9021 70.4187 89.0035 69.9653 89.2061 69.56C89.4088 69.144 89.6915 68.792 90.0541 68.504C90.4168 68.2053 90.8488 67.976 91.3501 67.816C91.8515 67.656 92.4061 67.576 93.0141 67.576C93.6861 67.576 94.3101 67.672 94.8861 67.864C95.4728 68.0453 96.0008 68.3227 96.4701 68.696C96.5875 68.792 96.6675 68.904 96.7101 69.032C96.7528 69.1493 96.7581 69.2667 96.7261 69.384C96.6941 69.4907 96.6355 69.5813 96.5501 69.656C96.4755 69.7307 96.3741 69.7733 96.2461 69.784C96.1288 69.7947 95.9955 69.752 95.8461 69.656C95.4195 69.336 94.9768 69.1067 94.5181 68.968C94.0595 68.8187 93.5528 68.744 92.9981 68.744C92.4328 68.744 91.9421 68.8293 91.5261 69C91.1208 69.1707 90.8008 69.4213 90.5661 69.752C90.3421 70.072 90.2301 70.4453 90.2301 70.872C90.2301 71.384 90.3848 71.7893 90.6941 72.088C91.0141 72.3867 91.5315 72.6053 92.2461 72.744L93.9101 73.096C94.9875 73.32 95.7821 73.6613 96.2941 74.12C96.8168 74.568 97.0781 75.1813 97.0781 75.96C97.0781 76.4293 96.9821 76.8613 96.7901 77.256C96.5981 77.6507 96.3208 77.992 95.9581 78.28C95.5955 78.5573 95.1581 78.7707 94.6461 78.92C94.1341 79.0693 93.5581 79.144 92.9181 79.144ZM100.41 79.112C100.197 79.112 100.037 79.0533 99.9299 78.936C99.8232 78.8187 99.7699 78.6533 99.7699 78.44V71.768C99.7699 71.5547 99.8232 71.3947 99.9299 71.288C100.037 71.1707 100.191 71.112 100.394 71.112C100.597 71.112 100.751 71.1707 100.858 71.288C100.975 71.3947 101.034 71.5547 101.034 71.768V73.176L100.858 72.952C101.061 72.3547 101.386 71.896 101.834 71.576C102.293 71.2453 102.837 71.08 103.466 71.08C104.127 71.08 104.661 71.24 105.066 71.56C105.482 71.8693 105.759 72.3547 105.898 73.016H105.658C105.85 72.4187 106.191 71.9493 106.682 71.608C107.183 71.256 107.765 71.08 108.426 71.08C109.013 71.08 109.493 71.192 109.866 71.416C110.25 71.64 110.538 71.9813 110.73 72.44C110.922 72.888 111.018 73.4587 111.018 74.152V78.44C111.018 78.6533 110.959 78.8187 110.842 78.936C110.735 79.0533 110.575 79.112 110.362 79.112C110.159 79.112 109.999 79.0533 109.882 78.936C109.775 78.8187 109.722 78.6533 109.722 78.44V74.216C109.722 73.5013 109.599 72.9787 109.354 72.648C109.109 72.3067 108.693 72.136 108.106 72.136C107.466 72.136 106.959 72.36 106.586 72.808C106.223 73.2453 106.042 73.8427 106.042 74.6V78.44C106.042 78.6533 105.983 78.8187 105.866 78.936C105.759 79.0533 105.599 79.112 105.386 79.112C105.183 79.112 105.023 79.0533 104.906 78.936C104.799 78.8187 104.746 78.6533 104.746 78.44V74.216C104.746 73.5013 104.618 72.9787 104.362 72.648C104.117 72.3067 103.706 72.136 103.13 72.136C102.49 72.136 101.983 72.36 101.61 72.808C101.247 73.2453 101.066 73.8427 101.066 74.6V78.44C101.066 78.888 100.847 79.112 100.41 79.112ZM116.689 79.144C116.156 79.144 115.676 79.0427 115.249 78.84C114.833 78.6267 114.502 78.3387 114.257 77.976C114.012 77.6133 113.889 77.208 113.889 76.76C113.889 76.184 114.033 75.7307 114.321 75.4C114.62 75.0693 115.105 74.8347 115.777 74.696C116.46 74.5573 117.388 74.488 118.561 74.488H119.281V75.336H118.577C117.713 75.336 117.03 75.3787 116.529 75.464C116.038 75.5387 115.692 75.672 115.489 75.864C115.297 76.056 115.201 76.328 115.201 76.68C115.201 77.1173 115.35 77.4747 115.649 77.752C115.958 78.0293 116.374 78.168 116.897 78.168C117.324 78.168 117.697 78.0667 118.017 77.864C118.348 77.6613 118.604 77.384 118.785 77.032C118.977 76.68 119.073 76.2747 119.073 75.816V73.992C119.073 73.3307 118.94 72.856 118.673 72.568C118.406 72.2693 117.969 72.12 117.361 72.12C116.988 72.12 116.614 72.168 116.241 72.264C115.868 72.36 115.473 72.5147 115.057 72.728C114.908 72.8027 114.78 72.8293 114.673 72.808C114.566 72.776 114.481 72.7173 114.417 72.632C114.353 72.5467 114.316 72.4507 114.305 72.344C114.294 72.2267 114.316 72.1147 114.369 72.008C114.433 71.9013 114.529 71.816 114.657 71.752C115.126 71.5173 115.59 71.3467 116.049 71.24C116.508 71.1333 116.945 71.08 117.361 71.08C118.033 71.08 118.588 71.192 119.025 71.416C119.462 71.6293 119.788 71.96 120.001 72.408C120.214 72.8453 120.321 73.4107 120.321 74.104V78.44C120.321 78.6533 120.268 78.8187 120.161 78.936C120.065 79.0533 119.921 79.112 119.729 79.112C119.526 79.112 119.372 79.0533 119.265 78.936C119.158 78.8187 119.105 78.6533 119.105 78.44V77.192H119.249C119.164 77.5973 118.998 77.944 118.753 78.232C118.518 78.52 118.225 78.744 117.873 78.904C117.521 79.064 117.126 79.144 116.689 79.144ZM124.181 79.112C123.968 79.112 123.803 79.0533 123.685 78.936C123.579 78.8187 123.525 78.6533 123.525 78.44V71.768C123.525 71.5547 123.579 71.3947 123.685 71.288C123.792 71.1707 123.947 71.112 124.149 71.112C124.352 71.112 124.507 71.1707 124.613 71.288C124.731 71.3947 124.789 71.5547 124.789 71.768V73.064H124.629C124.8 72.4347 125.125 71.9493 125.605 71.608C126.085 71.2667 126.677 71.0853 127.381 71.064C127.541 71.0533 127.669 71.0907 127.765 71.176C127.861 71.2507 127.915 71.384 127.925 71.576C127.936 71.7573 127.893 71.9013 127.797 72.008C127.701 72.1147 127.552 72.1787 127.349 72.2L127.093 72.232C126.368 72.296 125.808 72.5307 125.413 72.936C125.029 73.3307 124.837 73.8747 124.837 74.568V78.44C124.837 78.6533 124.779 78.8187 124.661 78.936C124.555 79.0533 124.395 79.112 124.181 79.112ZM133.602 79.144C132.994 79.144 132.482 79.0373 132.066 78.824C131.66 78.6 131.356 78.28 131.154 77.864C130.951 77.4373 130.85 76.92 130.85 76.312V72.232H129.778C129.596 72.232 129.458 72.1893 129.362 72.104C129.266 72.008 129.218 71.88 129.218 71.72C129.218 71.56 129.266 71.4373 129.362 71.352C129.458 71.2667 129.596 71.224 129.778 71.224H130.85V69.384C130.85 69.1707 130.908 69.0107 131.026 68.904C131.143 68.7867 131.303 68.728 131.506 68.728C131.708 68.728 131.863 68.7867 131.97 68.904C132.087 69.0107 132.146 69.1707 132.146 69.384V71.224H134.162C134.343 71.224 134.482 71.2667 134.578 71.352C134.674 71.4373 134.722 71.56 134.722 71.72C134.722 71.88 134.674 72.008 134.578 72.104C134.482 72.1893 134.343 72.232 134.162 72.232H132.146V76.184C132.146 76.792 132.274 77.256 132.53 77.576C132.786 77.8853 133.202 78.04 133.778 78.04C133.98 78.04 134.151 78.0187 134.29 77.976C134.439 77.9333 134.562 77.912 134.658 77.912C134.754 77.9013 134.834 77.9333 134.898 78.008C134.962 78.0827 134.994 78.2107 134.994 78.392C134.994 78.52 134.967 78.6373 134.914 78.744C134.871 78.8507 134.791 78.9253 134.674 78.968C134.546 79.0107 134.375 79.048 134.162 79.08C133.959 79.1227 133.772 79.144 133.602 79.144ZM140.301 79.144C139.48 79.144 138.771 78.984 138.173 78.664C137.587 78.3333 137.128 77.8693 136.797 77.272C136.477 76.6747 136.317 75.96 136.317 75.128C136.317 74.3173 136.477 73.6133 136.797 73.016C137.117 72.408 137.555 71.9333 138.109 71.592C138.675 71.2507 139.325 71.08 140.061 71.08C140.584 71.08 141.053 71.1707 141.469 71.352C141.885 71.5227 142.237 71.7733 142.525 72.104C142.824 72.4347 143.048 72.8347 143.197 73.304C143.357 73.7733 143.437 74.3013 143.437 74.888C143.437 75.0587 143.389 75.1867 143.293 75.272C143.197 75.3467 143.059 75.384 142.877 75.384H137.309V74.536H142.573L142.317 74.744C142.317 74.168 142.232 73.6827 142.061 73.288C141.891 72.8827 141.64 72.5733 141.309 72.36C140.989 72.1467 140.584 72.04 140.093 72.04C139.549 72.04 139.085 72.168 138.701 72.424C138.328 72.6693 138.045 73.016 137.853 73.464C137.661 73.9013 137.565 74.4133 137.565 75V75.096C137.565 76.0773 137.8 76.824 138.269 77.336C138.749 77.848 139.427 78.104 140.301 78.104C140.664 78.104 141.021 78.056 141.373 77.96C141.736 77.864 142.088 77.704 142.429 77.48C142.579 77.384 142.712 77.3413 142.829 77.352C142.957 77.352 143.059 77.3893 143.133 77.464C143.208 77.528 143.256 77.6133 143.277 77.72C143.309 77.816 143.299 77.9227 143.245 78.04C143.203 78.1573 143.112 78.2587 142.973 78.344C142.621 78.6 142.205 78.7973 141.725 78.936C141.245 79.0747 140.771 79.144 140.301 79.144ZM146.769 79.112C146.556 79.112 146.39 79.0533 146.273 78.936C146.166 78.8187 146.113 78.6533 146.113 78.44V71.768C146.113 71.5547 146.166 71.3947 146.273 71.288C146.38 71.1707 146.534 71.112 146.737 71.112C146.94 71.112 147.094 71.1707 147.201 71.288C147.318 71.3947 147.377 71.5547 147.377 71.768V73.064H147.217C147.388 72.4347 147.713 71.9493 148.193 71.608C148.673 71.2667 149.265 71.0853 149.969 71.064C150.129 71.0533 150.257 71.0907 150.353 71.176C150.449 71.2507 150.502 71.384 150.513 71.576C150.524 71.7573 150.481 71.9013 150.385 72.008C150.289 72.1147 150.14 72.1787 149.937 72.2L149.681 72.232C148.956 72.296 148.396 72.5307 148.001 72.936C147.617 73.3307 147.425 73.8747 147.425 74.568V78.44C147.425 78.6533 147.366 78.8187 147.249 78.936C147.142 79.0533 146.982 79.112 146.769 79.112ZM153.087 80.52C152.98 80.6587 152.868 80.7387 152.751 80.76C152.634 80.7813 152.532 80.76 152.447 80.696C152.362 80.632 152.314 80.5413 152.303 80.424C152.303 80.3067 152.356 80.1787 152.463 80.04C152.634 79.816 152.751 79.5867 152.815 79.352C152.879 79.128 152.911 78.92 152.911 78.728L152.975 79.064C152.698 79.064 152.474 78.984 152.303 78.824C152.143 78.6533 152.063 78.44 152.063 78.184C152.063 77.928 152.138 77.72 152.287 77.56C152.447 77.3893 152.655 77.304 152.911 77.304C153.188 77.304 153.407 77.4 153.567 77.592C153.727 77.7733 153.807 78.04 153.807 78.392C153.807 78.616 153.786 78.8453 153.743 79.08C153.7 79.3253 153.626 79.5707 153.519 79.816C153.412 80.0613 153.268 80.296 153.087 80.52ZM165.477 79.112C165.285 79.112 165.13 79.064 165.013 78.968C164.895 78.8613 164.799 78.7067 164.725 78.504L161.189 68.408C161.114 68.184 161.13 67.9973 161.237 67.848C161.354 67.688 161.535 67.608 161.781 67.608C161.962 67.608 162.106 67.656 162.213 67.752C162.319 67.8373 162.41 67.976 162.485 68.168L165.797 77.88H165.237L168.613 68.216C168.687 68.0133 168.778 67.864 168.885 67.768C168.991 67.6613 169.135 67.608 169.317 67.608C169.487 67.608 169.621 67.6613 169.717 67.768C169.823 67.864 169.914 68.0133 169.989 68.216L173.317 77.88H172.821L176.165 68.168C176.218 67.9867 176.298 67.848 176.405 67.752C176.522 67.656 176.671 67.608 176.853 67.608C177.077 67.608 177.242 67.6827 177.349 67.832C177.455 67.9813 177.466 68.1733 177.381 68.408L173.829 78.504C173.754 78.7067 173.658 78.8613 173.541 78.968C173.434 79.064 173.279 79.112 173.077 79.112C172.885 79.112 172.73 79.064 172.613 78.968C172.506 78.8613 172.41 78.7067 172.325 78.504L169.109 69.24H169.461L166.213 78.504C166.138 78.7067 166.047 78.8613 165.941 78.968C165.834 79.064 165.679 79.112 165.477 79.112ZM181.636 79.144C181.103 79.144 180.623 79.0427 180.196 78.84C179.78 78.6267 179.449 78.3387 179.204 77.976C178.959 77.6133 178.836 77.208 178.836 76.76C178.836 76.184 178.98 75.7307 179.268 75.4C179.567 75.0693 180.052 74.8347 180.724 74.696C181.407 74.5573 182.335 74.488 183.508 74.488H184.228V75.336H183.524C182.66 75.336 181.977 75.3787 181.476 75.464C180.985 75.5387 180.639 75.672 180.436 75.864C180.244 76.056 180.148 76.328 180.148 76.68C180.148 77.1173 180.297 77.4747 180.596 77.752C180.905 78.0293 181.321 78.168 181.844 78.168C182.271 78.168 182.644 78.0667 182.964 77.864C183.295 77.6613 183.551 77.384 183.732 77.032C183.924 76.68 184.02 76.2747 184.02 75.816V73.992C184.02 73.3307 183.887 72.856 183.62 72.568C183.353 72.2693 182.916 72.12 182.308 72.12C181.935 72.12 181.561 72.168 181.188 72.264C180.815 72.36 180.42 72.5147 180.004 72.728C179.855 72.8027 179.727 72.8293 179.62 72.808C179.513 72.776 179.428 72.7173 179.364 72.632C179.3 72.5467 179.263 72.4507 179.252 72.344C179.241 72.2267 179.263 72.1147 179.316 72.008C179.38 71.9013 179.476 71.816 179.604 71.752C180.073 71.5173 180.537 71.3467 180.996 71.24C181.455 71.1333 181.892 71.08 182.308 71.08C182.98 71.08 183.535 71.192 183.972 71.416C184.409 71.6293 184.735 71.96 184.948 72.408C185.161 72.8453 185.268 73.4107 185.268 74.104V78.44C185.268 78.6533 185.215 78.8187 185.108 78.936C185.012 79.0533 184.868 79.112 184.676 79.112C184.473 79.112 184.319 79.0533 184.212 78.936C184.105 78.8187 184.052 78.6533 184.052 78.44V77.192H184.196C184.111 77.5973 183.945 77.944 183.7 78.232C183.465 78.52 183.172 78.744 182.82 78.904C182.468 79.064 182.073 79.144 181.636 79.144ZM191.096 79.144C190.616 79.144 190.131 79.0853 189.64 78.968C189.16 78.8507 188.712 78.648 188.296 78.36C188.19 78.2853 188.115 78.2 188.072 78.104C188.03 77.9973 188.014 77.896 188.024 77.8C188.046 77.6933 188.088 77.6027 188.152 77.528C188.227 77.4533 188.312 77.4107 188.408 77.4C188.515 77.3787 188.632 77.4 188.76 77.464C189.176 77.72 189.576 77.9013 189.96 78.008C190.355 78.104 190.744 78.152 191.128 78.152C191.736 78.152 192.195 78.04 192.504 77.816C192.814 77.592 192.968 77.288 192.968 76.904C192.968 76.6053 192.867 76.3707 192.664 76.2C192.462 76.0187 192.142 75.88 191.704 75.784L190.248 75.464C189.576 75.3253 189.075 75.0853 188.744 74.744C188.424 74.4027 188.264 73.96 188.264 73.416C188.264 72.936 188.387 72.5253 188.632 72.184C188.888 71.832 189.246 71.56 189.704 71.368C190.163 71.176 190.696 71.08 191.304 71.08C191.774 71.08 192.216 71.144 192.632 71.272C193.059 71.3893 193.443 71.5813 193.784 71.848C193.891 71.9227 193.96 72.0133 193.992 72.12C194.035 72.216 194.04 72.3173 194.008 72.424C193.987 72.52 193.939 72.6053 193.864 72.68C193.79 72.744 193.699 72.7813 193.592 72.792C193.486 72.8027 193.374 72.7707 193.256 72.696C192.936 72.4827 192.611 72.328 192.28 72.232C191.95 72.1253 191.624 72.072 191.304 72.072C190.707 72.072 190.254 72.1893 189.944 72.424C189.635 72.6587 189.48 72.968 189.48 73.352C189.48 73.6507 189.576 73.896 189.768 74.088C189.96 74.28 190.259 74.4187 190.664 74.504L192.12 74.808C192.814 74.9573 193.331 75.1973 193.672 75.528C194.024 75.848 194.2 76.2853 194.2 76.84C194.2 77.544 193.918 78.104 193.352 78.52C192.787 78.936 192.035 79.144 191.096 79.144ZM200.017 79.144C199.409 79.144 198.897 79.0373 198.481 78.824C198.076 78.6 197.772 78.28 197.569 77.864C197.367 77.4373 197.265 76.92 197.265 76.312V72.232H196.193C196.012 72.232 195.873 72.1893 195.777 72.104C195.681 72.008 195.633 71.88 195.633 71.72C195.633 71.56 195.681 71.4373 195.777 71.352C195.873 71.2667 196.012 71.224 196.193 71.224H197.265V69.384C197.265 69.1707 197.324 69.0107 197.441 68.904C197.559 68.7867 197.719 68.728 197.921 68.728C198.124 68.728 198.279 68.7867 198.385 68.904C198.503 69.0107 198.561 69.1707 198.561 69.384V71.224H200.577C200.759 71.224 200.897 71.2667 200.993 71.352C201.089 71.4373 201.137 71.56 201.137 71.72C201.137 71.88 201.089 72.008 200.993 72.104C200.897 72.1893 200.759 72.232 200.577 72.232H198.561V76.184C198.561 76.792 198.689 77.256 198.945 77.576C199.201 77.8853 199.617 78.04 200.193 78.04C200.396 78.04 200.567 78.0187 200.705 77.976C200.855 77.9333 200.977 77.912 201.073 77.912C201.169 77.9013 201.249 77.9333 201.313 78.008C201.377 78.0827 201.409 78.2107 201.409 78.392C201.409 78.52 201.383 78.6373 201.329 78.744C201.287 78.8507 201.207 78.9253 201.089 78.968C200.961 79.0107 200.791 79.048 200.577 79.08C200.375 79.1227 200.188 79.144 200.017 79.144ZM206.717 79.144C205.896 79.144 205.186 78.984 204.589 78.664C204.002 78.3333 203.544 77.8693 203.213 77.272C202.893 76.6747 202.733 75.96 202.733 75.128C202.733 74.3173 202.893 73.6133 203.213 73.016C203.533 72.408 203.97 71.9333 204.525 71.592C205.09 71.2507 205.741 71.08 206.477 71.08C207 71.08 207.469 71.1707 207.885 71.352C208.301 71.5227 208.653 71.7733 208.941 72.104C209.24 72.4347 209.464 72.8347 209.613 73.304C209.773 73.7733 209.853 74.3013 209.853 74.888C209.853 75.0587 209.805 75.1867 209.709 75.272C209.613 75.3467 209.474 75.384 209.293 75.384H203.725V74.536H208.989L208.733 74.744C208.733 74.168 208.648 73.6827 208.477 73.288C208.306 72.8827 208.056 72.5733 207.725 72.36C207.405 72.1467 207 72.04 206.509 72.04C205.965 72.04 205.501 72.168 205.117 72.424C204.744 72.6693 204.461 73.016 204.269 73.464C204.077 73.9013 203.981 74.4133 203.981 75V75.096C203.981 76.0773 204.216 76.824 204.685 77.336C205.165 77.848 205.842 78.104 206.717 78.104C207.08 78.104 207.437 78.056 207.789 77.96C208.152 77.864 208.504 77.704 208.845 77.48C208.994 77.384 209.128 77.3413 209.245 77.352C209.373 77.352 209.474 77.3893 209.549 77.464C209.624 77.528 209.672 77.6133 209.693 77.72C209.725 77.816 209.714 77.9227 209.661 78.04C209.618 78.1573 209.528 78.2587 209.389 78.344C209.037 78.6 208.621 78.7973 208.141 78.936C207.661 79.0747 207.186 79.144 206.717 79.144ZM218.254 79.112C218.051 79.112 217.896 79.0587 217.79 78.952C217.683 78.8347 217.63 78.6693 217.63 78.456V68.28C217.63 68.0667 217.683 67.9013 217.79 67.784C217.896 67.6667 218.035 67.608 218.206 67.608C218.376 67.608 218.499 67.64 218.574 67.704C218.659 67.7573 218.755 67.8587 218.862 68.008L225.838 77.304H225.454V68.248C225.454 68.0453 225.507 67.8907 225.614 67.784C225.72 67.6667 225.875 67.608 226.078 67.608C226.27 67.608 226.414 67.6667 226.51 67.784C226.616 67.8907 226.67 68.0453 226.67 68.248V78.472C226.67 78.6747 226.622 78.8347 226.526 78.952C226.44 79.0587 226.312 79.112 226.142 79.112C225.982 79.112 225.854 79.08 225.758 79.016C225.662 78.952 225.56 78.8507 225.454 78.712L218.494 69.416H218.862V78.456C218.862 78.6693 218.808 78.8347 218.702 78.952C218.595 79.0587 218.446 79.112 218.254 79.112ZM233.329 79.144C232.572 79.144 231.916 78.9787 231.361 78.648C230.807 78.3173 230.375 77.8533 230.065 77.256C229.767 76.648 229.617 75.9333 229.617 75.112C229.617 74.4933 229.703 73.9387 229.873 73.448C230.044 72.9467 230.295 72.52 230.625 72.168C230.956 71.816 231.345 71.5493 231.793 71.368C232.252 71.176 232.764 71.08 233.329 71.08C234.087 71.08 234.743 71.2453 235.297 71.576C235.852 71.9067 236.279 72.376 236.577 72.984C236.887 73.5813 237.041 74.2907 237.041 75.112C237.041 75.7307 236.956 76.2853 236.785 76.776C236.615 77.2667 236.364 77.6933 236.033 78.056C235.703 78.408 235.308 78.68 234.849 78.872C234.401 79.0533 233.895 79.144 233.329 79.144ZM233.329 78.104C233.809 78.104 234.231 77.9867 234.593 77.752C234.956 77.5173 235.233 77.176 235.425 76.728C235.628 76.28 235.729 75.7413 235.729 75.112C235.729 74.1413 235.511 73.4 235.073 72.888C234.647 72.376 234.065 72.12 233.329 72.12C232.839 72.12 232.412 72.2373 232.049 72.472C231.697 72.696 231.42 73.032 231.217 73.48C231.025 73.9173 230.929 74.4613 230.929 75.112C230.929 76.072 231.148 76.8133 231.585 77.336C232.023 77.848 232.604 78.104 233.329 78.104ZM245.529 79.112C245.337 79.112 245.188 79.0587 245.081 78.952C244.974 78.8347 244.921 78.6747 244.921 78.472V68.248C244.921 68.0347 244.974 67.8747 245.081 67.768C245.188 67.6613 245.337 67.608 245.529 67.608C245.7 67.608 245.833 67.6453 245.929 67.72C246.036 67.784 246.132 67.896 246.217 68.056L250.601 76.312H250.121L254.489 68.056C254.574 67.896 254.665 67.784 254.761 67.72C254.857 67.6453 254.996 67.608 255.177 67.608C255.358 67.608 255.502 67.6613 255.609 67.768C255.716 67.8747 255.769 68.0347 255.769 68.248V78.472C255.769 78.6747 255.716 78.8347 255.609 78.952C255.513 79.0587 255.364 79.112 255.161 79.112C254.969 79.112 254.82 79.0587 254.713 78.952C254.606 78.8347 254.553 78.6747 254.553 78.472V69.48H254.937L250.937 76.984C250.862 77.1227 250.782 77.224 250.697 77.288C250.622 77.3413 250.51 77.368 250.361 77.368C250.212 77.368 250.094 77.336 250.009 77.272C249.924 77.208 249.849 77.112 249.785 76.984L245.737 69.464H246.121V78.472C246.121 78.6747 246.068 78.8347 245.961 78.952C245.865 79.0587 245.721 79.112 245.529 79.112ZM262.432 79.144C261.675 79.144 261.019 78.9787 260.464 78.648C259.91 78.3173 259.478 77.8533 259.168 77.256C258.87 76.648 258.72 75.9333 258.72 75.112C258.72 74.4933 258.806 73.9387 258.976 73.448C259.147 72.9467 259.398 72.52 259.728 72.168C260.059 71.816 260.448 71.5493 260.896 71.368C261.355 71.176 261.867 71.08 262.432 71.08C263.19 71.08 263.846 71.2453 264.4 71.576C264.955 71.9067 265.382 72.376 265.68 72.984C265.99 73.5813 266.144 74.2907 266.144 75.112C266.144 75.7307 266.059 76.2853 265.888 76.776C265.718 77.2667 265.467 77.6933 265.136 78.056C264.806 78.408 264.411 78.68 263.952 78.872C263.504 79.0533 262.998 79.144 262.432 79.144ZM262.432 78.104C262.912 78.104 263.334 77.9867 263.696 77.752C264.059 77.5173 264.336 77.176 264.528 76.728C264.731 76.28 264.832 75.7413 264.832 75.112C264.832 74.1413 264.614 73.4 264.176 72.888C263.75 72.376 263.168 72.12 262.432 72.12C261.942 72.12 261.515 72.2373 261.152 72.472C260.8 72.696 260.523 73.032 260.32 73.48C260.128 73.9173 260.032 74.4613 260.032 75.112C260.032 76.072 260.251 76.8133 260.688 77.336C261.126 77.848 261.707 78.104 262.432 78.104ZM269.547 79.112C269.334 79.112 269.168 79.0533 269.051 78.936C268.944 78.8187 268.891 78.6533 268.891 78.44V71.768C268.891 71.5547 268.944 71.3947 269.051 71.288C269.158 71.1707 269.312 71.112 269.515 71.112C269.718 71.112 269.872 71.1707 269.979 71.288C270.096 71.3947 270.155 71.5547 270.155 71.768V73.064H269.995C270.166 72.4347 270.491 71.9493 270.971 71.608C271.451 71.2667 272.043 71.0853 272.747 71.064C272.907 71.0533 273.035 71.0907 273.131 71.176C273.227 71.2507 273.28 71.384 273.291 71.576C273.302 71.7573 273.259 71.9013 273.163 72.008C273.067 72.1147 272.918 72.1787 272.715 72.2L272.459 72.232C271.734 72.296 271.174 72.5307 270.779 72.936C270.395 73.3307 270.203 73.8747 270.203 74.568V78.44C270.203 78.6533 270.144 78.8187 270.027 78.936C269.92 79.0533 269.76 79.112 269.547 79.112ZM278.836 79.144C278.014 79.144 277.305 78.984 276.708 78.664C276.121 78.3333 275.662 77.8693 275.332 77.272C275.012 76.6747 274.852 75.96 274.852 75.128C274.852 74.3173 275.012 73.6133 275.332 73.016C275.652 72.408 276.089 71.9333 276.644 71.592C277.209 71.2507 277.86 71.08 278.596 71.08C279.118 71.08 279.588 71.1707 280.004 71.352C280.42 71.5227 280.772 71.7733 281.06 72.104C281.358 72.4347 281.582 72.8347 281.732 73.304C281.892 73.7733 281.972 74.3013 281.972 74.888C281.972 75.0587 281.924 75.1867 281.828 75.272C281.732 75.3467 281.593 75.384 281.412 75.384H275.844V74.536H281.108L280.852 74.744C280.852 74.168 280.766 73.6827 280.596 73.288C280.425 72.8827 280.174 72.5733 279.844 72.36C279.524 72.1467 279.118 72.04 278.628 72.04C278.084 72.04 277.62 72.168 277.236 72.424C276.862 72.6693 276.58 73.016 276.388 73.464C276.196 73.9013 276.1 74.4133 276.1 75V75.096C276.1 76.0773 276.334 76.824 276.804 77.336C277.284 77.848 277.961 78.104 278.836 78.104C279.198 78.104 279.556 78.056 279.908 77.96C280.27 77.864 280.622 77.704 280.964 77.48C281.113 77.384 281.246 77.3413 281.364 77.352C281.492 77.352 281.593 77.3893 281.668 77.464C281.742 77.528 281.79 77.6133 281.812 77.72C281.844 77.816 281.833 77.9227 281.78 78.04C281.737 78.1573 281.646 78.2587 281.508 78.344C281.156 78.6 280.74 78.7973 280.26 78.936C279.78 79.0747 279.305 79.144 278.836 79.144ZM285.271 76.136C285.143 76.136 285.037 76.0933 284.951 76.008C284.877 75.9227 284.834 75.7947 284.823 75.624L284.503 68.456C284.493 68.2 284.551 67.9973 284.679 67.848C284.818 67.688 285.015 67.608 285.271 67.608C285.517 67.608 285.703 67.688 285.831 67.848C285.959 67.9973 286.018 68.2 286.007 68.456L285.687 75.624C285.687 75.7947 285.65 75.9227 285.575 76.008C285.501 76.0933 285.399 76.136 285.271 76.136ZM285.271 79.064C285.005 79.064 284.791 78.984 284.631 78.824C284.471 78.6533 284.391 78.44 284.391 78.184C284.391 77.928 284.471 77.72 284.631 77.56C284.791 77.3893 285.005 77.304 285.271 77.304C285.538 77.304 285.746 77.3893 285.895 77.56C286.055 77.72 286.135 77.928 286.135 78.184C286.135 78.44 286.055 78.6533 285.895 78.824C285.746 78.984 285.538 79.064 285.271 79.064Z" fill="white"/>
</svg>
