<svg width="329" height="85" viewBox="0 0 329 85" fill="none" xmlns="http://www.w3.org/2000/svg">
<path d="M27.024 13.4H34.8V47H27.024V13.4ZM11.76 47H3.984V13.4H11.76V47ZM27.6 33.224H11.184V26.648H27.6V33.224ZM63.8696 47.576C61.2136 47.576 58.7496 47.144 56.4776 46.28C54.2376 45.416 52.2856 44.2 50.6216 42.632C48.9896 41.064 47.7096 39.224 46.7816 37.112C45.8856 35 45.4376 32.696 45.4376 30.2C45.4376 27.704 45.8856 25.4 46.7816 23.288C47.7096 21.176 49.0056 19.336 50.6696 17.768C52.3336 16.2 54.2856 14.984 56.5256 14.12C58.7656 13.256 61.1976 12.824 63.8216 12.824C66.4776 12.824 68.9096 13.256 71.1176 14.12C73.3576 14.984 75.2936 16.2 76.9256 17.768C78.5896 19.336 79.8856 21.176 80.8136 23.288C81.7416 25.368 82.2056 27.672 82.2056 30.2C82.2056 32.696 81.7416 35.016 80.8136 37.16C79.8856 39.272 78.5896 41.112 76.9256 42.68C75.2936 44.216 73.3576 45.416 71.1176 46.28C68.9096 47.144 66.4936 47.576 63.8696 47.576ZM63.8216 40.952C65.3256 40.952 66.7016 40.696 67.9496 40.184C69.2296 39.672 70.3496 38.936 71.3096 37.976C72.2696 37.016 73.0056 35.88 73.5176 34.568C74.0616 33.256 74.3336 31.8 74.3336 30.2C74.3336 28.6 74.0616 27.144 73.5176 25.832C73.0056 24.52 72.2696 23.384 71.3096 22.424C70.3816 21.464 69.2776 20.728 67.9976 20.216C66.7176 19.704 65.3256 19.448 63.8216 19.448C62.3176 19.448 60.9256 19.704 59.6456 20.216C58.3976 20.728 57.2936 21.464 56.3336 22.424C55.3736 23.384 54.6216 24.52 54.0776 25.832C53.5656 27.144 53.3096 28.6 53.3096 30.2C53.3096 31.768 53.5656 33.224 54.0776 34.568C54.6216 35.88 55.3576 37.016 56.2856 37.976C57.2456 38.936 58.3656 39.672 59.6456 40.184C60.9256 40.696 62.3176 40.952 63.8216 40.952ZM92.8496 47V13.4H99.2816L113.586 37.112H110.178L124.242 13.4H130.626L130.722 47H123.426L123.378 24.584H124.722L113.49 43.448H109.986L98.5136 24.584H100.146V47H92.8496ZM150.645 26.936H166.821V32.984H150.645V26.936ZM151.221 40.76H169.509V47H143.493V13.4H168.885V19.64H151.221V40.76ZM187.456 47V19.736H176.704V13.4H205.984V19.736H195.232V47H187.456ZM230.82 47.576C228.164 47.576 225.7 47.144 223.428 46.28C221.188 45.416 219.236 44.2 217.572 42.632C215.94 41.064 214.66 39.224 213.732 37.112C212.836 35 212.388 32.696 212.388 30.2C212.388 27.704 212.836 25.4 213.732 23.288C214.66 21.176 215.956 19.336 217.62 17.768C219.284 16.2 221.236 14.984 223.476 14.12C225.716 13.256 228.148 12.824 230.772 12.824C233.428 12.824 235.86 13.256 238.068 14.12C240.308 14.984 242.244 16.2 243.876 17.768C245.54 19.336 246.836 21.176 247.764 23.288C248.692 25.368 249.156 27.672 249.156 30.2C249.156 32.696 248.692 35.016 247.764 37.16C246.836 39.272 245.54 41.112 243.876 42.68C242.244 44.216 240.308 45.416 238.068 46.28C235.86 47.144 233.444 47.576 230.82 47.576ZM230.772 40.952C232.276 40.952 233.652 40.696 234.9 40.184C236.18 39.672 237.3 38.936 238.26 37.976C239.22 37.016 239.956 35.88 240.468 34.568C241.012 33.256 241.284 31.8 241.284 30.2C241.284 28.6 241.012 27.144 240.468 25.832C239.956 24.52 239.22 23.384 238.26 22.424C237.332 21.464 236.228 20.728 234.948 20.216C233.668 19.704 232.276 19.448 230.772 19.448C229.268 19.448 227.876 19.704 226.596 20.216C225.348 20.728 224.244 21.464 223.284 22.424C222.324 23.384 221.572 24.52 221.028 25.832C220.516 27.144 220.26 28.6 220.26 30.2C220.26 31.768 220.516 33.224 221.028 34.568C221.572 35.88 222.308 37.016 223.236 37.976C224.196 38.936 225.316 39.672 226.596 40.184C227.876 40.696 229.268 40.952 230.772 40.952ZM259.8 47V13.4H274.344C277.352 13.4 279.944 13.896 282.12 14.888C284.296 15.848 285.976 17.24 287.16 19.064C288.344 20.888 288.936 23.064 288.936 25.592C288.936 28.088 288.344 30.248 287.16 32.072C285.976 33.864 284.296 35.24 282.12 36.2C279.944 37.16 277.352 37.64 274.344 37.64H264.12L267.576 34.232V47H259.8ZM281.16 47L272.76 34.808H281.064L289.56 47H281.16ZM267.576 35.096L264.12 31.448H273.912C276.312 31.448 278.104 30.936 279.288 29.912C280.472 28.856 281.064 27.416 281.064 25.592C281.064 23.736 280.472 22.296 279.288 21.272C278.104 20.248 276.312 19.736 273.912 19.736H264.12L267.576 16.04V35.096ZM307.78 47V33.272L309.556 37.976L294.772 13.4H303.028L314.356 32.264H309.604L320.98 13.4H328.612L313.828 37.976L315.556 33.272V47H307.78Z" fill="#FD7034"/>
<path d="M57.816 79.112C57.6133 79.112 57.4533 79.0533 57.336 78.936C57.2187 78.808 57.16 78.6373 57.16 78.424V68.856H53.56C53.368 68.856 53.2187 68.8027 53.112 68.696C53.0053 68.5893 52.952 68.4507 52.952 68.28C52.952 68.0987 53.0053 67.96 53.112 67.864C53.2187 67.768 53.368 67.72 53.56 67.72H62.088C62.28 67.72 62.4293 67.768 62.536 67.864C62.6427 67.96 62.696 68.0987 62.696 68.28C62.696 68.4613 62.6427 68.6053 62.536 68.712C62.4293 68.808 62.28 68.856 62.088 68.856H58.488V78.424C58.488 78.6373 58.4293 78.808 58.312 78.936C58.2053 79.0533 58.04 79.112 57.816 79.112ZM64.0783 79.112C63.8649 79.112 63.6996 79.0533 63.5823 78.936C63.4756 78.8187 63.4223 78.6533 63.4223 78.44V71.768C63.4223 71.5547 63.4756 71.3947 63.5823 71.288C63.6889 71.1707 63.8436 71.112 64.0463 71.112C64.2489 71.112 64.4036 71.1707 64.5103 71.288C64.6276 71.3947 64.6863 71.5547 64.6863 71.768V73.064H64.5263C64.6969 72.4347 65.0223 71.9493 65.5023 71.608C65.9823 71.2667 66.5743 71.0853 67.2783 71.064C67.4383 71.0533 67.5663 71.0907 67.6623 71.176C67.7583 71.2507 67.8116 71.384 67.8223 71.576C67.8329 71.7573 67.7903 71.9013 67.6943 72.008C67.5983 72.1147 67.4489 72.1787 67.2463 72.2L66.9903 72.232C66.2649 72.296 65.7049 72.5307 65.3103 72.936C64.9263 73.3307 64.7343 73.8747 64.7343 74.568V78.44C64.7343 78.6533 64.6756 78.8187 64.5583 78.936C64.4516 79.0533 64.2916 79.112 64.0783 79.112ZM72.3265 79.144C71.7932 79.144 71.3132 79.0427 70.8865 78.84C70.4705 78.6267 70.1398 78.3387 69.8945 77.976C69.6492 77.6133 69.5265 77.208 69.5265 76.76C69.5265 76.184 69.6705 75.7307 69.9585 75.4C70.2572 75.0693 70.7425 74.8347 71.4145 74.696C72.0972 74.5573 73.0252 74.488 74.1985 74.488H74.9185V75.336H74.2145C73.3505 75.336 72.6678 75.3787 72.1665 75.464C71.6758 75.5387 71.3292 75.672 71.1265 75.864C70.9345 76.056 70.8385 76.328 70.8385 76.68C70.8385 77.1173 70.9878 77.4747 71.2865 77.752C71.5958 78.0293 72.0118 78.168 72.5345 78.168C72.9612 78.168 73.3345 78.0667 73.6545 77.864C73.9852 77.6613 74.2412 77.384 74.4225 77.032C74.6145 76.68 74.7105 76.2747 74.7105 75.816V73.992C74.7105 73.3307 74.5772 72.856 74.3105 72.568C74.0438 72.2693 73.6065 72.12 72.9985 72.12C72.6252 72.12 72.2518 72.168 71.8785 72.264C71.5052 72.36 71.1105 72.5147 70.6945 72.728C70.5452 72.8027 70.4172 72.8293 70.3105 72.808C70.2038 72.776 70.1185 72.7173 70.0545 72.632C69.9905 72.5467 69.9532 72.4507 69.9425 72.344C69.9318 72.2267 69.9532 72.1147 70.0065 72.008C70.0705 71.9013 70.1665 71.816 70.2945 71.752C70.7638 71.5173 71.2278 71.3467 71.6865 71.24C72.1452 71.1333 72.5825 71.08 72.9985 71.08C73.6705 71.08 74.2252 71.192 74.6625 71.416C75.0998 71.6293 75.4252 71.96 75.6385 72.408C75.8518 72.8453 75.9585 73.4107 75.9585 74.104V78.44C75.9585 78.6533 75.9052 78.8187 75.7985 78.936C75.7025 79.0533 75.5585 79.112 75.3665 79.112C75.1638 79.112 75.0092 79.0533 74.9025 78.936C74.7958 78.8187 74.7425 78.6533 74.7425 78.44V77.192H74.8865C74.8012 77.5973 74.6358 77.944 74.3905 78.232C74.1558 78.52 73.8625 78.744 73.5105 78.904C73.1585 79.064 72.7638 79.144 72.3265 79.144ZM82.4589 79.144C81.6802 79.144 81.0082 78.9733 80.4429 78.632C79.8775 78.2907 79.4402 77.816 79.1309 77.208C78.8322 76.5893 78.6829 75.8747 78.6829 75.064C78.6829 74.4453 78.7682 73.8907 78.9389 73.4C79.1095 72.9093 79.3602 72.4933 79.6909 72.152C80.0215 71.8 80.4162 71.5333 80.8749 71.352C81.3442 71.1707 81.8722 71.08 82.4589 71.08C82.8429 71.08 83.2429 71.1387 83.6589 71.256C84.0749 71.3733 84.4535 71.576 84.7949 71.864C84.9015 71.9387 84.9709 72.0293 85.0029 72.136C85.0349 72.2427 85.0349 72.3493 85.0029 72.456C84.9709 72.552 84.9175 72.6373 84.8429 72.712C84.7682 72.776 84.6722 72.8133 84.5549 72.824C84.4482 72.8347 84.3362 72.7973 84.2189 72.712C83.9415 72.4987 83.6589 72.3493 83.3709 72.264C83.0829 72.1787 82.8055 72.136 82.5389 72.136C82.1229 72.136 81.7602 72.2053 81.4509 72.344C81.1415 72.472 80.8802 72.6587 80.6669 72.904C80.4535 73.1493 80.2882 73.4533 80.1709 73.816C80.0642 74.1787 80.0109 74.6 80.0109 75.08C80.0109 76.008 80.2295 76.744 80.6669 77.288C81.1042 77.8213 81.7282 78.088 82.5389 78.088C82.8055 78.088 83.0775 78.0453 83.3549 77.96C83.6429 77.8747 83.9309 77.7253 84.2189 77.512C84.3362 77.4267 84.4482 77.3893 84.5549 77.4C84.6615 77.4107 84.7522 77.4533 84.8269 77.528C84.9015 77.592 84.9495 77.6773 84.9709 77.784C85.0029 77.8907 85.0029 77.9973 84.9709 78.104C84.9389 78.2 84.8695 78.2853 84.7629 78.36C84.4215 78.6373 84.0482 78.84 83.6429 78.968C83.2375 79.0853 82.8429 79.144 82.4589 79.144ZM88.0091 79.112C87.7958 79.112 87.6358 79.0533 87.5291 78.936C87.4225 78.8187 87.3691 78.6533 87.3691 78.44V68.264C87.3691 68.0507 87.4225 67.8907 87.5291 67.784C87.6358 67.6667 87.7958 67.608 88.0091 67.608C88.2118 67.608 88.3718 67.6667 88.4891 67.784C88.6065 67.8907 88.6651 68.0507 88.6651 68.264V74.68H88.6971L91.9771 71.544C92.1265 71.4053 92.2545 71.2987 92.3611 71.224C92.4785 71.1493 92.6331 71.112 92.8251 71.112C92.9958 71.112 93.1291 71.16 93.2251 71.256C93.3211 71.3413 93.3638 71.4533 93.3531 71.592C93.3531 71.72 93.2891 71.8587 93.1611 72.008L89.6731 75.32V74.616L93.4651 78.184C93.6145 78.3333 93.6891 78.4773 93.6891 78.616C93.6891 78.7547 93.6358 78.872 93.5291 78.968C93.4331 79.064 93.3051 79.112 93.1451 79.112C92.9531 79.112 92.7985 79.0747 92.6811 79C92.5638 78.9147 92.4198 78.792 92.2491 78.632L88.6971 75.352H88.6651V78.44C88.6651 78.888 88.4465 79.112 88.0091 79.112ZM104.918 79.144C104.417 79.144 103.926 79.1013 103.446 79.016C102.966 78.9307 102.518 78.808 102.102 78.648C101.697 78.488 101.329 78.2853 100.998 78.04C100.87 77.944 100.779 77.8373 100.726 77.72C100.683 77.592 100.673 77.4693 100.694 77.352C100.726 77.224 100.779 77.1173 100.854 77.032C100.939 76.9467 101.041 76.8987 101.158 76.888C101.275 76.8773 101.403 76.9147 101.542 77C102.022 77.3413 102.534 77.592 103.078 77.752C103.622 77.9013 104.235 77.976 104.918 77.976C105.878 77.976 106.587 77.8 107.046 77.448C107.515 77.0853 107.75 76.6107 107.75 76.024C107.75 75.544 107.579 75.1707 107.238 74.904C106.907 74.6267 106.347 74.408 105.558 74.248L103.894 73.912C102.891 73.6987 102.139 73.352 101.638 72.872C101.147 72.3813 100.902 71.7307 100.902 70.92C100.902 70.4187 101.003 69.9653 101.206 69.56C101.409 69.144 101.691 68.792 102.054 68.504C102.417 68.2053 102.849 67.976 103.35 67.816C103.851 67.656 104.406 67.576 105.014 67.576C105.686 67.576 106.31 67.672 106.886 67.864C107.473 68.0453 108.001 68.3227 108.47 68.696C108.587 68.792 108.667 68.904 108.71 69.032C108.753 69.1493 108.758 69.2667 108.726 69.384C108.694 69.4907 108.635 69.5813 108.55 69.656C108.475 69.7307 108.374 69.7733 108.246 69.784C108.129 69.7947 107.995 69.752 107.846 69.656C107.419 69.336 106.977 69.1067 106.518 68.968C106.059 68.8187 105.553 68.744 104.998 68.744C104.433 68.744 103.942 68.8293 103.526 69C103.121 69.1707 102.801 69.4213 102.566 69.752C102.342 70.072 102.23 70.4453 102.23 70.872C102.23 71.384 102.385 71.7893 102.694 72.088C103.014 72.3867 103.531 72.6053 104.246 72.744L105.91 73.096C106.987 73.32 107.782 73.6613 108.294 74.12C108.817 74.568 109.078 75.1813 109.078 75.96C109.078 76.4293 108.982 76.8613 108.79 77.256C108.598 77.6507 108.321 77.992 107.958 78.28C107.595 78.5573 107.158 78.7707 106.646 78.92C106.134 79.0693 105.558 79.144 104.918 79.144ZM112.41 79.112C112.197 79.112 112.037 79.0533 111.93 78.936C111.823 78.8187 111.77 78.6533 111.77 78.44V71.768C111.77 71.5547 111.823 71.3947 111.93 71.288C112.037 71.1707 112.191 71.112 112.394 71.112C112.597 71.112 112.751 71.1707 112.858 71.288C112.975 71.3947 113.034 71.5547 113.034 71.768V73.176L112.858 72.952C113.061 72.3547 113.386 71.896 113.834 71.576C114.293 71.2453 114.837 71.08 115.466 71.08C116.127 71.08 116.661 71.24 117.066 71.56C117.482 71.8693 117.759 72.3547 117.898 73.016H117.658C117.85 72.4187 118.191 71.9493 118.682 71.608C119.183 71.256 119.765 71.08 120.426 71.08C121.013 71.08 121.493 71.192 121.866 71.416C122.25 71.64 122.538 71.9813 122.73 72.44C122.922 72.888 123.018 73.4587 123.018 74.152V78.44C123.018 78.6533 122.959 78.8187 122.842 78.936C122.735 79.0533 122.575 79.112 122.362 79.112C122.159 79.112 121.999 79.0533 121.882 78.936C121.775 78.8187 121.722 78.6533 121.722 78.44V74.216C121.722 73.5013 121.599 72.9787 121.354 72.648C121.109 72.3067 120.693 72.136 120.106 72.136C119.466 72.136 118.959 72.36 118.586 72.808C118.223 73.2453 118.042 73.8427 118.042 74.6V78.44C118.042 78.6533 117.983 78.8187 117.866 78.936C117.759 79.0533 117.599 79.112 117.386 79.112C117.183 79.112 117.023 79.0533 116.906 78.936C116.799 78.8187 116.746 78.6533 116.746 78.44V74.216C116.746 73.5013 116.618 72.9787 116.362 72.648C116.117 72.3067 115.706 72.136 115.13 72.136C114.49 72.136 113.983 72.36 113.61 72.808C113.247 73.2453 113.066 73.8427 113.066 74.6V78.44C113.066 78.888 112.847 79.112 112.41 79.112ZM128.689 79.144C128.156 79.144 127.676 79.0427 127.249 78.84C126.833 78.6267 126.502 78.3387 126.257 77.976C126.012 77.6133 125.889 77.208 125.889 76.76C125.889 76.184 126.033 75.7307 126.321 75.4C126.62 75.0693 127.105 74.8347 127.777 74.696C128.46 74.5573 129.388 74.488 130.561 74.488H131.281V75.336H130.577C129.713 75.336 129.03 75.3787 128.529 75.464C128.038 75.5387 127.692 75.672 127.489 75.864C127.297 76.056 127.201 76.328 127.201 76.68C127.201 77.1173 127.35 77.4747 127.649 77.752C127.958 78.0293 128.374 78.168 128.897 78.168C129.324 78.168 129.697 78.0667 130.017 77.864C130.348 77.6613 130.604 77.384 130.785 77.032C130.977 76.68 131.073 76.2747 131.073 75.816V73.992C131.073 73.3307 130.94 72.856 130.673 72.568C130.406 72.2693 129.969 72.12 129.361 72.12C128.988 72.12 128.614 72.168 128.241 72.264C127.868 72.36 127.473 72.5147 127.057 72.728C126.908 72.8027 126.78 72.8293 126.673 72.808C126.566 72.776 126.481 72.7173 126.417 72.632C126.353 72.5467 126.316 72.4507 126.305 72.344C126.294 72.2267 126.316 72.1147 126.369 72.008C126.433 71.9013 126.529 71.816 126.657 71.752C127.126 71.5173 127.59 71.3467 128.049 71.24C128.508 71.1333 128.945 71.08 129.361 71.08C130.033 71.08 130.588 71.192 131.025 71.416C131.462 71.6293 131.788 71.96 132.001 72.408C132.214 72.8453 132.321 73.4107 132.321 74.104V78.44C132.321 78.6533 132.268 78.8187 132.161 78.936C132.065 79.0533 131.921 79.112 131.729 79.112C131.526 79.112 131.372 79.0533 131.265 78.936C131.158 78.8187 131.105 78.6533 131.105 78.44V77.192H131.249C131.164 77.5973 130.998 77.944 130.753 78.232C130.518 78.52 130.225 78.744 129.873 78.904C129.521 79.064 129.126 79.144 128.689 79.144ZM136.181 79.112C135.968 79.112 135.803 79.0533 135.685 78.936C135.579 78.8187 135.525 78.6533 135.525 78.44V71.768C135.525 71.5547 135.579 71.3947 135.685 71.288C135.792 71.1707 135.947 71.112 136.149 71.112C136.352 71.112 136.507 71.1707 136.613 71.288C136.731 71.3947 136.789 71.5547 136.789 71.768V73.064H136.629C136.8 72.4347 137.125 71.9493 137.605 71.608C138.085 71.2667 138.677 71.0853 139.381 71.064C139.541 71.0533 139.669 71.0907 139.765 71.176C139.861 71.2507 139.915 71.384 139.925 71.576C139.936 71.7573 139.893 71.9013 139.797 72.008C139.701 72.1147 139.552 72.1787 139.349 72.2L139.093 72.232C138.368 72.296 137.808 72.5307 137.413 72.936C137.029 73.3307 136.837 73.8747 136.837 74.568V78.44C136.837 78.6533 136.779 78.8187 136.661 78.936C136.555 79.0533 136.395 79.112 136.181 79.112ZM145.602 79.144C144.994 79.144 144.482 79.0373 144.066 78.824C143.66 78.6 143.356 78.28 143.154 77.864C142.951 77.4373 142.85 76.92 142.85 76.312V72.232H141.778C141.596 72.232 141.458 72.1893 141.362 72.104C141.266 72.008 141.218 71.88 141.218 71.72C141.218 71.56 141.266 71.4373 141.362 71.352C141.458 71.2667 141.596 71.224 141.778 71.224H142.85V69.384C142.85 69.1707 142.908 69.0107 143.026 68.904C143.143 68.7867 143.303 68.728 143.506 68.728C143.708 68.728 143.863 68.7867 143.97 68.904C144.087 69.0107 144.146 69.1707 144.146 69.384V71.224H146.162C146.343 71.224 146.482 71.2667 146.578 71.352C146.674 71.4373 146.722 71.56 146.722 71.72C146.722 71.88 146.674 72.008 146.578 72.104C146.482 72.1893 146.343 72.232 146.162 72.232H144.146V76.184C144.146 76.792 144.274 77.256 144.53 77.576C144.786 77.8853 145.202 78.04 145.778 78.04C145.98 78.04 146.151 78.0187 146.29 77.976C146.439 77.9333 146.562 77.912 146.658 77.912C146.754 77.9013 146.834 77.9333 146.898 78.008C146.962 78.0827 146.994 78.2107 146.994 78.392C146.994 78.52 146.967 78.6373 146.914 78.744C146.871 78.8507 146.791 78.9253 146.674 78.968C146.546 79.0107 146.375 79.048 146.162 79.08C145.959 79.1227 145.772 79.144 145.602 79.144ZM152.301 79.144C151.48 79.144 150.771 78.984 150.173 78.664C149.587 78.3333 149.128 77.8693 148.797 77.272C148.477 76.6747 148.317 75.96 148.317 75.128C148.317 74.3173 148.477 73.6133 148.797 73.016C149.117 72.408 149.555 71.9333 150.109 71.592C150.675 71.2507 151.325 71.08 152.061 71.08C152.584 71.08 153.053 71.1707 153.469 71.352C153.885 71.5227 154.237 71.7733 154.525 72.104C154.824 72.4347 155.048 72.8347 155.197 73.304C155.357 73.7733 155.437 74.3013 155.437 74.888C155.437 75.0587 155.389 75.1867 155.293 75.272C155.197 75.3467 155.059 75.384 154.877 75.384H149.309V74.536H154.573L154.317 74.744C154.317 74.168 154.232 73.6827 154.061 73.288C153.891 72.8827 153.64 72.5733 153.309 72.36C152.989 72.1467 152.584 72.04 152.093 72.04C151.549 72.04 151.085 72.168 150.701 72.424C150.328 72.6693 150.045 73.016 149.853 73.464C149.661 73.9013 149.565 74.4133 149.565 75V75.096C149.565 76.0773 149.8 76.824 150.269 77.336C150.749 77.848 151.427 78.104 152.301 78.104C152.664 78.104 153.021 78.056 153.373 77.96C153.736 77.864 154.088 77.704 154.429 77.48C154.579 77.384 154.712 77.3413 154.829 77.352C154.957 77.352 155.059 77.3893 155.133 77.464C155.208 77.528 155.256 77.6133 155.277 77.72C155.309 77.816 155.299 77.9227 155.245 78.04C155.203 78.1573 155.112 78.2587 154.973 78.344C154.621 78.6 154.205 78.7973 153.725 78.936C153.245 79.0747 152.771 79.144 152.301 79.144ZM158.769 79.112C158.556 79.112 158.39 79.0533 158.273 78.936C158.166 78.8187 158.113 78.6533 158.113 78.44V71.768C158.113 71.5547 158.166 71.3947 158.273 71.288C158.38 71.1707 158.534 71.112 158.737 71.112C158.94 71.112 159.094 71.1707 159.201 71.288C159.318 71.3947 159.377 71.5547 159.377 71.768V73.064H159.217C159.388 72.4347 159.713 71.9493 160.193 71.608C160.673 71.2667 161.265 71.0853 161.969 71.064C162.129 71.0533 162.257 71.0907 162.353 71.176C162.449 71.2507 162.502 71.384 162.513 71.576C162.524 71.7573 162.481 71.9013 162.385 72.008C162.289 72.1147 162.14 72.1787 161.937 72.2L161.681 72.232C160.956 72.296 160.396 72.5307 160.001 72.936C159.617 73.3307 159.425 73.8747 159.425 74.568V78.44C159.425 78.6533 159.366 78.8187 159.249 78.936C159.142 79.0533 158.982 79.112 158.769 79.112ZM165.087 80.52C164.98 80.6587 164.868 80.7387 164.751 80.76C164.634 80.7813 164.532 80.76 164.447 80.696C164.362 80.632 164.314 80.5413 164.303 80.424C164.303 80.3067 164.356 80.1787 164.463 80.04C164.634 79.816 164.751 79.5867 164.815 79.352C164.879 79.128 164.911 78.92 164.911 78.728L164.975 79.064C164.698 79.064 164.474 78.984 164.303 78.824C164.143 78.6533 164.063 78.44 164.063 78.184C164.063 77.928 164.138 77.72 164.287 77.56C164.447 77.3893 164.655 77.304 164.911 77.304C165.188 77.304 165.407 77.4 165.567 77.592C165.727 77.7733 165.807 78.04 165.807 78.392C165.807 78.616 165.786 78.8453 165.743 79.08C165.7 79.3253 165.626 79.5707 165.519 79.816C165.412 80.0613 165.268 80.296 165.087 80.52ZM177.477 79.112C177.285 79.112 177.13 79.064 177.013 78.968C176.895 78.8613 176.799 78.7067 176.725 78.504L173.189 68.408C173.114 68.184 173.13 67.9973 173.237 67.848C173.354 67.688 173.535 67.608 173.781 67.608C173.962 67.608 174.106 67.656 174.213 67.752C174.319 67.8373 174.41 67.976 174.485 68.168L177.797 77.88H177.237L180.613 68.216C180.687 68.0133 180.778 67.864 180.885 67.768C180.991 67.6613 181.135 67.608 181.317 67.608C181.487 67.608 181.621 67.6613 181.717 67.768C181.823 67.864 181.914 68.0133 181.989 68.216L185.317 77.88H184.821L188.165 68.168C188.218 67.9867 188.298 67.848 188.405 67.752C188.522 67.656 188.671 67.608 188.853 67.608C189.077 67.608 189.242 67.6827 189.349 67.832C189.455 67.9813 189.466 68.1733 189.381 68.408L185.829 78.504C185.754 78.7067 185.658 78.8613 185.541 78.968C185.434 79.064 185.279 79.112 185.077 79.112C184.885 79.112 184.73 79.064 184.613 78.968C184.506 78.8613 184.41 78.7067 184.325 78.504L181.109 69.24H181.461L178.213 78.504C178.138 78.7067 178.047 78.8613 177.941 78.968C177.834 79.064 177.679 79.112 177.477 79.112ZM193.636 79.144C193.103 79.144 192.623 79.0427 192.196 78.84C191.78 78.6267 191.449 78.3387 191.204 77.976C190.959 77.6133 190.836 77.208 190.836 76.76C190.836 76.184 190.98 75.7307 191.268 75.4C191.567 75.0693 192.052 74.8347 192.724 74.696C193.407 74.5573 194.335 74.488 195.508 74.488H196.228V75.336H195.524C194.66 75.336 193.977 75.3787 193.476 75.464C192.985 75.5387 192.639 75.672 192.436 75.864C192.244 76.056 192.148 76.328 192.148 76.68C192.148 77.1173 192.297 77.4747 192.596 77.752C192.905 78.0293 193.321 78.168 193.844 78.168C194.271 78.168 194.644 78.0667 194.964 77.864C195.295 77.6613 195.551 77.384 195.732 77.032C195.924 76.68 196.02 76.2747 196.02 75.816V73.992C196.02 73.3307 195.887 72.856 195.62 72.568C195.353 72.2693 194.916 72.12 194.308 72.12C193.935 72.12 193.561 72.168 193.188 72.264C192.815 72.36 192.42 72.5147 192.004 72.728C191.855 72.8027 191.727 72.8293 191.62 72.808C191.513 72.776 191.428 72.7173 191.364 72.632C191.3 72.5467 191.263 72.4507 191.252 72.344C191.241 72.2267 191.263 72.1147 191.316 72.008C191.38 71.9013 191.476 71.816 191.604 71.752C192.073 71.5173 192.537 71.3467 192.996 71.24C193.455 71.1333 193.892 71.08 194.308 71.08C194.98 71.08 195.535 71.192 195.972 71.416C196.409 71.6293 196.735 71.96 196.948 72.408C197.161 72.8453 197.268 73.4107 197.268 74.104V78.44C197.268 78.6533 197.215 78.8187 197.108 78.936C197.012 79.0533 196.868 79.112 196.676 79.112C196.473 79.112 196.319 79.0533 196.212 78.936C196.105 78.8187 196.052 78.6533 196.052 78.44V77.192H196.196C196.111 77.5973 195.945 77.944 195.7 78.232C195.465 78.52 195.172 78.744 194.82 78.904C194.468 79.064 194.073 79.144 193.636 79.144ZM203.096 79.144C202.616 79.144 202.131 79.0853 201.64 78.968C201.16 78.8507 200.712 78.648 200.296 78.36C200.19 78.2853 200.115 78.2 200.072 78.104C200.03 77.9973 200.014 77.896 200.024 77.8C200.046 77.6933 200.088 77.6027 200.152 77.528C200.227 77.4533 200.312 77.4107 200.408 77.4C200.515 77.3787 200.632 77.4 200.76 77.464C201.176 77.72 201.576 77.9013 201.96 78.008C202.355 78.104 202.744 78.152 203.128 78.152C203.736 78.152 204.195 78.04 204.504 77.816C204.814 77.592 204.968 77.288 204.968 76.904C204.968 76.6053 204.867 76.3707 204.664 76.2C204.462 76.0187 204.142 75.88 203.704 75.784L202.248 75.464C201.576 75.3253 201.075 75.0853 200.744 74.744C200.424 74.4027 200.264 73.96 200.264 73.416C200.264 72.936 200.387 72.5253 200.632 72.184C200.888 71.832 201.246 71.56 201.704 71.368C202.163 71.176 202.696 71.08 203.304 71.08C203.774 71.08 204.216 71.144 204.632 71.272C205.059 71.3893 205.443 71.5813 205.784 71.848C205.891 71.9227 205.96 72.0133 205.992 72.12C206.035 72.216 206.04 72.3173 206.008 72.424C205.987 72.52 205.939 72.6053 205.864 72.68C205.79 72.744 205.699 72.7813 205.592 72.792C205.486 72.8027 205.374 72.7707 205.256 72.696C204.936 72.4827 204.611 72.328 204.28 72.232C203.95 72.1253 203.624 72.072 203.304 72.072C202.707 72.072 202.254 72.1893 201.944 72.424C201.635 72.6587 201.48 72.968 201.48 73.352C201.48 73.6507 201.576 73.896 201.768 74.088C201.96 74.28 202.259 74.4187 202.664 74.504L204.12 74.808C204.814 74.9573 205.331 75.1973 205.672 75.528C206.024 75.848 206.2 76.2853 206.2 76.84C206.2 77.544 205.918 78.104 205.352 78.52C204.787 78.936 204.035 79.144 203.096 79.144ZM212.017 79.144C211.409 79.144 210.897 79.0373 210.481 78.824C210.076 78.6 209.772 78.28 209.569 77.864C209.367 77.4373 209.265 76.92 209.265 76.312V72.232H208.193C208.012 72.232 207.873 72.1893 207.777 72.104C207.681 72.008 207.633 71.88 207.633 71.72C207.633 71.56 207.681 71.4373 207.777 71.352C207.873 71.2667 208.012 71.224 208.193 71.224H209.265V69.384C209.265 69.1707 209.324 69.0107 209.441 68.904C209.559 68.7867 209.719 68.728 209.921 68.728C210.124 68.728 210.279 68.7867 210.385 68.904C210.503 69.0107 210.561 69.1707 210.561 69.384V71.224H212.577C212.759 71.224 212.897 71.2667 212.993 71.352C213.089 71.4373 213.137 71.56 213.137 71.72C213.137 71.88 213.089 72.008 212.993 72.104C212.897 72.1893 212.759 72.232 212.577 72.232H210.561V76.184C210.561 76.792 210.689 77.256 210.945 77.576C211.201 77.8853 211.617 78.04 212.193 78.04C212.396 78.04 212.567 78.0187 212.705 77.976C212.855 77.9333 212.977 77.912 213.073 77.912C213.169 77.9013 213.249 77.9333 213.313 78.008C213.377 78.0827 213.409 78.2107 213.409 78.392C213.409 78.52 213.383 78.6373 213.329 78.744C213.287 78.8507 213.207 78.9253 213.089 78.968C212.961 79.0107 212.791 79.048 212.577 79.08C212.375 79.1227 212.188 79.144 212.017 79.144ZM218.717 79.144C217.896 79.144 217.186 78.984 216.589 78.664C216.002 78.3333 215.544 77.8693 215.213 77.272C214.893 76.6747 214.733 75.96 214.733 75.128C214.733 74.3173 214.893 73.6133 215.213 73.016C215.533 72.408 215.97 71.9333 216.525 71.592C217.09 71.2507 217.741 71.08 218.477 71.08C219 71.08 219.469 71.1707 219.885 71.352C220.301 71.5227 220.653 71.7733 220.941 72.104C221.24 72.4347 221.464 72.8347 221.613 73.304C221.773 73.7733 221.853 74.3013 221.853 74.888C221.853 75.0587 221.805 75.1867 221.709 75.272C221.613 75.3467 221.474 75.384 221.293 75.384H215.725V74.536H220.989L220.733 74.744C220.733 74.168 220.648 73.6827 220.477 73.288C220.306 72.8827 220.056 72.5733 219.725 72.36C219.405 72.1467 219 72.04 218.509 72.04C217.965 72.04 217.501 72.168 217.117 72.424C216.744 72.6693 216.461 73.016 216.269 73.464C216.077 73.9013 215.981 74.4133 215.981 75V75.096C215.981 76.0773 216.216 76.824 216.685 77.336C217.165 77.848 217.842 78.104 218.717 78.104C219.08 78.104 219.437 78.056 219.789 77.96C220.152 77.864 220.504 77.704 220.845 77.48C220.994 77.384 221.128 77.3413 221.245 77.352C221.373 77.352 221.474 77.3893 221.549 77.464C221.624 77.528 221.672 77.6133 221.693 77.72C221.725 77.816 221.714 77.9227 221.661 78.04C221.618 78.1573 221.528 78.2587 221.389 78.344C221.037 78.6 220.621 78.7973 220.141 78.936C219.661 79.0747 219.186 79.144 218.717 79.144ZM230.254 79.112C230.051 79.112 229.896 79.0587 229.79 78.952C229.683 78.8347 229.63 78.6693 229.63 78.456V68.28C229.63 68.0667 229.683 67.9013 229.79 67.784C229.896 67.6667 230.035 67.608 230.206 67.608C230.376 67.608 230.499 67.64 230.574 67.704C230.659 67.7573 230.755 67.8587 230.862 68.008L237.838 77.304H237.454V68.248C237.454 68.0453 237.507 67.8907 237.614 67.784C237.72 67.6667 237.875 67.608 238.078 67.608C238.27 67.608 238.414 67.6667 238.51 67.784C238.616 67.8907 238.67 68.0453 238.67 68.248V78.472C238.67 78.6747 238.622 78.8347 238.526 78.952C238.44 79.0587 238.312 79.112 238.142 79.112C237.982 79.112 237.854 79.08 237.758 79.016C237.662 78.952 237.56 78.8507 237.454 78.712L230.494 69.416H230.862V78.456C230.862 78.6693 230.808 78.8347 230.702 78.952C230.595 79.0587 230.446 79.112 230.254 79.112ZM245.329 79.144C244.572 79.144 243.916 78.9787 243.361 78.648C242.807 78.3173 242.375 77.8533 242.065 77.256C241.767 76.648 241.617 75.9333 241.617 75.112C241.617 74.4933 241.703 73.9387 241.873 73.448C242.044 72.9467 242.295 72.52 242.625 72.168C242.956 71.816 243.345 71.5493 243.793 71.368C244.252 71.176 244.764 71.08 245.329 71.08C246.087 71.08 246.743 71.2453 247.297 71.576C247.852 71.9067 248.279 72.376 248.577 72.984C248.887 73.5813 249.041 74.2907 249.041 75.112C249.041 75.7307 248.956 76.2853 248.785 76.776C248.615 77.2667 248.364 77.6933 248.033 78.056C247.703 78.408 247.308 78.68 246.849 78.872C246.401 79.0533 245.895 79.144 245.329 79.144ZM245.329 78.104C245.809 78.104 246.231 77.9867 246.593 77.752C246.956 77.5173 247.233 77.176 247.425 76.728C247.628 76.28 247.729 75.7413 247.729 75.112C247.729 74.1413 247.511 73.4 247.073 72.888C246.647 72.376 246.065 72.12 245.329 72.12C244.839 72.12 244.412 72.2373 244.049 72.472C243.697 72.696 243.42 73.032 243.217 73.48C243.025 73.9173 242.929 74.4613 242.929 75.112C242.929 76.072 243.148 76.8133 243.585 77.336C244.023 77.848 244.604 78.104 245.329 78.104ZM257.529 79.112C257.337 79.112 257.188 79.0587 257.081 78.952C256.974 78.8347 256.921 78.6747 256.921 78.472V68.248C256.921 68.0347 256.974 67.8747 257.081 67.768C257.188 67.6613 257.337 67.608 257.529 67.608C257.7 67.608 257.833 67.6453 257.929 67.72C258.036 67.784 258.132 67.896 258.217 68.056L262.601 76.312H262.121L266.489 68.056C266.574 67.896 266.665 67.784 266.761 67.72C266.857 67.6453 266.996 67.608 267.177 67.608C267.358 67.608 267.502 67.6613 267.609 67.768C267.716 67.8747 267.769 68.0347 267.769 68.248V78.472C267.769 78.6747 267.716 78.8347 267.609 78.952C267.513 79.0587 267.364 79.112 267.161 79.112C266.969 79.112 266.82 79.0587 266.713 78.952C266.606 78.8347 266.553 78.6747 266.553 78.472V69.48H266.937L262.937 76.984C262.862 77.1227 262.782 77.224 262.697 77.288C262.622 77.3413 262.51 77.368 262.361 77.368C262.212 77.368 262.094 77.336 262.009 77.272C261.924 77.208 261.849 77.112 261.785 76.984L257.737 69.464H258.121V78.472C258.121 78.6747 258.068 78.8347 257.961 78.952C257.865 79.0587 257.721 79.112 257.529 79.112ZM274.432 79.144C273.675 79.144 273.019 78.9787 272.464 78.648C271.91 78.3173 271.478 77.8533 271.168 77.256C270.87 76.648 270.72 75.9333 270.72 75.112C270.72 74.4933 270.806 73.9387 270.976 73.448C271.147 72.9467 271.398 72.52 271.728 72.168C272.059 71.816 272.448 71.5493 272.896 71.368C273.355 71.176 273.867 71.08 274.432 71.08C275.19 71.08 275.846 71.2453 276.4 71.576C276.955 71.9067 277.382 72.376 277.68 72.984C277.99 73.5813 278.144 74.2907 278.144 75.112C278.144 75.7307 278.059 76.2853 277.888 76.776C277.718 77.2667 277.467 77.6933 277.136 78.056C276.806 78.408 276.411 78.68 275.952 78.872C275.504 79.0533 274.998 79.144 274.432 79.144ZM274.432 78.104C274.912 78.104 275.334 77.9867 275.696 77.752C276.059 77.5173 276.336 77.176 276.528 76.728C276.731 76.28 276.832 75.7413 276.832 75.112C276.832 74.1413 276.614 73.4 276.176 72.888C275.75 72.376 275.168 72.12 274.432 72.12C273.942 72.12 273.515 72.2373 273.152 72.472C272.8 72.696 272.523 73.032 272.32 73.48C272.128 73.9173 272.032 74.4613 272.032 75.112C272.032 76.072 272.251 76.8133 272.688 77.336C273.126 77.848 273.707 78.104 274.432 78.104ZM281.547 79.112C281.334 79.112 281.168 79.0533 281.051 78.936C280.944 78.8187 280.891 78.6533 280.891 78.44V71.768C280.891 71.5547 280.944 71.3947 281.051 71.288C281.158 71.1707 281.312 71.112 281.515 71.112C281.718 71.112 281.872 71.1707 281.979 71.288C282.096 71.3947 282.155 71.5547 282.155 71.768V73.064H281.995C282.166 72.4347 282.491 71.9493 282.971 71.608C283.451 71.2667 284.043 71.0853 284.747 71.064C284.907 71.0533 285.035 71.0907 285.131 71.176C285.227 71.2507 285.28 71.384 285.291 71.576C285.302 71.7573 285.259 71.9013 285.163 72.008C285.067 72.1147 284.918 72.1787 284.715 72.2L284.459 72.232C283.734 72.296 283.174 72.5307 282.779 72.936C282.395 73.3307 282.203 73.8747 282.203 74.568V78.44C282.203 78.6533 282.144 78.8187 282.027 78.936C281.92 79.0533 281.76 79.112 281.547 79.112ZM290.836 79.144C290.014 79.144 289.305 78.984 288.708 78.664C288.121 78.3333 287.662 77.8693 287.332 77.272C287.012 76.6747 286.852 75.96 286.852 75.128C286.852 74.3173 287.012 73.6133 287.332 73.016C287.652 72.408 288.089 71.9333 288.644 71.592C289.209 71.2507 289.86 71.08 290.596 71.08C291.118 71.08 291.588 71.1707 292.004 71.352C292.42 71.5227 292.772 71.7733 293.06 72.104C293.358 72.4347 293.582 72.8347 293.732 73.304C293.892 73.7733 293.972 74.3013 293.972 74.888C293.972 75.0587 293.924 75.1867 293.828 75.272C293.732 75.3467 293.593 75.384 293.412 75.384H287.844V74.536H293.108L292.852 74.744C292.852 74.168 292.766 73.6827 292.596 73.288C292.425 72.8827 292.174 72.5733 291.844 72.36C291.524 72.1467 291.118 72.04 290.628 72.04C290.084 72.04 289.62 72.168 289.236 72.424C288.862 72.6693 288.58 73.016 288.388 73.464C288.196 73.9013 288.1 74.4133 288.1 75V75.096C288.1 76.0773 288.334 76.824 288.804 77.336C289.284 77.848 289.961 78.104 290.836 78.104C291.198 78.104 291.556 78.056 291.908 77.96C292.27 77.864 292.622 77.704 292.964 77.48C293.113 77.384 293.246 77.3413 293.364 77.352C293.492 77.352 293.593 77.3893 293.668 77.464C293.742 77.528 293.79 77.6133 293.812 77.72C293.844 77.816 293.833 77.9227 293.78 78.04C293.737 78.1573 293.646 78.2587 293.508 78.344C293.156 78.6 292.74 78.7973 292.26 78.936C291.78 79.0747 291.305 79.144 290.836 79.144ZM297.271 76.136C297.143 76.136 297.037 76.0933 296.951 76.008C296.877 75.9227 296.834 75.7947 296.823 75.624L296.503 68.456C296.493 68.2 296.551 67.9973 296.679 67.848C296.818 67.688 297.015 67.608 297.271 67.608C297.517 67.608 297.703 67.688 297.831 67.848C297.959 67.9973 298.018 68.2 298.007 68.456L297.687 75.624C297.687 75.7947 297.65 75.9227 297.575 76.008C297.501 76.0933 297.399 76.136 297.271 76.136ZM297.271 79.064C297.005 79.064 296.791 78.984 296.631 78.824C296.471 78.6533 296.391 78.44 296.391 78.184C296.391 77.928 296.471 77.72 296.631 77.56C296.791 77.3893 297.005 77.304 297.271 77.304C297.538 77.304 297.746 77.3893 297.895 77.56C298.055 77.72 298.135 77.928 298.135 78.184C298.135 78.44 298.055 78.6533 297.895 78.824C297.746 78.984 297.538 79.064 297.271 79.064Z" fill="white"/>
</svg>
