<svg width="38" height="38" viewBox="0 0 38 38" fill="none" xmlns="http://www.w3.org/2000/svg">
<circle cx="19" cy="19" r="18.9" fill="#F4F4F4" stroke="black" stroke-width="0.2"/>
<g clip-path="url(#clip0_59_172)">
<path d="M19 9C16.2818 9 15.9431 9.01313 14.8793 9.05813C13.8112 9.11062 13.0887 9.27625 12.4512 9.52375C11.784 9.77569 11.1798 10.1701 10.6806 10.6794C10.1705 11.1779 9.77601 11.7824 9.52497 12.45C9.27747 13.0875 9.11185 13.81 9.05935 14.8781C9.01122 15.9425 9.00122 16.2806 9.00122 18.9987C9.00122 21.7169 9.01435 22.0556 9.05935 23.1194C9.11185 24.1844 9.27747 24.91 9.52497 25.5475C9.77691 26.2147 10.1713 26.8189 10.6806 27.3181C11.1792 27.8282 11.7836 28.2227 12.4512 28.4738C13.0887 28.7181 13.8143 28.8869 14.8793 28.9394C15.9437 28.9875 16.2818 28.9975 19 28.9975C21.7181 28.9975 22.0568 28.9844 23.1206 28.9394C24.1856 28.8869 24.9112 28.7175 25.5487 28.4738C26.2159 28.2218 26.8201 27.8274 27.3193 27.3181C27.831 26.8209 28.2258 26.2161 28.475 25.5475C28.7193 24.91 28.8881 24.1844 28.9406 23.1194C28.9887 22.055 28.9987 21.7169 28.9987 18.9987C28.9987 16.2806 28.9856 15.9419 28.9406 14.8781C28.8881 13.8131 28.7187 13.0838 28.475 12.45C28.223 11.7828 27.8287 11.1786 27.3193 10.6794C26.8221 10.1677 26.2173 9.77294 25.5487 9.52375C24.9112 9.27625 24.1856 9.11062 23.1206 9.05813C22.0562 9.01 21.7181 9 19 9ZM19 10.8C21.6693 10.8 21.9881 10.8131 23.0431 10.8581C24.0162 10.9038 24.5462 11.0663 24.8981 11.2038C25.333 11.3645 25.7267 11.6201 26.0506 11.9519C26.3825 12.2738 26.6372 12.6668 26.7956 13.1012C26.9331 13.4531 27.0956 13.9831 27.1412 14.9562C27.1862 16.0113 27.1993 16.3306 27.1993 18.9994C27.1993 21.6681 27.1862 21.9875 27.1375 23.0425C27.085 24.0156 26.9225 24.5456 26.7856 24.8975C26.5962 25.3669 26.385 25.695 26.0362 26.05C25.7113 26.3799 25.3179 26.6342 24.8837 26.795C24.5362 26.9325 23.9987 27.095 23.0218 27.1406C21.9612 27.1856 21.6487 27.1987 18.9725 27.1987C16.2962 27.1987 15.9843 27.1856 14.9225 27.1369C13.9493 27.0844 13.4125 26.9219 13.0606 26.785C12.5856 26.5956 12.26 26.3844 11.9112 26.0356C11.5593 25.6838 11.3356 25.3487 11.1631 24.8831C11.0231 24.5356 10.8631 23.9981 10.8112 23.0212C10.7756 21.9731 10.7587 21.6481 10.7587 18.9844C10.7587 16.3219 10.7756 15.9963 10.8112 14.935C10.8631 13.9581 11.0231 13.4219 11.1631 13.0731C11.3356 12.5975 11.56 12.2725 11.9112 11.9206C12.2593 11.5725 12.5856 11.3475 13.0606 11.1712C13.4125 11.0344 13.9362 10.8719 14.9131 10.8231C15.9737 10.785 16.2862 10.7713 18.9587 10.7713L19 10.8ZM19 13.8669C18.3258 13.8666 17.6582 13.9992 17.0353 14.2571C16.4124 14.515 15.8465 14.8931 15.3698 15.3698C14.8931 15.8465 14.515 16.4125 14.2571 17.0353C13.9992 17.6582 13.8666 18.3258 13.8668 19C13.8666 19.6742 13.9992 20.3418 14.2571 20.9647C14.515 21.5875 14.8931 22.1535 15.3698 22.6302C15.8465 23.1069 16.4124 23.485 17.0353 23.7429C17.6582 24.0008 18.3258 24.1334 19 24.1331C19.6741 24.1334 20.3417 24.0008 20.9646 23.7429C21.5875 23.485 22.1535 23.1069 22.6302 22.6302C23.1069 22.1535 23.485 21.5875 23.7429 20.9647C24.0007 20.3418 24.1333 19.6742 24.1331 19C24.1333 18.3258 24.0007 17.6582 23.7429 17.0353C23.485 16.4125 23.1069 15.8465 22.6302 15.3698C22.1535 14.8931 21.5875 14.515 20.9646 14.2571C20.3417 13.9992 19.6741 13.8666 19 13.8669ZM19 22.3331C17.1575 22.3331 15.6668 20.8425 15.6668 19C15.6668 17.1575 17.1575 15.6669 19 15.6669C20.8425 15.6669 22.3331 17.1575 22.3331 19C22.3331 20.8425 20.8425 22.3331 19 22.3331ZM25.54 13.6619C25.5396 13.9804 25.4129 14.2858 25.1875 14.5109C24.9621 14.736 24.6566 14.8625 24.3381 14.8625C24.1806 14.8625 24.0246 14.8315 23.8791 14.7712C23.7336 14.7109 23.6014 14.6226 23.49 14.5112C23.3786 14.3998 23.2903 14.2676 23.23 14.1221C23.1697 13.9766 23.1387 13.8206 23.1387 13.6631C23.1387 13.5056 23.1697 13.3497 23.23 13.2041C23.2903 13.0586 23.3786 12.9264 23.49 12.815C23.6014 12.7037 23.7336 12.6153 23.8791 12.555C24.0246 12.4948 24.1806 12.4637 24.3381 12.4637C24.9987 12.4637 25.54 13.0013 25.54 13.6619Z" fill="black"/>
</g>
<defs>
<clipPath id="clip0_59_172">
<rect width="20" height="20" fill="white" transform="translate(9 9)"/>
</clipPath>
</defs>
</svg>
