<svg width="67" height="67" viewBox="0 0 67 67" fill="none" xmlns="http://www.w3.org/2000/svg">
<circle cx="33.5" cy="33.5" r="33.5" fill="#F4F4F4"/>
<path d="M49 25.6667V45C49 47.2167 47.2167 49 45 49H23C20.7833 49 19 47.2167 19 45V25.6667M27.3333 32.3333H40.6667M18.3333 19H49.6667C50.3739 19 51.0522 19.281 51.5523 19.781C52.0524 20.2811 52.3333 20.9594 52.3333 21.6667V23C52.3333 23.3502 52.2644 23.697 52.1303 24.0205C51.9963 24.344 51.7999 24.638 51.5523 24.8856C51.3047 25.1332 51.0107 25.3297 50.6872 25.4637C50.3636 25.5977 50.0169 25.6667 49.6667 25.6667H18.3333C17.6261 25.6667 16.9478 25.3857 16.4477 24.8856C15.9476 24.3855 15.6667 23.7072 15.6667 23V21.6667C15.6667 21.3165 15.7356 20.9697 15.8697 20.6462C16.0037 20.3226 16.2001 20.0287 16.4477 19.781C16.9478 19.281 17.6261 19 18.3333 19Z" stroke="#E46504" stroke-width="1.5" stroke-miterlimit="10" stroke-linecap="round" stroke-linejoin="round"/>
</svg>
