<svg width="40" height="40" viewBox="0 0 40 40" fill="none" xmlns="http://www.w3.org/2000/svg">
<path fill-rule="evenodd" clip-rule="evenodd" d="M26.8746 20C26.8746 19.6685 26.7429 19.3505 26.5085 19.1161C26.2741 18.8817 25.9562 18.75 25.6246 18.75H7.33629L10.6046 15.95C10.7294 15.8432 10.8319 15.7129 10.9063 15.5664C10.9807 15.42 11.0255 15.2604 11.0382 15.0966C11.0508 14.9329 11.0312 14.7683 10.9802 14.6121C10.9293 14.456 10.8481 14.3114 10.7413 14.1867C10.6345 14.0619 10.5042 13.9594 10.3577 13.885C10.2113 13.8106 10.0517 13.7658 9.88793 13.7531C9.72419 13.7404 9.55955 13.7601 9.40342 13.8111C9.24729 13.862 9.10272 13.9432 8.97796 14.05L3.14463 19.05C3.0074 19.1673 2.89723 19.313 2.82169 19.477C2.74615 19.641 2.70703 19.8194 2.70703 20C2.70703 20.1806 2.74615 20.359 2.82169 20.523C2.89723 20.687 3.0074 20.8326 3.14463 20.95L8.97796 25.95C9.22992 26.1657 9.55724 26.2725 9.88793 26.2469C10.2186 26.2212 10.5256 26.0653 10.7413 25.8133C10.957 25.5614 11.0638 25.234 11.0382 24.9034C11.0125 24.5727 10.8566 24.2657 10.6046 24.05L7.33796 21.25H25.6246C25.9562 21.25 26.2741 21.1183 26.5085 20.8839C26.7429 20.6495 26.8746 20.3315 26.8746 20Z" fill="#F3F9E3"/>
<path d="M15.625 13.3334C15.625 14.5034 15.625 15.0884 15.9067 15.51C16.028 15.6913 16.1837 15.8471 16.365 15.9684C16.7867 16.25 17.3717 16.25 18.5417 16.25H25.625C26.6196 16.25 27.5734 16.6451 28.2766 17.3484C28.9799 18.0517 29.375 19.0055 29.375 20C29.375 20.9946 28.9799 21.9484 28.2766 22.6517C27.5734 23.355 26.6196 23.75 25.625 23.75H18.5417C17.3717 23.75 16.7867 23.75 16.365 24.03C16.1835 24.1518 16.0278 24.3081 15.9067 24.49C15.625 24.9117 15.625 25.4967 15.625 26.6667C15.625 31.38 15.625 33.7384 17.09 35.2017C18.5533 36.6667 20.91 36.6667 25.6233 36.6667H27.29C32.0067 36.6667 34.3617 36.6667 35.8267 35.2017C37.2917 33.7384 37.2917 31.38 37.2917 26.6667V13.3334C37.2917 8.62004 37.2917 6.26171 35.8267 4.79837C34.3617 3.33504 32.005 3.33337 27.2917 3.33337H25.625C20.91 3.33337 18.5533 3.33337 17.09 4.79837C15.625 6.26171 15.625 8.62004 15.625 13.3334Z" fill="#F3F9E3"/>
</svg>
