<svg width="25" height="25" viewBox="0 0 25 25" fill="none" xmlns="http://www.w3.org/2000/svg">
<path d="M17.9688 7.03125C17.9688 8.48165 17.3926 9.87265 16.367 10.8982C15.3414 11.9238 13.9504 12.5 12.5 12.5C11.0496 12.5 9.6586 11.9238 8.63301 10.8982C7.60742 9.87265 7.03125 8.48165 7.03125 7.03125C7.03125 5.58085 7.60742 4.18985 8.63301 3.16426C9.6586 2.13867 11.0496 1.5625 12.5 1.5625C13.9504 1.5625 15.3414 2.13867 16.367 3.16426C17.3926 4.18985 17.9688 5.58085 17.9688 7.03125ZM16.4062 7.03125C16.4062 5.99525 15.9947 5.00168 15.2621 4.26911C14.5296 3.53655 13.536 3.125 12.5 3.125C11.464 3.125 10.4704 3.53655 9.73786 4.26911C9.0053 5.00168 8.59375 5.99525 8.59375 7.03125C8.59375 8.06725 9.0053 9.06082 9.73786 9.79339C10.4704 10.5259 11.464 10.9375 12.5 10.9375C13.536 10.9375 14.5296 10.5259 15.2621 9.79339C15.9947 9.06082 16.4062 8.06725 16.4062 7.03125ZM5.85938 14.0625C5.13417 14.0625 4.43867 14.3506 3.92588 14.8634C3.41309 15.3762 3.125 16.0717 3.125 16.7969V17.1875C3.125 19.057 4.31484 20.6383 6.00391 21.7133C7.70234 22.7945 10.0016 23.4375 12.5 23.4375C14.9984 23.4375 17.2969 22.7945 18.9961 21.7133C20.6852 20.6383 21.875 19.057 21.875 17.1875V16.7969C21.875 16.0717 21.5869 15.3762 21.0741 14.8634C20.5613 14.3506 19.8658 14.0625 19.1406 14.0625H5.85938ZM4.6875 16.7969C4.6875 16.4861 4.81096 16.188 5.03073 15.9682C5.2505 15.7485 5.54857 15.625 5.85938 15.625H19.1406C19.4514 15.625 19.7495 15.7485 19.9693 15.9682C20.189 16.188 20.3125 16.4861 20.3125 16.7969V17.1875C20.3125 18.3383 19.5781 19.4914 18.157 20.3953C16.7453 21.2938 14.7477 21.875 12.5 21.875C10.2523 21.875 8.25469 21.2938 6.84297 20.3953C5.42109 19.4922 4.6875 18.3375 4.6875 17.1875V16.7969Z" fill="black"/>
</svg>
