<svg width="358" height="358" viewBox="0 0 358 358" fill="none" xmlns="http://www.w3.org/2000/svg">
<circle cx="179" cy="179" r="179" fill="#F4F4F4"/>
<path d="M132.75 226.749L146.412 240.457C147.103 241.148 147.917 241.524 148.854 241.586C149.785 241.641 150.655 241.265 151.463 240.457C152.271 239.649 152.671 238.798 152.665 237.904C152.659 237.01 152.258 236.159 151.463 235.351L137.801 221.698L151.518 207.98C152.209 207.29 152.582 206.476 152.638 205.538C152.693 204.601 152.32 203.731 151.518 202.93C150.717 202.128 149.875 201.724 148.993 201.718C148.111 201.712 147.269 202.113 146.468 202.921L132.75 216.648L119.032 202.939C118.348 202.248 117.537 201.875 116.6 201.82C115.662 201.758 114.79 202.128 113.982 202.93C113.174 203.731 112.773 204.576 112.779 205.464C112.785 206.352 113.186 207.194 113.982 207.99L127.7 221.707L113.982 235.416C113.297 236.106 112.924 236.92 112.863 237.858C112.801 238.795 113.174 239.665 113.982 240.466C114.79 241.268 115.631 241.672 116.507 241.678C117.383 241.684 118.224 241.283 119.032 240.476L132.75 226.749ZM132.75 258.698C122.446 258.698 113.704 255.106 106.526 247.922C99.3421 240.738 95.75 231.996 95.75 221.698C95.75 211.387 99.3421 202.643 106.526 195.465C113.704 188.287 122.446 184.698 132.75 184.698C143.055 184.698 151.799 188.287 158.983 195.465C166.167 202.643 169.756 211.387 169.75 221.698C169.75 231.996 166.161 240.738 158.983 247.922C151.793 255.106 143.048 258.698 132.75 258.698ZM198.999 196.288C197.334 197.713 195.345 199.079 193.032 200.386C190.72 201.693 188.558 202.702 186.548 203.411C185.882 202.116 185.161 200.842 184.384 199.591C183.607 198.339 182.808 197.204 181.988 196.187C189.745 192.961 196.168 187.821 201.256 180.767C206.343 173.712 208.884 165.415 208.878 155.875C208.878 143.721 204.623 133.388 196.113 124.878C187.603 116.368 177.273 112.113 165.125 112.113C152.977 112.113 142.644 116.371 134.128 124.888C125.612 133.404 121.357 143.733 121.363 155.875C121.363 157.75 121.521 159.646 121.835 161.564C122.15 163.475 122.504 165.307 122.899 167.058C121.542 167.132 120.037 167.425 118.385 167.937C116.732 168.449 115.249 168.964 113.936 169.482C113.387 167.552 112.946 165.412 112.613 163.062C112.28 160.713 112.113 158.317 112.113 155.875C112.113 141.087 117.253 128.557 127.533 118.283C137.807 108.003 150.337 102.863 165.125 102.863C179.913 102.863 192.446 108.003 202.726 118.283C213.006 128.563 218.14 141.094 218.128 155.875C218.128 162.504 216.968 168.757 214.65 174.634C212.331 180.511 209.38 185.62 205.797 189.961L260.391 244.601C261.254 245.464 261.726 246.519 261.806 247.765C261.886 248.998 261.414 250.126 260.391 251.15C259.404 252.137 258.313 252.63 257.116 252.63C255.92 252.63 254.828 252.137 253.842 251.15L198.999 196.288Z" fill="#E46504"/>
</svg>
