<svg width="32" height="32" viewBox="0 0 32 32" fill="none" xmlns="http://www.w3.org/2000/svg">
<path d="M23 9.375L31.9844 13.875V26.0938L23 30.5938L14 26.125V21.1094L9 23.5938L0 19.125L0.015625 6.875L9 2.375L17.9844 6.875L18 11.8906L23 9.375ZM28.75 14.4844L23 11.625L17.25 14.4844L23 17.3594L28.75 14.4844ZM14.75 7.48438L9 4.625L3.25 7.48438L9 10.3594L14.75 7.48438ZM2.01562 9.10938L2 17.875L8 20.8594V12.0938L2.01562 9.10938ZM10 20.8594L14.0156 18.875V13.875L16 12.8906L15.9844 9.10938L10 12.0938V20.8594ZM16.0156 16.1094L16 24.875L22 27.8594V19.0938L16.0156 16.1094ZM24 27.8594L29.9844 24.8594V16.1094L24 19.0938V27.8594Z" fill="white"/>
</svg>
