<svg width="67" height="67" viewBox="0 0 67 67" fill="none" xmlns="http://www.w3.org/2000/svg">
<circle cx="33.5" cy="33.5" r="33.5" fill="#F4F4F4"/>
<path d="M24.3483 33.54H21.335C20.37 33.54 19.5883 34.3234 19.5883 35.2867V46.67C19.5883 47.6334 20.3717 48.4167 21.335 48.4167H24.35C25.3167 48.4167 26.0983 47.6334 26.0983 46.6684V35.2867C26.0979 34.8232 25.9135 34.3787 25.5858 34.0509C25.258 33.7232 24.8135 33.5388 24.35 33.5384M35.5067 17.5834H32.4933C31.5267 17.5834 30.745 18.3667 30.745 19.3317V46.6667C30.745 47.6334 31.5283 48.415 32.495 48.415H35.5067C36.4733 48.415 37.255 47.6317 37.255 46.6667V19.3334C37.255 18.3667 36.4716 17.585 35.505 17.585M46.665 26.2117H43.65C42.6833 26.2117 41.9016 26.995 41.9016 27.9617V46.6667C41.9016 47.6334 42.685 48.415 43.65 48.415H46.6633C47.1269 48.4146 47.5713 48.2303 47.8991 47.9025C48.2269 47.5747 48.4112 47.1303 48.4116 46.6667V27.96C48.4116 26.9934 47.6283 26.2117 46.6616 26.2117" stroke="#E46504" stroke-width="1.3" stroke-linecap="round" stroke-linejoin="round"/>
</svg>
