<svg width="43" height="43" viewBox="0 0 43 43" fill="none" xmlns="http://www.w3.org/2000/svg">
<path d="M27.3068 6.66679L27.8318 10.3021H34.9375C35.2939 10.3021 35.6357 10.4437 35.8877 10.6957C36.1397 10.9477 36.2812 11.2894 36.2812 11.6458C36.2812 12.0022 36.1397 12.344 35.8877 12.596C35.6357 12.848 35.2939 12.9896 34.9375 12.9896H33.5597L31.9956 31.2377C31.9006 32.3485 31.8236 33.2623 31.7 34.0005C31.5745 34.7691 31.3828 35.4571 31.0084 36.0949C30.4204 37.0967 29.5462 37.8997 28.4982 38.4008C27.8317 38.7179 27.1294 38.8487 26.3518 38.9096C25.6047 38.9687 24.6892 38.9688 23.5747 38.9688H19.4253C18.3108 38.9688 17.3953 38.9687 16.6482 38.9096C15.8706 38.8487 15.1682 38.7179 14.5017 38.4008C13.4538 37.8997 12.5796 37.0967 11.9916 36.0949C11.6154 35.4571 11.4273 34.7691 11.3 34.0005C11.1764 33.2605 11.0994 32.3485 11.0044 31.2377L9.44029 12.9896H8.0625C7.70612 12.9896 7.36433 12.848 7.11233 12.596C6.86032 12.344 6.71875 12.0022 6.71875 11.6458C6.71875 11.2894 6.86032 10.9477 7.11233 10.6957C7.36433 10.4437 7.70612 10.3021 8.0625 10.3021H15.1682L15.6932 6.66679L15.7129 6.5575C16.039 5.14208 17.2537 4.03125 18.7767 4.03125H24.2233C25.7463 4.03125 26.961 5.14208 27.2871 6.5575L27.3068 6.66679ZM17.8826 10.3021H25.1156L24.6569 7.12008C24.5709 6.82087 24.3523 6.71875 24.2215 6.71875H18.7785C18.6477 6.71875 18.4291 6.82087 18.3431 7.12008L17.8826 10.3021ZM20.1562 18.8125C20.1562 18.4561 20.0147 18.1143 19.7627 17.8623C19.5107 17.6103 19.1689 17.4688 18.8125 17.4688C18.4561 17.4688 18.1143 17.6103 17.8623 17.8623C17.6103 18.1143 17.4688 18.4561 17.4688 18.8125V27.7708C17.4688 28.1272 17.6103 28.469 17.8623 28.721C18.1143 28.973 18.4561 29.1146 18.8125 29.1146C19.1689 29.1146 19.5107 28.973 19.7627 28.721C20.0147 28.469 20.1562 28.1272 20.1562 27.7708V18.8125ZM25.5312 18.8125C25.5312 18.4561 25.3897 18.1143 25.1377 17.8623C24.8857 17.6103 24.5439 17.4688 24.1875 17.4688C23.8311 17.4688 23.4893 17.6103 23.2373 17.8623C22.9853 18.1143 22.8438 18.4561 22.8438 18.8125V27.7708C22.8438 28.1272 22.9853 28.469 23.2373 28.721C23.4893 28.973 23.8311 29.1146 24.1875 29.1146C24.5439 29.1146 24.8857 28.973 25.1377 28.721C25.3897 28.469 25.5312 28.1272 25.5312 27.7708V18.8125Z" fill="black"/>
</svg>
