<svg width="40" height="40" viewBox="0 0 40 40" fill="none" xmlns="http://www.w3.org/2000/svg">
<path d="M25.4017 6.20167L25.89 9.58333H32.5C32.8315 9.58333 33.1495 9.71503 33.3839 9.94945C33.6183 10.1839 33.75 10.5018 33.75 10.8333C33.75 11.1649 33.6183 11.4828 33.3839 11.7172C33.1495 11.9516 32.8315 12.0833 32.5 12.0833H31.2183L29.7633 29.0583C29.675 30.0917 29.6033 30.9417 29.4883 31.6283C29.3717 32.3433 29.1933 32.9833 28.845 33.5767C28.298 34.5086 27.4849 35.2556 26.51 35.7217C25.89 36.0167 25.2367 36.1383 24.5133 36.195C23.8183 36.25 22.9667 36.25 21.93 36.25H18.07C17.0333 36.25 16.1817 36.25 15.4867 36.195C14.7633 36.1383 14.11 36.0167 13.49 35.7217C12.5151 35.2556 11.702 34.5086 11.155 33.5767C10.805 32.9833 10.63 32.3433 10.5117 31.6283C10.3967 30.94 10.325 30.0917 10.2367 29.0583L8.78167 12.0833H7.5C7.16848 12.0833 6.85054 11.9516 6.61612 11.7172C6.3817 11.4828 6.25 11.1649 6.25 10.8333C6.25 10.5018 6.3817 10.1839 6.61612 9.94945C6.85054 9.71503 7.16848 9.58333 7.5 9.58333H14.11L14.5983 6.20167L14.6167 6.1C14.92 4.78333 16.05 3.75 17.4667 3.75H22.5333C23.95 3.75 25.08 4.78333 25.3833 6.1L25.4017 6.20167ZM16.635 9.58333H23.3633L22.9367 6.62333C22.8567 6.345 22.6533 6.25 22.5317 6.25H17.4683C17.3467 6.25 17.1433 6.345 17.0633 6.62333L16.635 9.58333ZM18.75 17.5C18.75 17.1685 18.6183 16.8505 18.3839 16.6161C18.1495 16.3817 17.8315 16.25 17.5 16.25C17.1685 16.25 16.8505 16.3817 16.6161 16.6161C16.3817 16.8505 16.25 17.1685 16.25 17.5V25.8333C16.25 26.1649 16.3817 26.4828 16.6161 26.7172C16.8505 26.9516 17.1685 27.0833 17.5 27.0833C17.8315 27.0833 18.1495 26.9516 18.3839 26.7172C18.6183 26.4828 18.75 26.1649 18.75 25.8333V17.5ZM23.75 17.5C23.75 17.1685 23.6183 16.8505 23.3839 16.6161C23.1495 16.3817 22.8315 16.25 22.5 16.25C22.1685 16.25 21.8505 16.3817 21.6161 16.6161C21.3817 16.8505 21.25 17.1685 21.25 17.5V25.8333C21.25 26.1649 21.3817 26.4828 21.6161 26.7172C21.8505 26.9516 22.1685 27.0833 22.5 27.0833C22.8315 27.0833 23.1495 26.9516 23.3839 26.7172C23.6183 26.4828 23.75 26.1649 23.75 25.8333V17.5Z" fill="#F3F9E3"/>
</svg>
