<svg width="168" height="146" viewBox="0 0 168 146" fill="none" xmlns="http://www.w3.org/2000/svg">
<path fill-rule="evenodd" clip-rule="evenodd" d="M2.88042 121.504L70.6743 8.19269C72.1018 5.83826 74.1112 3.89178 76.5086 2.54094C78.9061 1.1901 81.6107 0.480469 84.3618 0.480469C87.1128 0.480469 89.8174 1.1901 92.2149 2.54094C94.6123 3.89178 96.6217 5.83826 98.0492 8.19269L165.843 121.504C167.24 123.928 167.979 126.675 167.986 129.473C167.993 132.272 167.269 135.023 165.885 137.454C164.501 139.885 162.505 141.911 160.097 143.33C157.688 144.75 154.95 145.513 152.156 145.545H16.5679C13.772 145.516 11.0325 144.755 8.62216 143.336C6.21186 141.917 4.21495 139.891 2.83034 137.459C1.44573 135.027 0.721761 132.274 0.730548 129.475C0.739334 126.675 1.48057 123.927 2.88042 121.504ZM84.3618 44.5719C86.9092 44.5719 89.3524 45.5851 91.1537 47.3885C92.955 49.192 93.967 51.638 93.967 54.1884V83.0379C93.967 85.5884 92.955 88.0344 91.1537 89.8378C89.3524 91.6413 86.9092 92.6544 84.3618 92.6544C81.8143 92.6544 79.3711 91.6413 77.5698 89.8378C75.7685 88.0344 74.7565 85.5884 74.7565 83.0379V54.1884C74.7565 51.638 75.7685 49.192 77.5698 47.3885C79.3711 45.5851 81.8143 44.5719 84.3618 44.5719ZM74.7565 111.887C74.7565 109.337 75.7685 106.891 77.5698 105.088C79.3711 103.284 81.8143 102.271 84.3618 102.271H84.4386C86.9861 102.271 89.4292 103.284 91.2305 105.088C93.0319 106.891 94.0438 109.337 94.0438 111.887C94.0438 114.438 93.0319 116.884 91.2305 118.687C89.4292 120.491 86.9861 121.504 84.4386 121.504H84.3618C81.8143 121.504 79.3711 120.491 77.5698 118.687C75.7685 116.884 74.7565 114.438 74.7565 111.887Z" fill="#F3F9E3"/>
</svg>
