<svg width="38" height="38" viewBox="0 0 38 38" fill="none" xmlns="http://www.w3.org/2000/svg">
<circle cx="19" cy="19" r="18.9" fill="#F4F4F4" stroke="black" stroke-width="0.2"/>
<g clip-path="url(#clip0_59_173)">
<mask id="mask0_59_173" style="mask-type:luminance" maskUnits="userSpaceOnUse" x="9" y="8" width="21" height="21">
<path d="M9 8H30V29H9V8Z" fill="white"/>
</mask>
<g mask="url(#mask0_59_173)">
<path fill-rule="evenodd" clip-rule="evenodd" d="M24.2381 20.5843C23.9774 20.4539 22.699 19.8257 22.461 19.7382C22.223 19.6507 22.0498 19.6087 21.8756 19.8694C21.7024 20.1293 21.2045 20.7147 21.0531 20.8879C20.9009 21.062 20.7495 21.083 20.4896 20.9535C20.2297 20.8223 19.3915 20.5484 18.3984 19.6629C17.6258 18.9734 17.1034 18.122 16.952 17.8613C16.8006 17.6014 16.9354 17.4605 17.0658 17.331C17.183 17.2147 17.3256 17.0274 17.456 16.876C17.5864 16.7247 17.6293 16.6153 17.7159 16.4412C17.8034 16.2679 17.7596 16.1165 17.694 15.9862C17.6292 15.8558 17.1095 14.5757 16.8925 14.055C16.6816 13.5484 16.4673 13.6175 16.308 13.6088C16.1558 13.6018 15.9825 13.6 15.8092 13.6C15.636 13.6 15.3542 13.6648 15.1163 13.9255C14.8774 14.1854 14.2062 14.8145 14.2062 16.0947C14.2062 17.3739 15.1372 18.6103 15.2676 18.7844C15.398 18.9585 17.1007 21.5844 19.7091 22.7105C20.3304 22.9783 20.8142 23.1384 21.1914 23.2574C21.8144 23.456 22.3814 23.428 22.8294 23.3607C23.3281 23.2863 24.3676 22.7315 24.5846 22.1243C24.8016 21.517 24.8007 20.9964 24.736 20.8879C24.6712 20.7794 24.498 20.7147 24.2372 20.5843M19.493 27.0619H19.4895C17.9403 27.0622 16.4195 26.6457 15.0865 25.8562L14.7715 25.6689L11.4973 26.5282L12.3714 23.3362L12.1658 23.0089C11.2996 21.6302 10.8412 20.0346 10.8436 18.4064C10.8454 13.6377 14.7251 9.7579 19.4965 9.7579C20.6329 9.75445 21.7587 9.97692 22.8084 10.4124C23.8581 10.8479 24.8107 11.4876 25.611 12.2945C26.4164 13.0963 27.0548 14.0499 27.4892 15.1C27.9235 16.1502 28.1453 17.2761 28.1415 18.4125C28.1397 23.1813 24.26 27.0619 19.493 27.0619ZM26.8535 11.052C25.8894 10.0819 24.7424 9.31261 23.479 8.78874C22.2155 8.26486 20.8607 7.99678 19.493 8.00003C13.7582 8.00003 9.08925 12.6682 9.0875 18.4055C9.08468 20.2315 9.56367 22.0258 10.4761 23.6074L9 29L14.516 27.5528C16.0422 28.3835 17.7519 28.819 19.4895 28.8198H19.4939C25.2286 28.8198 29.8976 24.1517 29.8994 18.4134C29.9037 17.046 29.6367 15.6913 29.1141 14.4278C28.5914 13.1642 27.8234 12.0168 26.8544 11.052" fill="black"/>
</g>
</g>
<defs>
<clipPath id="clip0_59_173">
<rect width="21" height="21" fill="white" transform="translate(9 8)"/>
</clipPath>
</defs>
</svg>
