<svg width="366" height="280" viewBox="0 0 366 280" fill="none" xmlns="http://www.w3.org/2000/svg">
<path d="M88.8198 216.698V270H278.121V213.075M278.121 95.4791V55.7485C278.121 43.6151 273.369 31.9788 264.911 23.3992C256.453 14.8197 244.982 10 233.02 10H48.7435C38.4722 10.0486 28.6362 14.2128 21.3789 21.5859C14.1216 28.959 10.0318 38.9428 10 49.3618V86.9433H61.3964M88.8201 221.857V49.3618C88.7882 38.9322 84.6894 28.939 77.4191 21.5642C70.1487 14.1893 60.2971 10.0324 50.0153 10M126.232 71.2232H179.687M126.232 125.937H200.875M126.232 190.231H235.926M326.067 90.1978C318.128 87.0837 309.506 86.2104 301.117 87.6701C292.728 89.1298 284.886 92.8679 278.424 98.4877C271.962 92.8679 264.119 89.1298 255.73 87.6701C247.341 86.2104 238.72 87.0837 230.781 90.1978C225.02 92.4661 219.756 95.864 215.289 100.197C210.823 104.53 207.243 109.712 204.752 115.449C202.262 121.186 200.911 127.365 200.775 133.632C200.64 139.899 201.722 146.132 203.962 151.974C213.164 176.046 278.363 214.856 278.363 214.856C281.027 213.321 343.563 176.108 352.764 152.036C355.017 146.198 356.113 139.966 355.991 133.698C355.868 127.43 354.528 121.247 352.049 115.504C349.57 109.762 345.999 104.571 341.541 100.228C337.082 95.886 331.824 92.4776 326.067 90.1978Z" stroke="#EEA144" stroke-width="19" stroke-miterlimit="10"/>
</svg>
