<svg width="67" height="67" viewBox="0 0 67 67" fill="none" xmlns="http://www.w3.org/2000/svg">
<circle cx="33.5" cy="33.5" r="33.5" fill="#F4F4F4"/>
<path d="M23.6565 41.2598V47H44.4468V40.8696M44.4468 28.2054V23.9268C44.4468 22.6201 43.925 21.3669 42.996 20.443C42.0671 19.519 40.8073 19 39.4936 19H19.2551C18.127 19.0052 17.0468 19.4537 16.2497 20.2477C15.4527 21.0417 15.0035 22.1169 15 23.239V27.2862H20.6447M23.6565 41.8153V23.239C23.653 22.1158 23.2029 21.0396 22.4044 20.2454C21.6059 19.4512 20.524 19.0035 19.3947 19M27.7654 25.5933H33.6361M27.7654 31.4856H35.9631M27.7654 38.4095H39.8127M49.7126 27.6367C48.8407 27.3013 47.8937 27.2073 46.9724 27.3645C46.051 27.5217 45.1898 27.9242 44.4801 28.5294C43.7704 27.9242 42.9091 27.5217 41.9877 27.3645C41.0664 27.2073 40.1195 27.3013 39.2476 27.6367C38.6149 27.881 38.0367 28.2469 37.5462 28.7135C37.0558 29.1801 36.6625 29.7382 36.389 30.356C36.1155 30.9739 35.9671 31.6393 35.9522 32.3142C35.9373 32.9892 36.0562 33.6604 36.3022 34.2895C37.3128 36.8819 44.4734 41.0614 44.4734 41.0614C44.766 40.8961 51.634 36.8885 52.6446 34.2962C52.892 33.6674 53.0125 32.9964 52.999 32.3213C52.9855 31.6463 52.8384 30.9805 52.5661 30.362C52.2938 29.7436 51.9016 29.1845 51.412 28.7169C50.9224 28.2493 50.3449 27.8822 49.7126 27.6367Z" stroke="#E46504" stroke-width="1.5" stroke-miterlimit="10"/>
</svg>
